<svg width="35" height="36" viewBox="0 0 35 36" fill="none" xmlns="http://www.w3.org/2000/svg">
<path fill-rule="evenodd" clip-rule="evenodd" d="M34.5658 18C34.5658 27.5445 26.8274 35.2829 17.2829 35.2829C7.73842 35.2829 0 27.5445 0 18C0 8.45551 7.73842 0.717087 17.2829 0.717087C26.8274 0.717087 34.5658 8.45551 34.5658 18ZM8.64146 24.049H21.6036V14.5434C21.6036 14.203 21.5366 13.8659 21.4063 13.5513C21.276 13.2368 21.0851 12.951 20.8443 12.7103C20.6036 12.4696 20.3178 12.2786 20.0033 12.1483C19.6888 12.018 19.3516 11.951 19.0112 11.951H6.04902V21.4566C6.04902 22.1441 6.32215 22.8035 6.80833 23.2897C7.04906 23.5304 7.33484 23.7214 7.64937 23.8517C7.9639 23.982 8.30101 24.049 8.64146 24.049ZM23.3319 20.5924L28.5168 24.049V11.951L23.3319 15.4076V20.5924Z" fill="white"/>
</svg>
