<svg width="471" height="574" viewBox="0 0 471 574" fill="none" xmlns="http://www.w3.org/2000/svg">
<g clip-path="url(#clip0_523_397)">
<path d="M420.041 300.15H406.305V269.832H420.041C425.595 269.832 430.117 274.355 430.117 279.911V290.065C430.117 295.621 425.595 300.145 420.041 300.145V300.15ZM411.016 295.438H420.041C422.996 295.438 425.406 293.033 425.406 290.071V279.917C425.406 276.961 423.002 274.55 420.041 274.55H411.016V295.438Z" fill="#F9F9ED"/>
<path d="M420.042 301.505H404.951V268.483H420.042C426.342 268.483 431.472 273.614 431.472 279.917V290.071C431.472 296.373 426.342 301.505 420.042 301.505ZM407.654 298.801H420.042C424.856 298.801 428.769 294.887 428.769 290.071V279.917C428.769 275.101 424.856 271.186 420.042 271.186H407.654V298.801ZM420.042 296.787H409.668V273.195H420.042C423.743 273.195 426.755 276.209 426.755 279.911V290.065C426.755 293.767 423.743 296.781 420.042 296.781V296.787ZM412.37 294.083H420.042C422.257 294.083 424.053 292.281 424.053 290.071V279.917C424.053 277.701 422.251 275.905 420.042 275.905H412.37V294.089V294.083Z" fill="white"/>
<path d="M415.423 305.052H379.154V265.228C379.154 262.972 380.709 260.981 382.987 260.326C392.524 257.594 402.054 257.594 411.591 260.326C413.869 260.981 415.423 262.978 415.423 265.228V305.052Z" fill="black"/>
<path d="M416.776 306.407H377.799V265.228C377.799 262.387 379.778 259.838 382.613 259.023C392.35 256.234 402.225 256.234 411.962 259.023C414.797 259.838 416.776 262.387 416.776 265.228V306.407ZM380.501 303.703H414.068V265.228C414.068 263.564 412.92 262.117 411.211 261.623C401.967 258.972 392.597 258.977 383.353 261.623C381.643 262.111 380.496 263.558 380.496 265.228V303.703H380.501Z" fill="white"/>
<path d="M345.731 223.498H266.387C261.973 223.498 258.395 227.078 258.395 231.494V277.213C258.395 281.629 261.973 285.209 266.387 285.209H345.731C350.145 285.209 353.724 281.629 353.724 277.213V231.494C353.724 227.078 350.145 223.498 345.731 223.498Z" fill="white"/>
<g opacity="0.2">
<path d="M349.013 224.21C349.478 225.226 349.747 226.351 349.747 227.545V273.264C349.747 277.678 346.167 281.26 341.755 281.26H262.411C261.241 281.26 260.133 281.002 259.135 280.548C260.397 283.298 263.168 285.209 266.393 285.209H345.737C350.149 285.209 353.73 281.627 353.73 277.213V231.494C353.73 228.251 351.796 225.461 349.013 224.21Z" fill="white"/>
</g>
<path d="M345.736 286.633H266.393C261.206 286.633 256.982 282.408 256.982 277.219V231.5C256.982 226.311 261.206 222.086 266.393 222.086H345.736C350.923 222.086 355.146 226.311 355.146 231.5V277.219C355.146 282.408 350.923 286.633 345.736 286.633ZM266.387 224.922C262.76 224.922 259.811 227.872 259.811 231.5V277.219C259.811 280.847 262.76 283.797 266.387 283.797H345.73C349.357 283.797 352.306 280.847 352.306 277.219V231.5C352.306 227.872 349.357 224.922 345.73 224.922H266.387Z" fill="white"/>
<path d="M299.294 374.07H294.17L296.7 523.293C296.718 524.389 297.435 525.267 298.313 525.267H299.294C300.172 525.267 300.889 524.389 300.906 523.293L303.437 374.07H299.294Z" fill="white"/>
<path d="M221.786 374.07H216.662L219.193 523.293C219.21 524.389 219.927 525.267 220.805 525.267H221.786C222.664 525.267 223.381 524.389 223.398 523.293L225.929 374.07H221.786Z" fill="white"/>
<path d="M318.837 374.07H311.16L314.947 553.038C314.976 554.352 316.049 555.408 317.363 555.408H318.832C320.146 555.408 321.224 554.358 321.247 553.038L325.034 374.07H318.826H318.837Z" fill="white"/>
<path d="M202.736 374.07H195.059L198.846 553.038C198.874 554.352 199.947 555.408 201.261 555.408H202.73C204.044 555.408 205.123 554.358 205.146 553.038L208.933 374.07H202.724H202.736Z" fill="white"/>
<path d="M342.076 354.95H216.508C211.513 354.95 207.465 359 207.465 363.996V374.799C207.465 379.795 211.513 383.845 216.508 383.845H342.076C347.07 383.845 351.119 379.795 351.119 374.799V363.996C351.119 359 347.07 354.95 342.076 354.95Z" fill="white"/>
<g opacity="0.2">
<path d="M346.821 356.305C347.183 357.281 347.383 358.325 347.383 359.427V370.23C347.383 375.224 343.338 379.276 338.34 379.276H212.767C211.028 379.276 209.404 378.777 208.027 377.922C209.301 381.377 212.606 383.845 216.502 383.845H342.076C347.068 383.845 351.119 379.799 351.119 374.799V363.996C351.119 360.742 349.397 357.9 346.821 356.305Z" fill="white"/>
</g>
<path d="M342.081 385.257H216.507C210.74 385.257 206.047 380.562 206.047 374.793V363.991C206.047 358.222 210.74 353.527 216.507 353.527H342.081C347.847 353.527 352.541 358.222 352.541 363.991V374.793C352.541 380.562 347.847 385.257 342.081 385.257ZM216.507 356.368C212.301 356.368 208.887 359.789 208.887 363.991V374.793C208.887 379.001 212.307 382.416 216.507 382.416H342.081C346.286 382.416 349.701 378.995 349.701 374.793V363.991C349.701 359.783 346.281 356.368 342.081 356.368H216.507Z" fill="white"/>
<path d="M210.133 227L201.968 259.155C188.731 259.046 166.382 265.55 143.838 272.191L146.638 291.575L211.384 289.084C221.603 288.693 230.199 281.294 232.115 271.244L239.093 234.657L210.139 226.994L210.133 227Z" fill="#090909"/>
<path d="M145.472 292.97L142.328 271.226L143.453 270.894C163.92 264.861 187.049 258.042 200.912 257.806L209.157 225.341L240.653 233.675L233.44 271.496C231.392 282.224 222.349 290.013 211.435 290.433L145.472 292.97ZM145.341 273.155L147.796 290.174L211.326 287.729C220.972 287.356 228.97 280.474 230.778 270.991L237.52 235.644L211.102 228.653L203.012 260.516H201.95C201.847 260.504 201.744 260.504 201.641 260.504C188.507 260.504 165.716 267.151 145.335 273.161L145.341 273.155Z" fill="white"/>
<g opacity="0.2">
<path d="M239.087 234.657L210.134 226.994L207.965 235.541C211.058 237.211 214.041 238.727 216.87 240.075C220.112 241.625 222.229 244.828 222.378 248.416C222.855 259.873 223.537 271.835 224.341 284.216C228.283 281.036 231.117 276.502 232.121 271.238L236.671 247.365L239.093 234.651L239.087 234.657Z" fill="white"/>
</g>
<path d="M250.947 156.633C258.825 154.228 255.801 194.138 252.421 206.852C249.581 217.54 242.076 243.089 241.336 243.284C237.118 244.38 223.101 239.283 206.443 230.013C205.6 229.543 205.118 228.613 205.256 227.66C206.621 218.057 221.351 165.679 250.947 156.633Z" fill="#090909"/>
<path d="M240.021 244.725C234.071 244.725 220.857 239.524 205.812 231.156C204.481 230.415 203.758 228.969 203.97 227.476C205.095 219.549 219.646 164.836 250.573 155.388C251.801 155.014 253.006 155.307 253.953 156.22C259.725 161.788 256.661 196.021 253.689 207.191C252.249 212.61 249.644 221.73 247.349 229.382C242.896 244.231 242.563 244.317 241.674 244.547C241.215 244.667 240.664 244.725 240.027 244.725H240.021ZM251.331 157.884C221.695 166.942 207.648 220.135 206.552 227.844C206.495 228.257 206.701 228.664 207.08 228.877C223.8 238.181 236.47 242.538 240.515 242.107C242.012 238.606 248.404 216.909 251.164 206.519C254.28 194.81 256.655 162.453 252.134 158.097C251.836 157.804 251.612 157.798 251.331 157.884Z" fill="white"/>
<g opacity="0.2">
<path d="M241.335 243.284C242.075 243.089 249.58 217.54 252.421 206.852C255.8 194.138 258.824 154.228 250.946 156.633C247.262 157.758 243.814 159.555 240.583 161.857C228.735 175.604 221.895 192.807 221.677 210.928C221.574 219.475 221.694 228.469 221.981 237.831C231.368 241.998 238.524 244.013 241.329 243.284H241.335Z" fill="white"/>
</g>
<path d="M185.444 470.215C186.156 486.029 187.349 501.521 186.351 515.073C155.447 517.191 121.622 515.974 88.8184 512.691C88.8184 512.691 95.6751 494.455 112.017 490.913C129.316 487.165 151.275 485.989 150.994 469.475L185.444 470.215Z" fill="#090909"/>
<g opacity="0.3">
<path d="M100.235 503.513C101.09 502.307 102.094 501.211 103.179 500.201C104.269 499.191 105.457 498.278 106.731 497.492C107.993 496.688 109.358 496.039 110.77 495.528C112.187 495.046 113.662 494.702 115.154 494.627C115.475 494.61 115.745 494.857 115.756 495.178C115.768 495.425 115.618 495.649 115.4 495.741H115.395C114.069 496.292 112.773 496.797 111.516 497.394C110.248 497.962 109.026 498.611 107.815 499.294C106.616 499.994 105.445 500.758 104.298 501.573C103.15 502.388 102.037 503.266 100.901 504.15C100.7 504.311 100.407 504.276 100.247 504.07C100.115 503.903 100.12 503.674 100.235 503.513Z" fill="#F9F9ED"/>
</g>
<path d="M131.147 501.165C130.292 501.148 129.517 500.562 129.299 499.69C127.899 494.088 125.833 491.746 124.841 490.621C124.709 490.472 124.588 490.339 124.497 490.225C123.808 489.398 123.923 488.164 124.755 487.481C125.581 486.792 126.809 486.907 127.497 487.739C127.566 487.825 127.658 487.923 127.761 488.044C128.869 489.295 131.451 492.222 133.08 498.749C133.339 499.793 132.707 500.849 131.663 501.113C131.491 501.159 131.319 501.177 131.147 501.171V501.165Z" fill="#F9F9ED"/>
<path d="M141.336 498.588C140.481 498.571 139.707 497.985 139.489 497.113C138.089 491.51 136.023 489.169 135.03 488.043C134.898 487.894 134.778 487.762 134.686 487.647C133.997 486.821 134.112 485.587 134.944 484.904C135.77 484.215 136.998 484.33 137.687 485.162C137.756 485.248 137.848 485.346 137.951 485.466C139.058 486.718 141.64 489.645 143.27 496.171C143.528 497.216 142.897 498.272 141.853 498.536C141.68 498.582 141.508 498.599 141.336 498.594V498.588Z" fill="#F9F9ED"/>
<path d="M150.518 494.92C149.663 494.903 148.888 494.317 148.67 493.445C147.27 487.843 145.205 485.501 144.212 484.376C144.08 484.226 143.959 484.094 143.868 483.98C143.179 483.153 143.294 481.919 144.126 481.236C144.952 480.547 146.18 480.662 146.869 481.494C146.937 481.58 147.029 481.678 147.132 481.798C148.24 483.05 150.822 485.977 152.452 492.504C152.71 493.548 152.079 494.604 151.034 494.868C150.862 494.914 150.69 494.932 150.518 494.926V494.92Z" fill="#F9F9ED"/>
<g opacity="0.2">
<path d="M185.444 470.215L180.917 470.117C181.514 482.051 182.22 493.697 181.87 504.357C181.766 507.519 179.265 510.079 176.103 510.257C148.905 511.761 119.671 510.797 90.9929 508.197C89.5125 510.837 88.8125 512.697 88.8125 512.697C121.616 515.98 155.447 517.197 186.345 515.079C187.349 501.521 186.156 486.029 185.438 470.221L185.444 470.215Z" fill="white"/>
</g>
<path d="M153.844 517.444C133.458 517.444 111.665 516.29 88.685 513.988L86.998 513.822L87.5948 512.232C87.8874 511.463 94.8934 493.284 111.74 489.633C114.356 489.065 117.122 488.549 119.796 488.049C135.282 485.156 149.914 482.424 149.69 469.492L149.667 468.137L186.694 468.935L186.751 470.152C186.889 473.171 187.044 476.173 187.193 479.158C187.847 491.993 188.467 504.121 187.652 515.171L187.566 516.301L186.436 516.376C176.039 517.088 165.154 517.444 153.844 517.444ZM90.7277 511.572C124.707 514.889 157.281 515.676 185.127 513.851C185.81 503.26 185.213 491.608 184.588 479.296C184.456 476.713 184.324 474.107 184.204 471.495L152.284 470.806C151.561 484.777 135.667 487.745 120.284 490.621C117.627 491.114 114.884 491.631 112.302 492.188C99.6329 494.931 92.8163 507.169 90.7392 511.572H90.7277Z" fill="white"/>
<path d="M185.765 522.34C153.415 523.723 120.875 522.925 88.1576 520.239C86.9124 520.136 85.9772 519.481 85.9944 518.73L86.0919 514.281C86.1091 513.426 87.3313 512.783 88.7428 512.88C121.208 515.027 153.478 515.739 185.535 514.958C186.803 514.93 187.871 515.55 187.853 516.313L187.75 521.071C187.733 521.743 186.884 522.294 185.77 522.34H185.765Z" fill="white"/>
<path d="M154.419 524.309C132.712 524.309 110.501 523.385 88.0544 521.548C86.0749 521.387 84.6576 520.193 84.692 518.712L84.7896 514.264C84.801 513.632 85.0937 513.03 85.5986 512.559C86.356 511.865 87.561 511.503 88.829 511.583C121.34 513.736 153.868 514.43 185.501 513.661C186.643 513.621 187.779 514.017 188.456 514.694C188.921 515.159 189.167 515.745 189.156 516.347L189.053 521.106C189.024 522.501 187.664 523.568 185.822 523.649C175.5 524.091 165.017 524.309 154.419 524.309ZM87.297 518.626C87.4232 518.73 87.7503 518.902 88.261 518.942C121.564 521.668 154.344 522.374 185.702 521.037C186.08 521.02 186.321 520.922 186.436 520.853L186.528 516.479C186.379 516.388 186.035 516.261 185.547 516.261C153.834 517.036 121.225 516.336 88.6397 514.183C87.9741 514.132 87.5323 514.333 87.3773 514.448L87.2855 518.626H87.297Z" fill="white"/>
<path d="M301.509 324.327C301.739 316.303 301.269 307.532 300.339 297.791L243.304 310.678C213.571 320.499 186.425 330.303 169.596 340.032C165.791 342.23 162.349 345.031 159.531 348.412C137.899 374.346 132.758 430.052 131.134 468.66C131.054 470.623 132.316 472.373 134.199 472.936C151.642 478.113 177.927 480.444 196.764 477.729C199.134 477.39 200.747 475.14 200.333 472.775C195.881 447.175 193.907 419.6 204.293 406.909C207.087 403.499 210.707 400.864 214.799 399.223L262.348 380.137C285.294 370.925 300.804 349.044 301.504 324.321L301.509 324.327Z" fill="black"/>
<path d="M179.125 480.277C163.782 480.277 146.729 478.136 133.796 474.296C131.282 473.55 129.607 471.208 129.716 468.602C132.298 407.19 141.697 367.578 158.44 347.505C161.28 344.096 164.797 341.174 168.883 338.809C186.796 328.454 216.329 318.099 242.856 309.34L242.988 309.306L301.589 296.063L301.743 297.665C302.765 308.307 303.138 316.796 302.92 324.373C302.202 349.577 286.486 371.986 262.875 381.463L215.325 400.549C211.441 402.11 208.004 404.618 205.387 407.816C197.107 417.929 195.908 439.099 201.726 472.534C201.996 474.067 201.64 475.599 200.728 476.856C199.821 478.102 198.484 478.911 196.964 479.129C191.593 479.904 185.5 480.272 179.119 480.272L179.125 480.277ZM243.682 312.049C217.311 320.763 187.978 331.043 170.306 341.26C166.507 343.459 163.248 346.168 160.62 349.319C144.29 368.898 135.11 407.953 132.55 468.717C132.493 470.02 133.342 471.197 134.605 471.57C152.57 476.902 178.626 478.9 196.562 476.322C197.32 476.213 197.985 475.812 198.433 475.192C198.892 474.56 199.07 473.791 198.932 473.022C192.965 438.725 194.359 416.81 203.19 406.013C206.104 402.449 209.937 399.647 214.264 397.914L261.814 378.829C284.375 369.771 299.397 348.366 300.079 324.293C300.28 317.215 299.959 309.317 299.064 299.536L243.676 312.055L243.682 312.049Z" fill="white"/>
<g opacity="0.2">
<path d="M301.56 320.562C301.56 319.971 301.56 319.379 301.56 318.777C301.56 318.352 301.548 317.927 301.543 317.497C301.537 317.003 301.525 316.498 301.508 315.998C301.497 315.499 301.485 315 301.468 314.489C301.456 314.173 301.445 313.852 301.433 313.536C301.347 311.274 301.221 308.955 301.061 306.573C301.055 306.464 301.043 306.35 301.038 306.24C300.98 305.374 300.911 304.501 300.842 303.606C300.693 301.712 300.533 299.789 300.343 297.82C300.343 297.803 300.326 297.791 300.309 297.791L295.07 298.974C295.07 298.974 295.047 298.991 295.047 299.002C295.219 301.149 295.363 303.244 295.483 305.299C295.483 305.311 295.478 305.322 295.46 305.328C295.46 305.328 271.837 312.916 271.832 312.916C242.964 325.378 216.685 337.592 200.802 348.808C197.423 351.19 194.422 354.083 192.029 357.459C187.215 364.249 184.736 372.681 182.74 380.66C180.146 391.009 178.545 401.599 177.306 412.184C176.17 421.924 175.384 431.7 174.821 441.486C174.219 452.002 174.213 462.598 168.068 471.696C164.528 476.937 156.099 474.204 150.803 473.533C144.244 472.706 137.709 471.535 131.311 469.848C131.288 469.842 131.271 469.865 131.277 469.882C131.644 471.311 132.728 472.482 134.197 472.924C146.866 476.684 164.206 478.94 179.962 478.854C179.974 478.854 179.991 478.854 180.003 478.854C180.938 478.854 181.867 478.837 182.785 478.814C182.854 478.814 182.923 478.814 182.992 478.814C183.927 478.791 184.857 478.756 185.775 478.716C185.827 478.716 185.878 478.716 185.936 478.71C186.756 478.67 187.571 478.624 188.374 478.573C188.541 478.561 188.701 478.55 188.868 478.538C189.717 478.481 190.566 478.418 191.398 478.343C191.467 478.337 191.536 478.331 191.61 478.32C192.356 478.251 193.091 478.176 193.814 478.096C194.02 478.073 194.227 478.05 194.433 478.027C195.208 477.935 195.977 477.838 196.729 477.729C196.74 477.729 196.752 477.729 196.763 477.729C197.796 477.579 198.685 477.069 199.322 476.345C199.42 476.236 199.506 476.127 199.592 476.012C199.752 475.789 199.896 475.548 200.011 475.295C200.137 475.019 200.234 474.727 200.298 474.423C200.349 474.181 200.384 473.94 200.395 473.688C200.395 473.676 200.395 473.665 200.395 473.653C200.407 473.366 200.384 473.074 200.332 472.775C197.153 454.505 195.242 435.236 198.18 421.081C198.226 420.863 198.272 420.644 198.318 420.432C198.656 418.905 199.052 417.442 199.511 416.052C199.638 415.668 199.77 415.283 199.907 414.91C200.143 414.256 200.401 413.624 200.665 413.004C201.657 410.72 202.851 408.671 204.285 406.914C204.98 406.065 205.731 405.261 206.529 404.504C206.925 404.125 207.338 403.763 207.757 403.413C209.57 401.909 211.584 400.663 213.741 399.688C214.091 399.533 214.436 399.372 214.791 399.229L263.334 379.747C286.044 370.632 301.083 348.785 301.497 324.31C301.52 323.409 301.537 322.49 301.543 321.572C301.543 321.239 301.543 320.9 301.543 320.568L301.56 320.562Z" fill="white"/>
</g>
<path d="M243.781 474.078C247.901 489.364 252.411 504.225 254.367 517.679C224.657 526.433 191.365 532.569 158.631 536.466C158.631 536.466 161.379 517.174 176.573 510.177C192.651 502.772 213.841 496.872 209.991 480.805L243.787 474.072L243.781 474.078Z" fill="#090909"/>
<g opacity="0.3">
<path d="M167.793 525.032C168.367 523.672 169.107 522.38 169.951 521.158C170.8 519.935 171.764 518.787 172.837 517.742C173.898 516.686 175.086 515.756 176.354 514.953C177.634 514.172 178.999 513.518 180.44 513.127C180.749 513.041 181.065 513.225 181.145 513.535C181.209 513.776 181.111 514.023 180.922 514.161H180.916C179.74 514.987 178.586 515.762 177.485 516.617C176.371 517.45 175.316 518.345 174.283 519.275C173.262 520.222 172.286 521.215 171.345 522.26C170.398 523.304 169.503 524.401 168.585 525.508C168.424 525.709 168.126 525.738 167.931 525.572C167.77 525.44 167.719 525.216 167.799 525.032H167.793Z" fill="#F9F9ED"/>
</g>
<path d="M197.458 516.049C196.615 516.215 195.737 515.814 195.335 515.004C192.759 509.838 190.234 508.001 189.018 507.117C188.852 506.997 188.714 506.894 188.599 506.802C187.75 506.142 187.595 504.919 188.255 504.064C188.915 503.214 190.137 503.059 190.992 503.719C191.078 503.788 191.187 503.869 191.313 503.955C192.662 504.936 195.823 507.232 198.824 513.254C199.306 514.218 198.916 515.389 197.952 515.871C197.791 515.951 197.631 516.003 197.464 516.037L197.458 516.049Z" fill="#F9F9ED"/>
<path d="M206.851 511.325C206.008 511.491 205.13 511.09 204.728 510.28C202.152 505.114 199.627 503.277 198.411 502.393C198.244 502.273 198.106 502.17 197.992 502.078C197.143 501.418 196.988 500.195 197.647 499.34C198.307 498.49 199.529 498.335 200.384 498.995C200.471 499.064 200.58 499.145 200.706 499.231C202.054 500.212 205.216 502.508 208.217 508.53C208.699 509.494 208.308 510.665 207.344 511.147C207.184 511.227 207.023 511.279 206.857 511.313L206.851 511.325Z" fill="#F9F9ED"/>
<path d="M215.023 505.757C214.179 505.924 213.302 505.522 212.9 504.712C210.324 499.546 207.799 497.71 206.582 496.826C206.416 496.705 206.278 496.602 206.164 496.51C205.314 495.85 205.159 494.627 205.819 493.772C206.479 492.922 207.701 492.768 208.556 493.428C208.642 493.496 208.751 493.577 208.878 493.663C210.226 494.644 213.388 496.94 216.389 502.962C216.87 503.926 216.48 505.097 215.516 505.579C215.356 505.66 215.195 505.711 215.029 505.746L215.023 505.757Z" fill="#F9F9ED"/>
<g opacity="0.2">
<path d="M243.781 474.078L239.34 474.962C242.502 486.482 245.715 497.698 247.677 508.185C248.262 511.296 246.375 514.338 243.322 515.194C217.094 522.552 188.342 527.936 159.784 531.604C158.912 534.503 158.631 536.472 158.631 536.472C191.371 532.574 224.657 526.438 254.367 517.685C252.411 504.23 247.901 489.369 243.781 474.084V474.078Z" fill="white"/>
</g>
<path d="M157.098 537.959L157.339 536.277C157.453 535.462 160.368 516.198 176.027 508.989C178.46 507.869 181.048 506.767 183.549 505.7C198.043 499.523 211.734 493.686 208.721 481.11L208.406 479.789L244.727 472.551L245.042 473.728C245.828 476.638 246.626 479.537 247.418 482.407C250.837 494.799 254.068 506.509 255.657 517.478L255.818 518.598L254.734 518.919C226.727 527.173 194.446 533.504 158.779 537.752L157.098 537.953V537.959ZM211.521 481.833C213.84 495.626 198.967 501.969 184.565 508.105C182.08 509.167 179.51 510.257 177.111 511.365C165.314 516.801 161.315 530.215 160.248 534.957C194.6 530.789 225.757 524.665 252.903 516.749C251.279 506.257 248.175 495.006 244.899 483.113C244.21 480.622 243.522 478.113 242.839 475.593L211.521 481.833Z" fill="white"/>
<path d="M255.365 524.9C224.082 533.252 192.134 539.52 159.617 543.98C158.378 544.152 157.322 543.716 157.173 542.975L156.306 538.613C156.14 537.775 157.19 536.885 158.59 536.667C190.751 531.736 222.407 525.445 253.541 517.742C254.774 517.438 255.951 517.817 256.1 518.563L257.029 523.23C257.161 523.89 256.444 524.607 255.371 524.894L255.365 524.9Z" fill="white"/>
<path d="M159.084 545.323C157.443 545.323 156.152 544.508 155.899 543.228L155.033 538.865C154.912 538.246 155.062 537.591 155.457 537.029C156.048 536.191 157.144 535.571 158.401 535.381C190.608 530.445 222.51 524.085 253.231 516.479C254.367 516.198 255.532 516.336 256.335 516.847C256.886 517.197 257.259 517.719 257.374 518.311L258.303 522.977C258.573 524.343 257.483 525.681 255.698 526.157C225.265 534.279 193 540.714 159.795 545.271C159.554 545.306 159.313 545.323 159.084 545.323ZM158.43 542.591C158.573 542.665 158.929 542.763 159.44 542.688C192.536 538.142 224.696 531.736 255.027 523.637C255.394 523.54 255.612 523.39 255.704 523.299L254.849 519.005C254.683 518.948 254.327 518.885 253.845 519.005C223.05 526.628 191.067 532.999 158.78 537.953C158.12 538.056 157.73 538.343 157.603 538.487L158.418 542.585L158.43 542.591Z" fill="white"/>
<path d="M336.986 319.798C336.504 311.785 335.265 303.089 333.474 293.469L277.806 311.349C249.059 323.759 222.882 335.922 206.977 347.098C203.379 349.623 200.201 352.717 197.693 356.333C178.437 384.081 178.236 440.017 180.026 478.624C180.118 480.587 181.535 482.217 183.457 482.608C201.291 486.224 227.674 486.218 246.201 481.856C248.537 481.305 249.937 478.923 249.317 476.609C242.621 451.503 238.22 424.209 247.446 410.651C249.925 407.006 253.305 404.067 257.235 402.07L302.914 378.857C324.959 367.653 338.472 344.492 336.986 319.798Z" fill="black"/>
<path d="M239.27 329.757C230.657 334.912 221.632 339.228 213.243 344.595C211.149 345.921 209.06 347.304 207.075 348.728C205.129 350.169 203.305 351.776 201.681 353.561C200.866 354.451 200.097 355.381 199.386 356.351C198.669 357.304 198.037 358.377 197.355 359.387C196.706 360.426 196.115 361.505 195.496 362.561C194.945 363.658 194.354 364.737 193.826 365.85C189.608 374.77 186.992 384.437 185.116 394.2C183.251 403.981 182.184 413.923 181.53 423.888C180.881 433.858 180.68 443.863 180.761 453.868C180.801 458.873 180.91 463.872 181.076 468.878L181.369 476.38L181.455 478.257C181.472 478.618 181.478 478.756 181.524 478.974C181.564 479.175 181.627 479.376 181.713 479.56C182.04 480.323 182.734 480.903 183.538 481.127C183.698 481.173 184.054 481.236 184.347 481.288L185.259 481.454L187.084 481.793L190.756 482.349L194.451 482.803L198.158 483.159C203.11 483.572 208.084 483.756 213.065 483.75C223.009 483.716 232.987 483.01 242.695 481.092L244.503 480.702L245.409 480.507L245.857 480.409L246.15 480.323C246.913 480.048 247.538 479.416 247.814 478.641C247.946 478.251 247.997 477.838 247.951 477.436C247.946 477.333 247.928 477.235 247.905 477.132L247.871 476.971L247.814 476.741L247.573 475.829L246.626 472.172C245.398 467.282 244.279 462.363 243.332 457.398C242.397 452.433 241.611 447.427 241.146 442.37C240.681 437.313 240.481 432.205 240.911 427.079C241.353 421.976 242.345 416.758 244.859 412.029C247.378 407.299 251.36 403.482 256.03 400.979L282.872 387.312L296.293 380.51C298.514 379.368 300.797 378.26 302.972 377.089L306.185 375.31L309.261 373.301C313.277 370.506 316.972 367.251 320.249 363.612L322.624 360.811L324.793 357.849C325.172 357.367 325.482 356.839 325.809 356.322L326.784 354.766C327.467 353.75 328.018 352.654 328.592 351.575C330.869 347.247 332.688 342.661 333.859 337.902C335.018 333.144 335.603 328.253 335.615 323.357L335.529 319.684C335.448 318.444 335.362 317.204 335.253 315.97C335.041 313.496 334.766 311.022 334.444 308.548C333.807 303.606 332.993 298.681 332.086 293.767V293.739L333.911 294.829L290.343 308.818C289.597 309.059 288.799 308.646 288.558 307.899C288.317 307.153 288.73 306.355 289.476 306.114L333.044 292.126L334.582 291.632L334.875 293.216V293.245C335.804 298.193 336.636 303.17 337.296 308.175C337.629 310.678 337.91 313.192 338.134 315.712C338.248 316.974 338.34 318.237 338.421 319.5C338.472 320.774 338.489 322.066 338.524 323.346C338.524 328.477 337.916 333.609 336.711 338.603C335.494 343.596 333.595 348.407 331.219 352.953C330.617 354.083 330.043 355.237 329.326 356.305L328.305 357.935C327.96 358.48 327.639 359.031 327.243 359.542L324.971 362.653L322.486 365.598C319.061 369.426 315.194 372.847 310.982 375.786L307.763 377.899L304.401 379.776C302.157 380.993 299.931 382.072 297.693 383.231L284.284 390.062L257.482 403.671C253.316 405.887 249.753 409.325 247.55 413.464C245.323 417.625 244.354 422.481 243.935 427.332C243.522 432.211 243.711 437.164 244.159 442.095C244.606 447.031 245.375 451.95 246.293 456.841C247.217 461.737 248.319 466.605 249.529 471.443L250.465 475.071L250.7 475.978L250.757 476.202L250.826 476.506C250.878 476.713 250.906 476.919 250.924 477.132C251.01 477.97 250.906 478.831 250.631 479.629C250.074 481.219 248.772 482.55 247.165 483.113C246.964 483.182 246.764 483.233 246.557 483.291L246.086 483.394L245.151 483.595L243.286 483.997C233.302 485.954 223.175 486.654 213.076 486.683C208.021 486.683 202.966 486.488 197.928 486.069L194.147 485.702L190.377 485.237L186.613 484.663L184.737 484.313L183.802 484.14C183.48 484.077 183.216 484.043 182.769 483.922C181.151 483.475 179.751 482.286 179.079 480.737C178.907 480.352 178.781 479.95 178.695 479.537C178.609 479.141 178.586 478.653 178.575 478.383L178.494 476.5L178.207 468.964C178.047 463.941 177.938 458.913 177.903 453.879C177.834 443.817 178.041 433.749 178.707 423.692C179.378 413.642 180.457 403.591 182.362 393.661C184.284 383.748 186.946 373.881 191.324 364.639C191.869 363.486 192.483 362.36 193.063 361.218C193.711 360.11 194.325 358.985 195.008 357.901C195.725 356.827 196.373 355.737 197.16 354.686C197.934 353.636 198.766 352.631 199.644 351.673C201.4 349.75 203.356 348.028 205.445 346.484C207.539 344.98 209.634 343.602 211.78 342.248C216.06 339.55 220.45 337.059 224.879 334.665C229.326 332.3 233.865 330.113 238.558 328.282C238.977 328.116 239.453 328.328 239.62 328.747C239.769 329.126 239.62 329.545 239.276 329.746L239.27 329.757Z" fill="white"/>
<path d="M327.536 300.77C294.124 311.148 263.255 311.292 234.967 301.017C231.771 299.858 229.579 297.091 229.361 293.899C227.307 263.541 225.78 235.443 226.073 210.934C226.4 183.852 241.502 158.786 266.06 144.309C277.41 137.622 291.674 138.334 302.238 146.204C315.102 155.789 330.273 169.68 332.551 182.928C338.111 215.313 336.332 253.989 333.446 293.607C333.205 296.884 330.881 299.731 327.536 300.77Z" fill="#090909"/>
<g opacity="0.3">
<path d="M237.485 184.059C237.875 182.331 238.443 180.661 239.109 179.031C239.768 177.395 240.555 175.816 241.404 174.272C242.264 172.734 243.211 171.247 244.261 169.835C245.306 168.417 246.447 167.068 247.733 165.852C247.956 165.639 248.306 165.651 248.519 165.875C248.685 166.052 248.714 166.311 248.611 166.512C247.813 168.067 246.952 169.554 246.092 171.041L243.527 175.483L240.996 179.949C240.159 181.447 239.327 182.951 238.426 184.443C238.277 184.69 237.961 184.765 237.714 184.621C237.519 184.501 237.427 184.277 237.479 184.065L237.485 184.059Z" fill="#F9F9ED"/>
</g>
<g opacity="0.3">
<path d="M234.375 193.541C234.237 192.927 234.248 192.342 234.288 191.768C234.34 191.194 234.449 190.637 234.604 190.092C234.759 189.546 234.966 189.012 235.241 188.507C235.516 188.002 235.838 187.514 236.308 187.084C236.561 186.854 236.951 186.866 237.186 187.118C237.272 187.21 237.324 187.325 237.341 187.445C237.439 188.071 237.398 188.639 237.324 189.196C237.249 189.753 237.117 190.287 236.945 190.809C236.779 191.331 236.572 191.842 236.32 192.347C236.056 192.847 235.775 193.34 235.361 193.805C235.155 194.041 234.793 194.064 234.552 193.857C234.461 193.777 234.397 193.662 234.369 193.553L234.375 193.541Z" fill="#F9F9ED"/>
</g>
<g opacity="0.2">
<path d="M332.55 182.922C330.806 172.751 321.447 162.201 311.372 153.505H306.07C315.853 162.069 324.787 172.349 326.491 182.262C332.051 214.647 330.272 253.323 327.386 292.941C327.145 296.218 324.821 299.065 321.476 300.104C300.51 306.614 280.542 309.099 261.59 307.503C282.338 310.235 304.326 307.968 327.535 300.759C330.881 299.72 333.21 296.873 333.445 293.595C336.332 253.978 338.11 215.302 332.55 182.917V182.922Z" fill="white"/>
</g>
<path d="M297.847 143.454C287.938 138.282 275.906 138.506 266.065 144.304C260.993 147.294 256.334 150.738 252.111 154.561C251.985 155.301 251.898 155.732 251.898 155.732C258.113 158.906 267.557 159.245 275.045 157.207C287.749 153.757 298.192 144.057 298.192 144.057C298.071 143.862 297.962 143.655 297.847 143.454Z" fill="#F9F9ED"/>
<path d="M233.888 176.924C234.307 175.747 234.766 174.582 235.34 173.48C235.885 172.361 236.499 171.276 237.17 170.231C238.49 168.119 239.953 166.104 241.473 164.135C244.543 160.221 247.934 156.547 251.652 153.247C255.365 149.94 259.341 146.921 263.576 144.304C265.641 142.972 267.942 141.749 270.295 140.808C272.665 139.861 275.149 139.241 277.656 138.833C282.689 138.076 287.904 138.426 292.776 139.953C294.004 140.303 295.18 140.791 296.368 141.261C297.515 141.812 298.686 142.329 299.77 143.001C300.895 143.609 301.922 144.361 302.978 145.084C303.97 145.83 304.952 146.565 305.927 147.323C309.823 150.354 313.61 153.539 317.196 156.966C320.782 160.387 324.179 164.049 327.117 168.119L328.213 169.651L329.229 171.247C329.934 172.292 330.491 173.44 331.105 174.548C332.195 176.844 333.234 179.209 333.721 181.774L333.939 182.721L334.083 183.634L334.37 185.459L334.938 189.116C335.236 191.561 335.598 194.006 335.844 196.457C336.9 206.255 337.405 216.1 337.566 225.932C337.881 245.603 336.889 265.234 335.586 284.807L335.07 292.143L335.007 293.061C334.978 293.383 334.972 293.635 334.926 294.026C334.857 294.755 334.685 295.472 334.433 296.161C333.945 297.539 333.125 298.79 332.08 299.789C331.048 300.799 329.791 301.568 328.448 302.05L327.949 302.222L327.507 302.354L326.618 302.613L324.839 303.135C323.651 303.474 322.475 303.841 321.282 304.157L317.695 305.075C315.314 305.724 312.887 306.2 310.477 306.74C309.272 307.027 308.056 307.216 306.839 307.446L303.19 308.112C298.301 308.841 293.395 309.501 288.449 309.782C283.515 310.167 278.557 310.144 273.606 310.023C268.659 309.753 263.713 309.403 258.819 308.588C256.363 308.272 253.942 307.733 251.503 307.274C250.287 307.044 249.093 306.705 247.883 306.43C246.683 306.126 245.467 305.879 244.279 305.511L240.71 304.478C239.511 304.157 238.358 303.703 237.176 303.325L235.414 302.728L234.536 302.429C234.226 302.309 233.876 302.182 233.567 302.027C232.281 301.425 231.105 300.558 230.17 299.462C229.229 298.377 228.523 297.062 228.161 295.644C228.064 295.294 228.007 294.933 227.955 294.571L227.898 294.026L227.863 293.561L227.743 291.724L227.261 284.388L226.366 269.705C225.803 259.913 225.333 250.109 225 240.299C224.679 230.49 224.518 220.669 224.633 210.836C224.696 205.842 225.264 200.854 226.308 195.969C227.387 191.113 228.707 186.206 231.461 181.987C231.69 181.637 232.161 181.533 232.517 181.769C232.792 181.947 232.912 182.274 232.844 182.578C231.742 187.365 230.055 191.842 229.091 196.572C228.087 201.273 227.548 206.072 227.49 210.876C227.381 220.646 227.553 230.427 227.88 240.208C228.213 249.988 228.695 259.764 229.263 269.539L230.17 284.199L230.657 291.529L230.784 293.36L230.812 293.813L230.853 294.181C230.893 294.422 230.927 294.669 230.996 294.91C231.237 295.868 231.719 296.775 232.385 297.539C233.044 298.302 233.882 298.928 234.812 299.364C235.047 299.484 235.276 299.559 235.535 299.662L236.395 299.955L238.117 300.535C239.27 300.908 240.4 301.35 241.571 301.66L245.06 302.67C246.213 303.032 247.406 303.273 248.577 303.566C249.759 303.835 250.924 304.163 252.111 304.386C254.493 304.834 256.857 305.357 259.261 305.666C264.04 306.453 268.878 306.792 273.715 307.056C278.557 307.165 283.412 307.188 288.243 306.803C293.086 306.522 297.9 305.873 302.697 305.156L306.277 304.501C307.471 304.277 308.67 304.088 309.852 303.807C312.222 303.267 314.603 302.808 316.95 302.159L320.478 301.252C321.655 300.937 322.814 300.575 323.978 300.242L325.728 299.731L326.601 299.473L327.037 299.347L327.404 299.22C328.362 298.876 329.246 298.331 329.957 297.63C330.68 296.936 331.243 296.075 331.57 295.145C331.736 294.68 331.857 294.198 331.897 293.71C331.931 293.498 331.943 293.136 331.966 292.843L332.029 291.925L332.539 284.601C333.876 265.067 334.909 245.511 334.639 225.972C334.496 216.209 334.02 206.451 332.998 196.761C332.763 194.339 332.407 191.928 332.12 189.506L331.57 185.896L331.288 184.093L331.151 183.192L330.956 182.348C330.543 180.087 329.596 177.911 328.592 175.793C328.018 174.76 327.507 173.692 326.842 172.705L325.889 171.195L324.851 169.738C322.062 165.852 318.774 162.287 315.28 158.941C311.785 155.588 308.073 152.449 304.246 149.458C303.288 148.712 302.312 147.977 301.348 147.248C300.379 146.588 299.432 145.888 298.399 145.325C297.401 144.7 296.322 144.229 295.266 143.718C294.176 143.282 293.091 142.823 291.961 142.507C287.48 141.095 282.671 140.762 278.024 141.445C275.706 141.818 273.41 142.386 271.224 143.253C269.032 144.137 266.984 145.205 264.924 146.525C260.81 149.051 256.948 151.972 253.339 155.169C249.719 158.361 246.431 161.914 243.447 165.702C240.406 169.473 238.071 173.669 235.167 177.607L235.156 177.624C234.915 177.951 234.45 178.02 234.123 177.779C233.853 177.578 233.762 177.234 233.865 176.935L233.888 176.924Z" fill="white"/>
<path d="M258.395 126.326C261.573 132.944 258.395 149.395 258.395 149.395C262.864 151.679 269.658 151.921 275.046 150.457C284.186 147.971 291.697 140.997 291.697 140.997C282.981 127.084 288.955 96.6616 289.97 87.8966C290.114 86.6396 290.211 85.9335 290.211 85.9335L258.395 126.326Z" fill="black"/>
<path d="M267.97 152.678C264.194 152.678 260.539 151.955 257.802 150.56L256.93 150.112L257.114 149.148C257.143 148.987 260.178 133.042 257.217 126.888L256.867 126.154L292.144 81.376L291.507 86.1057C291.507 86.1057 291.415 86.806 291.272 88.0401C291.14 89.1996 290.916 90.7379 290.658 92.5173C288.976 104.227 285.476 128.599 292.804 140.297L293.377 141.21L292.586 141.944C292.27 142.237 284.73 149.171 275.389 151.708C273.014 152.351 270.466 152.667 267.97 152.667V152.678ZM259.857 148.632C263.833 150.29 269.766 150.537 274.701 149.194C281.752 147.277 287.898 142.501 290.021 140.722C282.934 127.933 286.389 103.865 288.07 92.15C288.156 91.553 288.236 90.979 288.317 90.4394L259.897 126.515C262.307 132.818 260.476 145.015 259.857 148.626V148.632Z" fill="white"/>
<g opacity="0.2">
<path d="M259.008 145.595C261.717 144.774 264.339 143.575 266.801 141.927C272.464 138.139 276.784 132.611 279.785 126.55C284.921 116.183 285.087 95.9843 285.908 93.0397C286.206 91.9663 286.608 90.9331 287.067 89.9286L258.395 126.326C260.615 130.941 259.737 140.326 259.003 145.595H259.008Z" fill="white"/>
</g>
<path d="M292.822 64.5176C288.777 64.7529 286.195 66.607 284.543 68.9604C283.843 60.6833 282.81 54.972 282.81 54.972L204.838 63.0367C204.838 63.0367 198.015 121.722 230.331 137.708C253.34 149.091 272.424 135.504 280.847 113.158C281.731 110.805 282.454 108.308 283.034 105.714C283.602 103.188 285.329 101.093 287.71 100.071C290.734 98.7739 294.159 96.7075 297.017 93.4415C303.879 85.5949 304.855 63.8173 292.817 64.5233L292.822 64.5176Z" fill="black"/>
<path d="M279.721 114.369C280.295 111.345 281.07 108.503 281.724 105.57C282.062 103.888 282.912 102.201 284.145 100.932C284.765 100.289 285.465 99.7267 286.245 99.2848C286.44 99.1814 286.636 99.0666 286.836 98.9748L287.393 98.7165C287.726 98.5673 288.053 98.4123 288.38 98.2516C290.985 96.9658 293.372 95.261 295.334 93.1659C297.279 91.1627 298.484 88.5452 299.334 85.7671C300.171 83.0004 300.619 80.0673 300.59 77.18C300.556 74.3158 300.079 71.3769 298.737 69.0924C298.054 67.9731 297.176 67.0547 296.097 66.5036C295.001 65.9698 293.745 65.8263 292.385 65.9411C289.637 66.1535 287.186 67.4565 285.597 69.6836V69.6951L283.537 72.4445L283.25 69.0637C283.049 66.739 282.814 64.4143 282.533 62.1011C282.39 60.9416 282.24 59.7878 282.074 58.6341C281.908 57.4861 281.735 56.3209 281.54 55.2016L282.946 56.2577L204.985 64.3224H204.974L206.122 63.1859C205.238 73.6327 205.467 84.3206 206.971 94.7157C207.745 99.9162 208.841 105.071 210.477 110.036C212.129 114.989 214.292 119.765 217.161 124.064C220.076 128.312 223.702 132.06 228.017 134.821C228.557 135.16 229.131 135.452 229.681 135.774L230.519 136.245C230.794 136.411 231.076 136.555 231.38 136.681C232.562 137.197 233.709 137.806 234.937 138.208L236.75 138.874L238.604 139.396L239.533 139.654L240.474 139.838C241.105 139.953 241.731 140.09 242.362 140.194C244.898 140.527 247.457 140.596 249.993 140.331C252.518 140.01 255.003 139.379 257.384 138.455C259.748 137.479 261.968 136.181 264.091 134.729C266.203 133.248 268.188 131.607 270.323 129.988L270.334 129.977C270.564 129.804 270.891 129.845 271.069 130.08C271.206 130.264 271.206 130.505 271.092 130.683C269.6 132.973 267.683 134.976 265.514 136.669C263.305 138.317 260.884 139.683 258.336 140.779C255.76 141.807 253.057 142.518 250.303 142.892C247.538 143.207 244.749 143.15 242.001 142.811C241.318 142.702 240.641 142.564 239.958 142.444L238.937 142.254L237.938 141.985L235.941 141.439L233.996 140.745C232.682 140.32 231.46 139.694 230.203 139.149C229.888 139.017 229.578 138.862 229.28 138.69L228.367 138.19C227.765 137.852 227.145 137.536 226.56 137.174C221.872 134.218 217.89 130.212 214.797 125.677C211.745 121.103 209.478 116.091 207.763 110.943C206.064 105.782 204.94 100.473 204.142 95.1405C203.373 89.7965 203.006 84.4182 202.908 79.0398C202.822 73.6499 202.983 68.306 203.568 62.8989L203.677 61.8657L204.716 61.7624H204.727L282.688 53.6977L283.887 53.5714L284.094 54.7481C284.3 55.942 284.478 57.1015 284.645 58.2782C284.811 59.4492 284.966 60.6259 285.109 61.7968C285.396 64.1445 285.637 66.4979 285.838 68.857L283.497 68.2256L283.508 68.2141C284.461 66.8193 285.74 65.5795 287.255 64.7127C288.764 63.8403 290.463 63.3753 292.132 63.1974C293.802 63.0194 295.69 63.1629 297.365 63.9608C299.035 64.7701 300.361 66.1305 301.25 67.6172C302.151 69.1153 302.673 70.7225 303.023 72.3297C303.367 73.9369 303.516 75.5613 303.534 77.1685C303.568 80.3887 303.092 83.5686 302.168 86.6453C301.698 88.1836 301.095 89.6875 300.326 91.134C299.947 91.8572 299.511 92.5632 299.018 93.2405C298.53 93.9293 297.962 94.5722 297.417 95.1405C295.174 97.4824 292.482 99.3422 289.602 100.726C289.241 100.898 288.879 101.064 288.512 101.219L288.03 101.437C287.881 101.5 287.749 101.581 287.605 101.655C287.049 101.96 286.544 102.356 286.096 102.809C285.201 103.728 284.587 104.858 284.306 106.167C283.617 109.192 282.613 112.217 280.869 114.846C280.68 115.133 280.295 115.213 280.008 115.024C279.796 114.88 279.698 114.628 279.739 114.387L279.721 114.369Z" fill="white"/>
<path d="M253.454 96.2534C256.361 95.9529 258.358 92.2329 257.915 87.9443C257.472 83.6558 254.756 80.4228 251.85 80.7233C248.944 81.0237 246.947 84.7438 247.39 89.0323C247.833 93.3209 250.548 96.5538 253.454 96.2534Z" fill="white"/>
<path d="M250.868 89.1749C251.682 89.0693 252.215 88.0102 252.06 86.8092C251.904 85.6083 251.118 84.7204 250.304 84.826C249.49 84.9316 248.956 85.9907 249.112 87.1917C249.268 88.3926 250.054 89.2805 250.868 89.1749Z" fill="#F9F9ED"/>
<path d="M242.621 73.8049C242.931 73.2481 243.16 72.9037 243.47 72.5134C243.769 72.1346 244.096 71.7902 244.434 71.463C245.134 70.8201 245.915 70.2461 246.781 69.8156C248.497 68.9087 250.499 68.5528 252.387 68.6389C254.292 68.748 256.042 69.3277 257.614 70.0911C258.389 70.4929 259.1 70.9751 259.806 71.4343C260.46 71.9624 261.097 72.5077 261.694 73.0759C262.193 73.5466 262.222 74.3273 261.751 74.8266C261.407 75.194 260.902 75.3031 260.454 75.1538L260.317 75.1079C259.594 74.8668 258.905 74.6085 258.24 74.333C257.54 74.1551 256.88 73.9082 256.208 73.7533C254.871 73.4548 253.58 73.2998 252.375 73.3859C251.17 73.495 250.08 73.8336 249.03 74.3158C248.497 74.5511 247.997 74.8611 247.487 75.1768C247.252 75.3547 245.117 76.5831 245.117 76.5831C244.113 77.0136 242.954 76.5486 242.523 75.5499C242.271 74.9644 242.328 74.3215 242.615 73.8049H242.621Z" fill="white"/>
<path d="M223.253 98.692C226.16 98.3916 228.156 94.6715 227.713 90.3829C227.27 86.0944 224.555 82.8615 221.649 83.1619C218.743 83.4623 216.746 87.1824 217.189 91.471C217.632 95.7595 220.347 98.9925 223.253 98.692Z" fill="white"/>
<path d="M220.551 91.6968C221.371 91.6717 222.006 90.6701 221.969 89.4597C221.932 88.2493 221.237 87.2884 220.417 87.3135C219.597 87.3385 218.962 88.3401 218.999 89.5505C219.036 90.7609 219.731 91.7219 220.551 91.6968Z" fill="#F9F9ED"/>
<path d="M230.014 74.7865C229.567 74.3273 229.257 74.0575 228.855 73.7647C228.471 73.4777 228.064 73.2309 227.645 73.0013C226.801 72.5651 225.895 72.2207 224.948 72.0255C223.054 71.6008 221.029 71.7844 219.227 72.3699C217.42 72.9726 215.882 73.9943 214.568 75.1423C213.925 75.7336 213.369 76.3822 212.807 77.0193C212.313 77.7024 211.848 78.3969 211.412 79.0972C211.051 79.6827 211.234 80.4461 211.814 80.802C212.238 81.066 212.761 81.0373 213.151 80.779L213.271 80.6987C213.902 80.2739 214.499 79.8434 215.073 79.4072C215.698 79.0513 216.272 78.638 216.88 78.3108C218.091 77.6737 219.296 77.1858 220.478 76.9504C221.672 76.7381 222.808 76.7782 223.949 76.9677C224.523 77.0538 225.091 77.226 225.665 77.3924C225.941 77.5015 228.322 78.1271 228.322 78.1271C229.4 78.2764 230.399 77.5244 230.554 76.4453C230.64 75.8197 230.416 75.2112 230.009 74.7865H230.014Z" fill="white"/>
<path d="M239.46 111.442C238.123 111.442 236.264 111.207 234.749 110.133C233.401 109.175 232.575 107.757 232.299 105.92C231.421 100.065 235.231 85.5662 235.392 84.952C235.558 84.3263 236.195 83.959 236.821 84.1197C237.446 84.2862 237.819 84.9233 237.653 85.549C237.612 85.6925 233.802 100.192 234.612 105.57C234.789 106.77 235.277 107.642 236.103 108.222C237.911 109.502 240.751 109.008 240.78 109.003C241.417 108.888 242.025 109.301 242.145 109.932C242.266 110.57 241.847 111.178 241.216 111.299C241.153 111.31 240.447 111.442 239.46 111.442Z" fill="white"/>
<g opacity="0.2">
<path d="M297.624 83.959C298.88 81.4391 299.179 78.4314 298.817 75.7106C298.392 72.5077 297.096 69.6836 293.596 69.6147C291.696 69.5745 289.9 70.47 288.644 71.8935C286.733 74.0632 286.154 76.8701 286.119 79.6597C286.119 80.073 286.549 80.3772 286.917 80.1935C288.007 79.6482 289.487 79.8434 290.417 80.6814C291.605 81.7433 291.932 83.5572 291.484 85.0898C291.123 86.3066 290.342 87.3571 289.384 88.2008C289.166 88.396 289.298 88.7519 289.591 88.7461C290.675 88.7117 294.324 88.1607 296.16 86.1402C296.757 85.4858 297.228 84.7396 297.618 83.959H297.624Z" fill="white"/>
</g>
<path d="M295.478 70.6135C294.749 70.5159 294.066 70.5389 293.389 70.6651C292.729 70.7799 292.104 70.9923 291.524 71.3023C290.945 71.6008 290.394 71.9796 289.935 72.4503C289.476 72.9152 289.057 73.5007 288.736 74.1034C288.064 75.3203 287.749 76.7438 287.605 78.219C287.571 78.5921 287.548 78.9594 287.536 79.3383V79.6195C287.536 79.6195 287.531 79.6884 287.531 79.6655C287.531 79.631 287.531 79.5908 287.525 79.5564C287.513 79.4818 287.496 79.4129 287.467 79.344C287.353 79.0857 287.146 78.902 286.808 78.8504C286.641 78.8274 286.44 78.8676 286.308 78.9365C286.446 78.8733 286.59 78.8045 286.727 78.7585C287.014 78.6495 287.301 78.5863 287.594 78.5347C288.173 78.4486 288.753 78.4715 289.309 78.5921C289.866 78.7184 290.411 78.9307 290.904 79.2694C291.409 79.6138 291.8 80.0386 292.121 80.4978C292.752 81.4334 293.039 82.501 293.062 83.54C293.096 84.5789 292.827 85.6351 292.385 86.519C291.943 87.4145 291.329 88.1721 290.658 88.815L290.399 89.0504L290.268 89.1652C290.308 89.1365 290.445 88.9757 290.503 88.8322C290.635 88.528 290.6 88.1836 290.428 87.9196C290.273 87.6441 289.889 87.4489 289.608 87.4661H289.791L290.049 87.4374C290.227 87.4202 290.405 87.3972 290.589 87.3743C291.318 87.2652 292.046 87.0988 292.735 86.8692C293.429 86.6396 294.055 86.3124 294.651 85.9967C294.95 85.8302 295.225 85.6638 295.512 85.4686C295.793 85.2333 296.097 85.0151 296.464 84.8085L296.562 84.7568C296.855 84.5904 297.222 84.6937 297.388 84.9807C297.474 85.1299 297.486 85.3021 297.44 85.4571C297.308 85.8876 297.124 86.3124 296.906 86.7199C296.654 87.1275 296.321 87.5063 295.959 87.8105C295.237 88.4362 294.387 88.8208 293.561 89.1479C292.723 89.4694 291.874 89.6932 291.008 89.8597C290.79 89.8999 290.572 89.9343 290.342 89.963L289.998 90.0032L289.814 90.0204H289.722L289.677 90.0319H289.579C289.097 90.0491 288.512 89.7449 288.254 89.2972C287.978 88.8609 287.921 88.2984 288.139 87.8048C288.231 87.5694 288.437 87.3341 288.552 87.2365L288.644 87.1447L288.827 86.961C289.786 85.968 290.394 84.7855 290.325 83.6318C290.302 83.0521 290.118 82.4953 289.826 82.0992C289.522 81.6859 289.189 81.4736 288.707 81.353C288.477 81.3014 288.231 81.2956 288.007 81.3243C287.898 81.3473 287.789 81.3645 287.697 81.4047C287.645 81.4162 287.605 81.4449 287.559 81.4621C287.249 81.6228 286.836 81.7032 286.469 81.6515C285.729 81.5539 285.161 81.089 284.885 80.4518C284.817 80.2911 284.771 80.1247 284.748 79.9467C284.736 79.8606 284.73 79.7745 284.73 79.6884V79.5851L284.742 79.2579C284.753 78.8274 284.782 78.3912 284.822 77.9492C285 76.2042 285.465 74.4076 286.394 72.7947C286.865 71.9853 287.41 71.2506 288.11 70.579C288.804 69.9132 289.613 69.3622 290.514 69.0063C292.31 68.3003 294.479 68.3864 295.988 69.5918C296.241 69.7927 296.281 70.16 296.08 70.4126C295.948 70.579 295.741 70.6537 295.546 70.625H295.489L295.478 70.6135Z" fill="white"/>
<path d="M256.328 18.2015C255.645 15.5324 253.401 13.3283 250.728 12.6911C248.048 12.054 245.053 13.0126 243.245 15.0847C243.572 9.97612 240.48 4.89622 235.93 2.5543C231.379 0.218118 225.636 0.585478 221.241 3.20292C216.845 5.8261 213.839 10.5329 212.978 15.5784C207.728 12.2893 200.607 13.7014 195.512 17.2257C189.212 21.5881 185.115 29.0559 185.035 36.7188C184.983 41.3969 186.458 46.0578 189.085 49.9208C190.48 51.9642 192.201 53.4394 193.98 55.1097C195.506 56.5447 196.614 58.261 198.312 59.5927C196.177 61.3549 196.596 64.7242 197.543 67.3187C199.052 71.4458 201.433 75.2571 204.474 78.4314C204.44 73.7246 204.853 69.0005 205.283 64.311C207.596 66.2855 212.777 66.6184 215.698 66.4118C219.732 66.1248 223.696 64.5004 226.64 61.705C226.824 61.5328 227.019 61.3434 227.26 61.2802C227.787 61.1425 228.258 61.5959 228.66 61.969C230.14 63.3352 232.257 63.9723 234.248 63.6509C236.934 63.2146 238.959 60.8153 239.762 58.284C241.885 61.0679 245.431 62.7038 248.926 62.5201C252.42 62.3364 255.771 60.3331 257.59 57.3369C257.177 59.8682 258.835 62.279 260.729 64.0067C262.439 65.568 264.298 67.4507 266.231 68.7078C268.079 69.9075 270.03 70.5733 271.556 72.3068C273.553 74.5741 274.58 77.4154 275.647 80.1878C276.416 82.1853 277.093 86.1746 279.761 86.2492C282.808 86.3296 282.619 77.5015 282.808 75.6819C283.026 73.6327 283.152 71.2965 284.168 69.454C285.929 66.2626 289.636 65.3097 292.861 64.0871C292.574 64.1962 290.262 54.817 290.084 54.0823C289.189 50.357 288.437 44.5367 283.583 44.198C285.952 42.0283 286.498 38.768 286.234 35.6856C286.01 33.0911 285.31 30.4794 283.784 28.3671C282.257 26.2548 279.819 24.7107 277.214 24.6877C279.532 21.2093 278.688 16.1696 275.756 13.1905C272.813 10.2057 268.027 9.2414 263.982 9.9015C261.257 10.3492 255.456 14.7461 256.333 18.1843L256.328 18.2015Z" fill="white"/>
<path d="M279.807 87.271C279.807 87.271 279.756 87.271 279.733 87.271C276.835 87.1963 275.797 83.9303 275.108 81.772C274.97 81.3301 274.838 80.9168 274.701 80.5666L274.534 80.1304C273.565 77.6105 272.566 74.9988 270.793 72.9899C269.858 71.9337 268.705 71.2965 267.488 70.625C266.897 70.2978 266.289 69.9649 265.681 69.5688C264.086 68.5299 262.594 67.1408 261.154 65.7919C260.781 65.4417 260.413 65.0973 260.052 64.7702C258.388 63.2548 257.286 61.6189 256.798 59.9945C254.739 62.0781 251.921 63.3868 248.978 63.5418C245.707 63.714 242.419 62.4512 240.078 60.1724C238.845 62.5832 236.739 64.2823 234.409 64.6611C232.097 65.0342 229.693 64.311 227.977 62.7267C227.828 62.589 227.616 62.3938 227.484 62.3134C227.449 62.3479 227.386 62.4053 227.346 62.4455C224.288 65.3499 220.179 67.1178 215.767 67.4335C213.357 67.6057 209.048 67.4508 206.139 66.0559C205.789 69.9649 205.45 74.2469 205.485 78.4371L205.502 80.9799L203.746 79.1489C200.619 75.8885 198.146 71.9279 196.597 67.6861C195.38 64.3626 195.489 61.5271 196.855 59.6903C196.166 59.0474 195.569 58.3586 194.99 57.6927C194.428 57.0441 193.894 56.4299 193.292 55.8674C193.033 55.6263 192.775 55.3853 192.523 55.1499C190.973 53.7092 189.51 52.3545 188.254 50.512C185.477 46.4309 183.979 41.5404 184.031 36.7303C184.117 28.8033 188.3 21.0199 194.944 16.4164C199.62 13.179 206.609 11.3365 212.278 14.0573C213.489 9.13808 216.582 4.83308 220.736 2.3534C225.515 -0.499381 231.667 -0.763421 236.406 1.67034C240.704 3.8745 243.699 8.31152 244.215 12.9494C246.183 11.6637 248.691 11.1758 250.98 11.7211C252.943 12.186 254.704 13.4086 255.909 15.0273C256.03 14.792 256.167 14.5566 256.322 14.3213C258.118 11.5718 261.722 9.2701 263.833 8.93144C268.607 8.1508 273.576 9.55136 276.485 12.5075C279.457 15.5267 280.352 20.245 278.815 23.8784C281.035 24.3491 283.124 25.7439 284.61 27.7988C286.09 29.8423 286.98 32.4769 287.249 35.6224C287.531 38.8426 286.922 41.5633 285.482 43.5953C289.068 44.9327 290.055 49.3353 290.801 52.6702C290.893 53.0835 290.985 53.4853 291.077 53.8699C291.696 56.4472 293.337 62.853 293.693 63.559C293.55 63.272 293.045 62.9621 292.517 63.163L293.234 65.0514C293.234 65.0514 293.177 65.0744 293.148 65.0859L292.804 65.2179C292.517 65.3212 292.224 65.4303 291.932 65.5336C289.091 66.561 286.412 67.5254 285.063 69.9706C284.26 71.4228 284.076 73.2883 283.893 75.0964L283.818 75.8197C283.789 76.1009 283.767 76.5544 283.744 77.1226C283.571 80.934 283.29 87.2939 279.813 87.2939L279.807 87.271ZM259.426 52.389L258.589 57.5148C258.193 59.9256 260.19 62.1585 261.412 63.272C261.779 63.6049 262.152 63.9551 262.536 64.311C263.913 65.5967 265.336 66.9284 266.782 67.8698C267.327 68.2256 267.907 68.5413 268.464 68.8513C269.783 69.5745 271.143 70.3265 272.314 71.6467C274.328 73.9312 275.395 76.7094 276.422 79.4014L276.588 79.8377C276.738 80.2222 276.881 80.67 277.036 81.1579C277.742 83.3792 278.436 85.216 279.784 85.2505H279.796C280.381 85.2505 281.397 84.1656 281.718 77.0078C281.747 76.3879 281.77 75.8885 281.804 75.5843L281.879 74.8783C282.068 72.9611 282.286 70.7914 283.29 68.9776C285.006 65.8722 288.317 64.6726 291.237 63.6164C291.341 63.5762 291.444 63.5418 291.547 63.5074C291.088 62.1757 290.371 59.564 289.108 54.3291C289.017 53.9388 288.919 53.5255 288.827 53.1007C287.858 48.7785 286.853 45.4493 283.52 45.2197L281.173 45.0533L282.912 43.4633C285.201 41.3682 285.442 38.1308 285.235 35.7832C284.994 33.005 284.231 30.7147 282.969 28.9698C281.529 26.978 279.32 25.7267 277.208 25.7095L275.343 25.6922L276.376 24.1424C278.35 21.1749 277.765 16.6804 275.039 13.9195C272.572 11.4169 268.297 10.2402 264.149 10.9232C262.525 11.1873 259.426 13.2537 258.003 15.4291C257.567 16.1007 257.091 17.0822 257.315 17.9605L255.358 18.4598C254.767 16.1524 252.816 14.2352 250.504 13.6842C248.192 13.1331 245.581 13.9654 244.014 15.7563L242.052 18.0006L242.241 15.0273C242.54 10.4181 239.757 5.65964 235.471 3.46122C231.334 1.33742 225.952 1.5785 221.757 4.08114C217.723 6.4862 214.814 10.8543 213.971 15.762L213.718 17.2487L212.439 16.4508C207.361 13.2651 200.567 14.9699 196.086 18.0753C189.969 22.3114 186.119 29.4634 186.039 36.7475C185.993 41.1443 187.364 45.6273 189.912 49.3697C191.037 51.0229 192.419 52.3029 193.883 53.6633C194.141 53.9043 194.399 54.1454 194.663 54.3922C195.34 55.0294 195.931 55.7067 196.499 56.3611C197.279 57.2565 198.014 58.1003 198.926 58.8178L199.913 59.5927L198.943 60.3905C196.895 62.0838 198.071 65.8722 198.484 66.9915C199.643 70.16 201.353 73.1678 203.482 75.8024C203.58 71.8017 203.941 67.8238 204.268 64.2421L204.446 62.2962L205.932 63.5648C207.958 65.2925 212.829 65.6197 215.618 65.4245C219.56 65.1433 223.226 63.5705 225.94 60.9932C226.17 60.7751 226.508 60.4537 227.002 60.3217C228.052 60.0519 228.838 60.7809 229.314 61.2171C230.594 62.3995 232.412 62.9448 234.088 62.6751C236.44 62.2962 238.15 60.0519 238.804 58.0027L239.395 56.1544L240.572 57.6985C242.482 60.1954 245.742 61.705 248.88 61.5385C252.019 61.3721 255.106 59.5295 256.735 56.8432L259.432 52.4005L259.426 52.389Z" fill="white"/>
<g opacity="0.3">
<path d="M234.783 282.379C234.45 279.102 234.255 275.847 234.031 272.581C233.928 270.951 233.824 269.315 233.744 267.673C233.664 266.032 233.595 264.39 233.612 262.731C233.612 262.381 233.905 262.094 234.255 262.1C234.553 262.1 234.8 262.307 234.869 262.582C235.27 264.201 235.557 265.831 235.792 267.473C236.028 269.114 236.2 270.767 236.315 272.42C236.533 275.732 236.579 279.067 236.223 282.379C236.177 282.775 235.821 283.062 235.425 283.022C235.081 282.982 234.817 282.706 234.783 282.374V282.379Z" fill="#F9F9ED"/>
</g>
<g opacity="0.2">
<path d="M233.847 310.155C228.465 310.155 222.79 308.921 218.142 305.087C217.66 304.685 217.592 303.973 217.988 303.485C218.389 303.003 219.101 302.929 219.588 303.33C226.474 309.007 236.062 308.347 242.896 306.792C243.51 306.648 244.118 307.033 244.256 307.647C244.393 308.261 244.009 308.869 243.401 309.007C240.56 309.656 237.261 310.149 233.853 310.149L233.847 310.155Z" fill="#F9F9ED"/>
</g>
<path d="M251.635 113.486C250.086 115.856 245.731 120.873 237.595 118.738C237.044 118.594 236.573 119.145 236.826 119.656C238.191 122.434 241.864 128.478 247.424 127.141C254.567 125.425 253.965 117.4 252.817 113.658C252.651 113.118 251.945 113.015 251.635 113.486Z" fill="white"/>
<g opacity="0.2">
<path d="M336.986 319.798C336.504 311.785 335.265 303.089 333.475 293.469L328.305 295.128C329.613 302.779 330.531 309.851 330.927 316.446C332.413 341.134 318.895 364.301 296.856 375.505L251.176 398.718C247.246 400.715 243.872 403.654 241.387 407.299C232.161 420.857 236.562 448.145 243.258 473.257C243.878 475.576 242.472 477.958 240.142 478.504C222.584 482.642 197.969 482.86 180.262 479.789C180.744 481.201 181.937 482.298 183.458 482.608C201.291 486.224 227.674 486.218 246.201 481.856C248.537 481.305 249.937 478.923 249.317 476.609C242.621 451.503 238.22 424.209 247.447 410.651C249.925 407.006 253.305 404.067 257.235 402.07L302.915 378.857C324.96 367.653 338.472 344.492 336.986 319.798Z" fill="white"/>
<path d="M218.861 485.46C218.345 485.46 217.903 485.064 217.857 484.542C217.587 481.529 211.31 410.473 220.778 384.528C225.133 372.589 245.835 363.055 264.104 354.64C271.902 351.047 279.264 347.66 284.434 344.475C300.861 334.361 300.563 307.13 300.557 306.86C300.546 306.304 300.993 305.844 301.55 305.833H301.567C302.118 305.833 302.565 306.275 302.577 306.826C302.6 307.991 302.91 335.48 285.489 346.202C280.216 349.445 272.797 352.866 264.948 356.483C247.04 364.731 226.745 374.076 222.677 385.229C213.364 410.749 219.808 483.629 219.871 484.364C219.923 484.921 219.51 485.409 218.953 485.46C218.924 485.46 218.89 485.46 218.861 485.46Z" fill="url(#paint0_linear_523_397)"/>
<path d="M295.174 335.187C294.893 335.187 294.618 335.072 294.417 334.849C287.055 326.508 287.606 309.001 287.629 308.261C287.646 307.704 288.111 307.239 288.673 307.291C289.23 307.314 289.666 307.779 289.649 308.336C289.643 308.508 289.104 325.779 295.932 333.511C296.299 333.93 296.259 334.567 295.846 334.935C295.65 335.107 295.415 335.187 295.18 335.187H295.174Z" fill="white"/>
</g>
<path d="M342.598 225.306C342.598 225.306 345.14 247.853 346.155 269.206C347.343 294.158 337.17 297.424 327.719 298.227C326.291 298.348 324.862 298.446 323.433 298.532C308.331 299.427 293.137 298.979 278.029 298.365C271.987 298.118 265.951 297.82 259.92 297.458C258.142 297.355 256.288 296.856 254.51 297.143C252.691 297.43 251.142 298.526 249.38 299.014C246.798 299.726 244.027 298.979 241.617 297.808C239.121 296.597 235.936 293.503 233.125 293.808C230.405 294.1 228.012 296.747 225.86 298.199C222.825 300.242 218.292 301.195 216.02 297.648C214.505 299.284 213.271 299.295 211.321 298.916C210.42 298.738 209.548 298.756 208.761 298.222C208.612 298.118 207.207 296.528 207.465 296.488C206.397 296.655 205.25 296.207 204.579 295.357C202.415 292.619 205.508 288.274 207.115 286.093C211.194 280.565 215.383 274.929 221.058 271.06C226.733 267.191 234.278 265.354 240.572 268.104C242.718 269.04 244.612 270.452 246.488 271.852C248.617 273.442 251.348 276.433 253.896 277.219C257.912 278.465 265.785 275.922 270.008 275.382C276.526 274.55 283.044 273.712 289.562 272.88C297.75 271.829 305.944 270.785 314.132 269.734C312.451 254.862 310.816 240.374 309.272 226.696L342.586 225.318L342.598 225.306Z" fill="#090909"/>
<g opacity="0.2">
<path d="M346.155 269.2C345.191 248.892 342.844 227.522 342.615 225.479C342.603 225.364 342.597 225.306 342.597 225.306L309.283 226.684C309.685 230.231 310.092 233.83 310.5 237.481C316.324 238.727 327.438 239.915 340.474 235.397C341.272 243.881 342.265 255.763 342.815 267.3C344.003 292.252 333.83 295.518 324.38 296.322C322.951 296.442 321.522 296.54 320.093 296.626C304.991 297.521 289.797 297.074 274.69 296.46C268.648 296.213 262.611 295.914 256.581 295.553C254.802 295.449 252.949 294.95 251.17 295.237C249.351 295.524 247.802 296.62 246.04 297.108C243.745 297.745 241.295 297.217 239.086 296.264C239.975 296.856 240.83 297.424 241.616 297.808C244.026 298.979 246.798 299.731 249.38 299.014C251.141 298.526 252.69 297.435 254.509 297.143C256.288 296.861 258.141 297.355 259.92 297.458C265.956 297.814 271.993 298.118 278.029 298.365C293.131 298.979 308.331 299.427 323.433 298.532C324.862 298.446 326.29 298.348 327.719 298.227C337.169 297.424 347.343 294.164 346.155 269.206V269.2Z" fill="white"/>
</g>
<path d="M220.449 301.361C219.938 301.361 219.445 301.316 218.969 301.218C217.769 300.971 216.719 300.409 215.864 299.576C214.229 300.713 212.657 300.546 211.062 300.231C210.861 300.191 210.66 300.162 210.459 300.133C209.708 300.024 208.853 299.904 208.003 299.33C207.992 299.318 207.194 298.658 206.632 297.843C205.427 297.734 204.28 297.137 203.522 296.184C200.659 292.562 204.423 287.459 206.035 285.278C209.949 279.98 214.378 273.97 220.305 269.929C227.019 265.354 234.994 264.172 241.122 266.853C243.418 267.857 245.391 269.327 247.302 270.756C247.985 271.261 248.691 271.881 249.442 272.535C251.015 273.901 252.793 275.451 254.302 275.916C256.81 276.697 261.509 275.692 265.285 274.889C266.966 274.533 268.555 274.194 269.846 274.028L312.651 268.552L307.78 225.393L343.802 223.906L343.945 225.157C343.968 225.381 346.505 247.991 347.509 269.143C348.708 294.382 338.236 298.687 327.833 299.576C326.485 299.691 325.073 299.794 323.513 299.886C307.957 300.81 292.488 300.311 277.977 299.726C271.992 299.484 265.887 299.175 259.839 298.819C259.203 298.778 258.571 298.698 257.963 298.618C256.81 298.469 255.72 298.325 254.721 298.486C253.861 298.624 253.017 299.002 252.128 299.398C251.376 299.737 250.596 300.087 249.741 300.323C247.182 301.034 244.25 300.598 241.025 299.025C240.17 298.606 239.298 298.032 238.374 297.418C236.664 296.282 234.736 294.984 233.267 295.151C231.695 295.317 230.094 296.603 228.551 297.843C227.885 298.377 227.254 298.882 226.611 299.318C224.638 300.65 222.428 301.373 220.443 301.373L220.449 301.361ZM216.22 295.438L217.161 296.907C217.741 297.814 218.515 298.359 219.519 298.566C221.109 298.899 223.249 298.319 225.108 297.062C225.659 296.689 226.244 296.218 226.864 295.725C228.625 294.313 230.622 292.706 232.986 292.453C235.408 292.183 237.783 293.767 239.872 295.157C240.715 295.719 241.518 296.247 242.213 296.586C244.823 297.854 247.119 298.233 249.024 297.705C249.683 297.521 250.338 297.229 251.026 296.919C252.042 296.465 253.086 295.995 254.302 295.799C255.685 295.576 257.022 295.753 258.319 295.92C258.91 295.995 259.467 296.069 260.006 296.104C266.036 296.46 272.124 296.764 278.092 297.011C292.54 297.596 307.934 298.095 323.358 297.177C324.896 297.085 326.284 296.988 327.61 296.873C336.532 296.115 345.954 293.291 344.812 269.263C343.945 251.045 341.943 231.735 341.398 226.707L310.798 227.97L315.646 270.888L270.196 276.708C269.02 276.857 267.482 277.185 265.853 277.529C261.555 278.442 256.684 279.481 253.505 278.493C251.451 277.856 249.442 276.111 247.675 274.567C246.964 273.947 246.292 273.362 245.69 272.914C243.905 271.582 242.058 270.205 240.044 269.327C233.732 266.566 226.497 268.982 221.832 272.162C216.283 275.945 212.181 281.507 208.21 286.879C207.074 288.418 204.061 292.499 205.645 294.502C206.012 294.967 206.684 295.225 207.263 295.139L207.47 296.477L208.658 297.085C208.893 296.597 208.755 296.155 208.68 296.023C208.801 296.236 209.369 296.901 209.593 297.137C209.897 297.315 210.276 297.378 210.844 297.458C211.09 297.493 211.331 297.527 211.584 297.579C213.322 297.923 213.982 297.849 215.032 296.724L216.22 295.444V295.438Z" fill="white"/>
<path d="M313.23 268.477C314.584 268.402 315.88 268.431 317.2 268.523C318.514 268.615 319.828 268.764 321.131 268.994C322.439 269.212 323.741 269.476 325.027 269.878C326.312 270.268 327.591 270.756 328.785 271.485C329.164 271.714 329.278 272.208 329.049 272.581C328.842 272.92 328.423 273.052 328.068 272.903L328.045 272.891C326.937 272.443 325.744 272.162 324.533 271.927C323.322 271.703 322.072 271.571 320.827 271.462C319.576 271.364 318.319 271.313 317.062 271.272L313.304 271.175H313.27C312.524 271.152 311.933 270.532 311.956 269.786C311.973 269.08 312.535 268.511 313.23 268.471V268.477Z" fill="white"/>
<path d="M215.044 298.417C214.883 297.59 215.015 297.039 215.124 296.528C215.25 296.018 215.405 295.558 215.594 295.122C215.962 294.25 216.38 293.446 216.845 292.677C217.775 291.144 218.813 289.709 219.961 288.366C221.103 287.023 222.331 285.749 223.673 284.589C225.016 283.435 226.491 282.374 228.235 281.702C228.614 281.553 229.044 281.742 229.187 282.127C229.325 282.483 229.164 282.884 228.832 283.051L228.809 283.062C227.403 283.763 226.141 284.848 224.97 285.996C223.8 287.161 222.732 288.441 221.751 289.778C220.776 291.121 219.869 292.516 219.094 293.951C218.71 294.669 218.354 295.392 218.079 296.109C217.941 296.465 217.826 296.821 217.752 297.143C217.666 297.458 217.672 297.78 217.683 297.797C218.148 298.428 218.01 299.318 217.379 299.783C216.748 300.248 215.858 300.11 215.394 299.479C215.267 299.307 215.187 299.111 215.147 298.916L215.049 298.423L215.044 298.417Z" fill="white"/>
<path d="M206.202 296.947C206.11 296.701 206.105 296.31 206.145 296.115L206.191 295.926C206.225 295.782 206.254 295.713 206.283 295.627C206.34 295.455 206.392 295.317 206.455 295.174C206.569 294.898 206.69 294.634 206.81 294.376C207.051 293.859 207.298 293.36 207.568 292.878C208.101 291.902 208.658 290.949 209.255 290.019C210.46 288.171 211.745 286.374 213.185 284.693C214.62 283.016 216.152 281.398 217.885 279.991C219.6 278.579 221.522 277.345 223.668 276.628C223.944 276.536 224.236 276.685 224.334 276.955C224.42 277.202 224.305 277.472 224.076 277.586H224.064C222.217 278.539 220.587 279.871 219.112 281.346C217.644 282.839 216.295 284.457 215.056 286.162C213.834 287.878 212.657 289.635 211.59 291.46C211.051 292.367 210.517 293.274 210.024 294.198C209.783 294.663 209.53 295.116 209.301 295.576C209.186 295.805 209.077 296.029 208.979 296.247L208.847 296.546C208.83 296.592 208.807 296.643 208.813 296.632C208.813 296.632 208.813 296.632 208.807 296.632C208.842 296.505 208.836 296.184 208.744 296C209.002 296.701 208.641 297.481 207.941 297.734C207.241 297.992 206.46 297.63 206.208 296.93L206.202 296.947Z" fill="white"/>
<path d="M303.781 147.931C295.146 144.252 293.355 184.162 296.133 198.891C298.468 211.272 302.49 226.007 303.712 230.392C303.948 231.23 304.579 231.896 305.405 232.177C310.104 233.779 326.75 238.204 346.46 229.066C347.458 228.601 348.083 227.591 348.009 226.489C347.263 215.457 331.742 159.842 303.793 147.937L303.781 147.931Z" fill="#090909"/>
<g opacity="0.2">
<path d="M347.997 226.483C347.251 215.451 331.73 159.836 303.78 147.931C303.178 147.673 302.616 147.639 302.082 147.782C328.023 162.356 342.391 214.142 343.108 224.75C343.182 225.846 342.563 226.862 341.559 227.327C325.561 234.749 311.59 233.228 304.377 231.534C304.658 231.821 305.008 232.039 305.399 232.172C310.098 233.773 326.743 238.199 346.453 229.06C347.451 228.595 348.077 227.585 348.002 226.483H347.997Z" fill="white"/>
</g>
<g opacity="0.2">
<path d="M301.577 198.788C302.065 199.695 302.329 200.636 302.536 201.595C302.639 202.077 302.708 202.559 302.748 203.052C302.788 203.546 302.794 204.046 302.719 204.568C302.691 204.78 302.501 204.918 302.295 204.889C302.18 204.872 302.088 204.809 302.031 204.717C301.755 204.275 301.56 203.81 301.4 203.339C301.239 202.869 301.113 202.392 301.009 201.91C300.82 200.94 300.682 199.964 300.768 198.943C300.786 198.707 300.992 198.535 301.227 198.552C301.377 198.564 301.497 198.65 301.566 198.77V198.782L301.577 198.788Z" fill="#F9F9ED"/>
</g>
<g opacity="0.2">
<path d="M300.235 176.66C300.43 178.279 300.539 179.892 300.642 181.499C300.751 183.106 300.82 184.713 300.9 186.32C300.975 187.928 301.044 189.529 301.089 191.136C301.141 192.743 301.181 194.351 301.17 195.975C301.17 196.268 300.929 196.497 300.642 196.497C300.412 196.497 300.217 196.342 300.148 196.136C299.638 194.557 299.311 192.939 299.075 191.314C298.84 189.69 298.691 188.06 298.616 186.424C298.548 184.788 298.525 183.152 298.588 181.522C298.651 179.886 298.771 178.256 299.024 176.631C299.076 176.298 299.385 176.074 299.718 176.126C299.994 176.172 300.194 176.39 300.229 176.654L300.235 176.66Z" fill="#F9F9ED"/>
</g>
<path d="M295.203 174.76C295.467 178.973 295.599 183.152 295.84 187.325C296.075 191.504 296.408 195.636 297.268 199.695C298.904 207.92 300.941 216.094 303.104 224.227L303.93 227.275L304.349 228.796L304.561 229.554C304.607 229.709 304.607 229.726 304.636 229.801C304.659 229.864 304.687 229.921 304.722 229.973C304.854 230.197 305.049 230.375 305.284 230.484C305.313 230.495 305.342 230.513 305.376 230.524C305.399 230.536 305.439 230.547 305.508 230.57L305.869 230.685C306.11 230.759 306.351 230.846 306.598 230.914C307.574 231.201 308.566 231.46 309.565 231.684C313.57 232.585 317.695 232.958 321.809 232.918C325.923 232.866 330.032 232.349 334.037 231.391C335.047 231.196 336.028 230.869 337.02 230.593C337.514 230.45 338.013 230.317 338.501 230.157L339.958 229.64C340.928 229.29 341.909 228.974 342.844 228.544L344.267 227.935L344.979 227.631C345.197 227.534 345.512 227.407 345.57 227.367C345.794 227.241 345.972 227.046 346.081 226.828C346.132 226.719 346.172 226.598 346.19 226.483C346.201 226.426 346.201 226.363 346.201 226.299V226.196L346.184 226.007C346.115 224.985 346 223.969 345.862 222.947C345.587 220.91 345.203 218.872 344.755 216.84C343.837 212.776 342.77 208.695 341.582 204.7C339.184 196.687 336.165 188.857 332.482 181.367C328.787 173.893 324.351 166.77 318.871 160.548C316.14 157.431 313.111 154.624 309.852 152.064C309.042 151.433 308.216 150.819 307.396 150.302C306.994 150.044 306.558 149.808 306.254 149.693C306.139 149.636 305.887 149.579 305.686 149.544C305.474 149.504 305.261 149.475 305.049 149.458C304.205 149.406 303.345 149.504 302.691 149.923C301.962 150.13 301.113 150.652 300.154 151.209C299.85 151.387 299.454 151.283 299.277 150.973C299.173 150.79 299.168 150.583 299.242 150.399V150.382C299.466 149.871 299.741 149.378 300.086 148.878C300.436 148.396 300.877 147.897 301.457 147.535C302.685 146.99 303.976 146.732 305.238 146.835C305.554 146.852 305.864 146.898 306.174 146.95C306.489 147.013 306.759 147.059 307.132 147.202C307.815 147.455 308.302 147.748 308.79 148.046C309.754 148.649 310.626 149.292 311.487 149.946C313.191 151.272 314.821 152.632 316.41 154.108C317.982 155.577 319.48 157.127 320.903 158.74C326.589 165.186 331.156 172.504 334.938 180.138C338.713 187.778 341.789 195.745 344.239 203.891C345.461 207.977 346.534 212.064 347.481 216.226C347.945 218.309 348.347 220.422 348.64 222.563C348.783 223.636 348.904 224.71 348.978 225.794L348.995 225.995L349.007 226.288C349.007 226.489 348.99 226.696 348.961 226.896C348.904 227.298 348.777 227.689 348.599 228.056C348.249 228.785 347.676 229.393 346.981 229.795C346.585 230.019 346.396 230.071 346.138 230.191L345.392 230.507L343.906 231.138C342.925 231.586 341.898 231.913 340.882 232.275L339.356 232.814C338.839 232.975 338.317 233.113 337.801 233.262C336.762 233.549 335.735 233.882 334.674 234.089C330.473 235.082 326.164 235.61 321.844 235.65C317.529 235.684 313.202 235.277 308.979 234.313C307.924 234.077 306.874 233.796 305.829 233.486C305.565 233.411 305.307 233.32 305.049 233.239L304.659 233.113C304.601 233.096 304.515 233.067 304.418 233.027C304.326 232.992 304.234 232.952 304.142 232.912C303.425 232.573 302.811 232.011 302.409 231.322C302.312 231.15 302.22 230.972 302.151 230.782C302.082 230.61 302.014 230.375 301.985 230.272L301.773 229.508L301.354 227.976L300.533 224.91C298.381 216.731 296.362 208.517 294.732 200.188C293.86 195.981 293.493 191.682 293.321 187.44C293.177 183.186 293.298 178.927 293.877 174.708C293.929 174.347 294.262 174.094 294.623 174.14C294.939 174.186 295.174 174.45 295.191 174.754L295.203 174.76Z" fill="white"/>
<path d="M464.585 305.052H6.41496C2.87207 305.052 0 307.925 0 311.47V319.276C0 322.82 2.87207 325.693 6.41496 325.693H464.585C468.128 325.693 471 322.82 471 319.276V311.47C471 307.925 468.128 305.052 464.585 305.052Z" fill="white"/>
<path d="M390.63 307.819L383.045 309.191L434.359 571.457C434.697 573.202 436.665 574.298 438.766 573.92C440.866 573.541 442.323 571.825 442.03 570.068L398.21 306.441L390.625 307.813L390.63 307.819Z" fill="white"/>
<path d="M80.3768 307.819L87.9623 309.191L36.6484 571.457C36.3098 573.202 34.3417 574.298 32.2417 573.92C30.1416 573.541 28.6842 571.825 28.9768 570.068L72.7971 306.441L80.3825 307.813L80.3768 307.819Z" fill="white"/>
<path d="M232.567 293.79H80.8054C79.297 293.79 78.0742 295.014 78.0742 296.523V301.04C78.0742 302.549 79.297 303.772 80.8054 303.772H232.567C234.075 303.772 235.298 302.549 235.298 301.04V296.523C235.298 295.014 234.075 293.79 232.567 293.79Z" fill="white"/>
<g opacity="0.2">
<path d="M232.441 293.79H231.069C231.149 294.146 231.19 294.508 231.19 294.887V296.724C231.19 298.164 229.91 299.335 228.338 299.335H78.0742V301.161C78.0742 302.601 79.3538 303.772 80.9317 303.772H232.446C234.024 303.772 235.304 302.601 235.304 301.161V296.402C235.304 294.961 234.024 293.79 232.446 293.79H232.441Z" fill="white"/>
</g>
<path d="M191.823 208.936L200.677 287.798C201.038 290.989 198.536 293.785 195.323 293.785H78.1383C75.3956 293.785 73.0947 291.724 72.7848 288.998L63.9313 210.136C63.5698 206.944 66.0715 204.149 69.2847 204.149H186.47C189.212 204.149 191.513 206.209 191.823 208.936Z" fill="white"/>
<path d="M232.568 305.196H80.8067C78.5173 305.196 76.6582 303.336 76.6582 301.046V296.523C76.6582 294.232 78.5173 292.373 80.8067 292.373H232.568C234.857 292.373 236.716 294.232 236.716 296.523V301.046C236.716 303.336 234.857 305.196 232.568 305.196ZM80.8067 295.208C80.0837 295.208 79.4927 295.799 79.4927 296.523V301.046C79.4927 301.769 80.0837 302.36 80.8067 302.36H232.568C233.291 302.36 233.882 301.769 233.882 301.046V296.523C233.882 295.799 233.291 295.208 232.568 295.208H80.8067Z" fill="#090909"/>
<path d="M195.329 295.208H78.1439C74.6782 295.208 71.7691 292.608 71.3789 289.164L62.5254 210.302C62.3073 208.379 62.927 206.451 64.2123 205.004C65.5033 203.563 67.3509 202.737 69.2846 202.737H186.469C189.935 202.737 192.844 205.337 193.234 208.781L202.088 287.643C202.306 289.566 201.686 291.494 200.401 292.941C199.11 294.382 197.262 295.214 195.329 295.214V295.208ZM69.2846 205.572C68.137 205.572 67.087 206.043 66.3296 206.898C65.5664 207.754 65.2164 208.85 65.3427 209.986L74.1962 288.848C74.42 290.857 76.1184 292.373 78.1382 292.373H195.323C196.453 292.373 197.526 291.89 198.278 291.047C199.041 290.191 199.391 289.095 199.265 287.959L190.411 209.097C190.188 207.088 188.489 205.572 186.469 205.572H69.2846Z" fill="#090909"/>
<g opacity="0.2">
<path d="M200.682 287.804L191.829 208.942C191.524 206.215 189.218 204.155 186.475 204.155H182.103C183.537 206.003 184.496 208.247 184.771 210.721L192.856 282.735C193.211 285.927 190.715 288.722 187.502 288.722H72.7617L72.7904 288.998C73.0945 291.724 75.4011 293.785 78.1439 293.785H195.329C198.542 293.785 201.038 290.989 200.682 287.798V287.804Z" fill="white"/>
</g>
<path d="M116.886 255.011C116.014 250.557 116.525 246.091 118.332 242.44C120.202 238.658 123.221 236.19 126.835 235.478C134.151 234.043 141.593 240.472 143.418 249.811C145.248 259.15 140.784 267.909 133.468 269.344C132.78 269.476 132.091 269.545 131.409 269.545C124.804 269.545 118.544 263.472 116.886 255.011ZM127.386 238.279C124.661 238.813 122.354 240.741 120.891 243.703C119.365 246.797 118.934 250.62 119.686 254.46C121.212 262.255 127.157 267.673 132.923 266.543C138.696 265.412 142.15 258.151 140.624 250.356C139.235 243.255 134.18 238.124 128.93 238.124C128.419 238.124 127.903 238.176 127.392 238.273L127.386 238.279Z" fill="url(#paint1_linear_523_397)"/>
<path d="M202.261 257.766C203.598 257.99 204.854 258.3 206.122 258.679C207.385 259.052 208.63 259.488 209.858 259.999C211.086 260.498 212.302 261.038 213.467 261.715C214.637 262.381 215.779 263.133 216.778 264.109C217.093 264.419 217.105 264.924 216.795 265.24C216.52 265.527 216.083 265.561 215.768 265.337L215.745 265.32C214.764 264.637 213.656 264.103 212.526 263.61C211.39 263.127 210.202 262.726 209.009 262.347C207.809 261.979 206.593 261.652 205.377 261.336L201.733 260.418H201.699C200.976 260.229 200.534 259.494 200.717 258.765C200.89 258.076 201.567 257.651 202.249 257.76L202.261 257.766Z" fill="white"/>
<path d="M397.285 266.755C390.101 266.755 383.497 265.894 379.17 264.396L378.172 264.051L378.556 263.07C379.274 261.262 380.783 259.907 382.699 259.356C392.373 256.584 402.185 256.584 411.859 259.356C413.781 259.907 415.29 261.262 416.002 263.07L416.386 264.051L415.388 264.396C411.061 265.894 404.457 266.755 397.273 266.755H397.285ZM380.978 262.846C385.063 264.034 391.03 264.729 397.285 264.729C403.539 264.729 409.506 264.034 413.592 262.846C413.041 262.111 412.243 261.566 411.308 261.296C402.001 258.627 392.568 258.627 383.261 261.296C382.32 261.566 381.529 262.111 380.978 262.846Z" fill="white"/>
<g opacity="0.2">
<path d="M415.073 263.437C414.947 263.116 414.786 262.812 414.591 262.525C414.551 262.467 414.517 262.41 414.477 262.352C414.39 262.238 414.304 262.123 414.213 262.014C414.144 261.933 414.069 261.853 413.995 261.773C413.909 261.687 413.828 261.595 413.736 261.514C413.57 261.365 413.398 261.227 413.214 261.101C413.145 261.049 413.071 261.009 412.996 260.963C412.847 260.872 412.692 260.78 412.531 260.699C412.457 260.665 412.388 260.625 412.313 260.596C412.078 260.493 411.837 260.395 411.585 260.326C411.361 260.263 411.131 260.206 410.908 260.143C401.601 257.6 392.288 257.657 382.981 260.326C381.805 260.665 380.824 261.365 380.147 262.272C379.739 262.823 380.026 263.627 380.686 263.816C384.743 264.999 390.67 265.745 397.28 265.745C402.375 265.745 407.057 265.303 410.799 264.557C411.424 264.43 411.998 264.912 411.998 265.544V298.641C411.998 301.092 410.053 303.078 407.654 303.078H380.789C380.623 303.078 380.462 303.066 380.307 303.049C379.694 302.98 379.148 303.428 379.148 304.042C379.148 304.599 379.602 305.052 380.158 305.052H414.413C414.97 305.052 415.423 304.599 415.423 304.042V265.222C415.423 264.597 415.291 263.994 415.073 263.432V263.437Z" fill="white"/>
</g>
<path d="M385.425 264.344C385.115 264.43 384.822 264.557 384.547 264.7C388.15 265.354 392.54 265.739 397.285 265.739C402.03 265.739 406.42 265.354 410.023 264.7C409.748 264.557 409.461 264.43 409.145 264.344C401.238 262.077 393.332 262.077 385.419 264.344H385.425Z" fill="white"/>
</g>
<defs>
<linearGradient id="paint0_linear_523_397" x1="259.074" y1="305.833" x2="259.074" y2="485.46" gradientUnits="userSpaceOnUse">
<stop stop-color="#00FF7C"/>
<stop offset="1" stop-color="#00C5FF"/>
</linearGradient>
<linearGradient id="paint1_linear_523_397" x1="130.15" y1="235.277" x2="130.15" y2="269.545" gradientUnits="userSpaceOnUse">
<stop stop-color="#00FF7C"/>
<stop offset="1" stop-color="#00C5FF"/>
</linearGradient>
<clipPath id="clip0_523_397">
<rect width="471" height="574" fill="white"/>
</clipPath>
</defs>
</svg>
