<svg width="50" height="66" viewBox="0 0 50 66" fill="none" xmlns="http://www.w3.org/2000/svg">
<path d="M3.34375 66H46.6562C48.3619 66 49.75 64.6119 49.75 62.9062V19.5938C49.75 19.5587 49.7335 19.5298 49.7314 19.4968C49.7259 19.4514 49.717 19.4067 49.7046 19.3627C49.6715 19.2197 49.6082 19.0854 49.519 18.9688C49.5046 18.9502 49.5066 18.9276 49.4922 18.909L32.9922 0.3465L32.9716 0.334125C32.8453 0.203029 32.6866 0.107676 32.5116 0.05775C32.4745 0.04675 32.436 0.0391875 32.3961 0.0350625C32.3363 0.02475 32.2806 0 32.2188 0H3.34375C1.63806 0 0.25 1.38806 0.25 3.09375V62.9062C0.25 64.6119 1.63806 66 3.34375 66ZM33.25 3.74344L46.4232 18.5625H34.2812C33.8275 18.5625 33.25 17.6963 33.25 17.0156V3.74344ZM2.3125 3.09375C2.3125 2.82025 2.42115 2.55794 2.61455 2.36455C2.80794 2.17115 3.07025 2.0625 3.34375 2.0625H31.1875V17.0156C31.1875 18.6842 32.5384 20.625 34.2812 20.625H47.6875V62.9062C47.6875 63.1798 47.5788 63.4421 47.3855 63.6355C47.1921 63.8288 46.9298 63.9375 46.6562 63.9375H3.34375C2.76625 63.9375 2.3125 63.4837 2.3125 62.9062V3.09375Z" fill="#F1F1F1"/>
<path d="M11.5938 28.875H38.4062C38.6798 28.875 38.9421 28.7664 39.1355 28.573C39.3289 28.3796 39.4375 28.1173 39.4375 27.8438C39.4375 27.5702 39.3289 27.3079 39.1355 27.1145C38.9421 26.9211 38.6798 26.8125 38.4062 26.8125H11.5938C11.3202 26.8125 11.0579 26.9211 10.8645 27.1145C10.6711 27.3079 10.5625 27.5702 10.5625 27.8438C10.5625 28.1173 10.6711 28.3796 10.8645 28.573C11.0579 28.7664 11.3202 28.875 11.5938 28.875ZM11.5938 37.125H38.4062C38.6798 37.125 38.9421 37.0164 39.1355 36.823C39.3289 36.6296 39.4375 36.3673 39.4375 36.0938C39.4375 35.8202 39.3289 35.5579 39.1355 35.3645C38.9421 35.1711 38.6798 35.0625 38.4062 35.0625H11.5938C11.3202 35.0625 11.0579 35.1711 10.8645 35.3645C10.6711 35.5579 10.5625 35.8202 10.5625 36.0938C10.5625 36.3673 10.6711 36.6296 10.8645 36.823C11.0579 37.0164 11.3202 37.125 11.5938 37.125ZM11.5938 20.625H23.9688C24.2423 20.625 24.5046 20.5164 24.698 20.323C24.8914 20.1296 25 19.8673 25 19.5938C25 19.3202 24.8914 19.0579 24.698 18.8645C24.5046 18.6711 24.2423 18.5625 23.9688 18.5625H11.5938C11.3202 18.5625 11.0579 18.6711 10.8645 18.8645C10.6711 19.0579 10.5625 19.3202 10.5625 19.5938C10.5625 19.8673 10.6711 20.1296 10.8645 20.323C11.0579 20.5164 11.3202 20.625 11.5938 20.625ZM11.5938 45.375H38.4062C38.6798 45.375 38.9421 45.2664 39.1355 45.073C39.3289 44.8796 39.4375 44.6173 39.4375 44.3438C39.4375 44.0702 39.3289 43.8079 39.1355 43.6145C38.9421 43.4211 38.6798 43.3125 38.4062 43.3125H11.5938C11.3202 43.3125 11.0579 43.4211 10.8645 43.6145C10.6711 43.8079 10.5625 44.0702 10.5625 44.3438C10.5625 44.6173 10.6711 44.8796 10.8645 45.073C11.0579 45.2664 11.3202 45.375 11.5938 45.375ZM11.5938 53.625H38.4062C38.6798 53.625 38.9421 53.5163 39.1355 53.323C39.3289 53.1296 39.4375 52.8673 39.4375 52.5938C39.4375 52.3202 39.3289 52.0579 39.1355 51.8645C38.9421 51.6712 38.6798 51.5625 38.4062 51.5625H11.5938C11.3202 51.5625 11.0579 51.6712 10.8645 51.8645C10.6711 52.0579 10.5625 52.3202 10.5625 52.5938C10.5625 52.8673 10.6711 53.1296 10.8645 53.323C11.0579 53.5163 11.3202 53.625 11.5938 53.625Z" fill="#F1F1F1"/>
</svg>
