<svg width="62" height="62" viewBox="0 0 62 62" fill="none" xmlns="http://www.w3.org/2000/svg">
<g clip-path="url(#clip0_401_233)">
<path d="M31 0C13.8906 0 0 13.8906 0 31C0 48.1094 13.8906 62 31 62C48.1094 62 62 48.1094 62 31C62 13.8906 48.1094 0 31 0ZM31 1.9375C38.4167 1.9375 45.1618 4.73267 50.2949 9.3H11.7025C17.0101 4.55527 23.8808 1.93395 31 1.9375ZM12.4362 11.2375H49.5638L31 48.3677L12.4362 11.2375ZM9.3 11.7025V50.2975C4.55527 44.9899 1.93395 38.1192 1.9375 31C1.9375 23.5858 4.73267 16.8407 9.3 11.7077V11.7025ZM52.7 11.7025C57.4447 17.0101 60.066 23.8808 60.0625 31C60.0625 38.4167 57.2673 45.1618 52.7 50.2949V11.7025ZM11.2375 13.175L30.0312 50.7625H11.2375V13.175ZM50.7625 13.175V50.7625H31.9687L50.7625 13.175ZM11.7102 52.7H50.2949C44.9879 57.4441 38.1183 60.0654 31 60.0625C23.8825 60.0648 17.0166 57.4435 11.7102 52.7Z" fill="url(#paint0_linear_401_233)"/>
</g>
<defs>
<linearGradient id="paint0_linear_401_233" x1="3.2352" y1="65.1869" x2="54.1293" y2="2.46261" gradientUnits="userSpaceOnUse">
<stop stop-color="#00C5FF"/>
<stop offset="1" stop-color="#00FF7C"/>
</linearGradient>
<clipPath id="clip0_401_233">
<rect width="62" height="62" fill="white"/>
</clipPath>
</defs>
</svg>
