<svg width="18" height="18" viewBox="0 0 18 18" fill="none" xmlns="http://www.w3.org/2000/svg">
<path d="M1.41797 10.3735L9.3143 2.4772C9.72359 2.05923 10.2117 1.72656 10.7504 1.49845C11.2891 1.27033 11.8676 1.15129 12.4526 1.14822C13.0376 1.14515 13.6174 1.25811 14.1584 1.48056C14.6995 1.70301 15.1911 2.03053 15.6047 2.44418C16.0184 2.85784 16.3459 3.34941 16.5683 3.89046C16.7908 4.4315 16.9037 5.01129 16.9007 5.59628C16.8976 6.18126 16.7786 6.75983 16.5504 7.29852C16.3223 7.8372 15.9897 8.32531 15.5717 8.73459L8.19604 16.1086C7.73912 16.5507 7.12675 16.7955 6.49098 16.7903C5.85521 16.785 5.24696 16.5301 4.79739 16.0806C4.34781 15.631 4.09293 15.0227 4.08769 14.387C4.08245 13.7512 4.32728 13.1388 4.76939 12.6819L11.8458 5.60463" stroke="black" stroke-width="1.25" stroke-linecap="round" stroke-linejoin="round"/>
</svg>
