<svg width="52" height="62" viewBox="0 0 52 62" fill="none" xmlns="http://www.w3.org/2000/svg">
<path d="M2.85756 6.57115C2.85756 5.54817 3.26394 4.56709 3.98729 3.84374C4.71065 3.12038 5.69173 2.71401 6.7147 2.71401H26.0004V19.4283C26.0004 20.2725 26.1667 21.1085 26.4898 21.8884C26.8128 22.6684 27.2864 23.377 27.8833 23.974C29.0889 25.1796 30.724 25.8569 32.429 25.8569H49.1433V55.4283C49.1433 56.4513 48.7369 57.4324 48.0135 58.1557C47.2902 58.8791 46.3091 59.2854 45.2861 59.2854H6.7147C5.69173 59.2854 4.71065 58.8791 3.98729 58.1557C3.26394 57.4324 2.85756 56.4513 2.85756 55.4283V6.57115ZM49.0507 23.2854H32.429C31.406 23.2854 30.4249 22.8791 29.7016 22.1557C28.9782 21.4324 28.5718 20.4513 28.5718 19.4283V2.80658C29.279 2.96601 29.9347 3.32086 30.4541 3.84286L48.0144 21.4032C48.5312 21.9198 48.8905 22.5725 49.0507 23.2854ZM6.7147 0.142578C5.00974 0.142578 3.37461 0.819872 2.16902 2.02546C0.963427 3.23105 0.286133 4.86619 0.286133 6.57115V55.4283C0.286133 57.1333 0.963427 58.7684 2.16902 59.974C3.37461 61.1796 5.00974 61.8569 6.7147 61.8569H45.2861C46.1303 61.8569 46.9663 61.6906 47.7462 61.3675C48.5262 61.0445 49.2349 60.5709 49.8318 59.974C50.4288 59.377 50.9023 58.6684 51.2253 57.8884C51.5484 57.1085 51.7147 56.2725 51.7147 55.4283V24.1289C51.7143 22.4247 51.0373 20.7904 49.8324 19.5852L32.2721 2.02486C31.0669 0.819976 29.4326 0.142942 27.7284 0.142578H6.7147Z" fill="url(#paint0_linear_401_252)"/>
<defs>
<linearGradient id="paint0_linear_401_252" x1="2.96971" y1="65.0291" x2="54.7213" y2="11.8781" gradientUnits="userSpaceOnUse">
<stop stop-color="#00C5FF"/>
<stop offset="1" stop-color="#00FF7C"/>
</linearGradient>
</defs>
</svg>
