<svg width="99" height="146" viewBox="0 0 99 146" fill="none" xmlns="http://www.w3.org/2000/svg">
<g clip-path="url(#clip0_255_1037)">
<path d="M95.4935 32.0485C95.3727 31.7253 95.249 31.4021 95.1198 31.0818C94.9905 30.7558 94.8556 30.4326 94.7207 30.1094C92.2392 24.2387 88.6842 18.9666 84.1568 14.4393C82.2627 12.5451 80.2393 10.8224 78.095 9.27675C77.8168 9.07441 77.5358 8.87769 77.2548 8.68378C74.5147 6.79246 71.5836 5.18498 68.4867 3.87538C62.408 1.30397 55.9528 0 49.298 0C42.6433 0 36.1881 1.30397 30.1094 3.87257C27.0125 5.18217 24.0842 6.78965 21.3413 8.68097C21.0575 8.87488 20.7793 9.0716 20.501 9.27394C18.3568 10.8196 16.3334 12.5423 14.4393 14.4364C9.91188 18.9638 6.35687 24.2359 3.87538 30.1066C3.73768 30.4298 3.6056 30.7558 3.47632 31.079C3.34705 31.4021 3.2234 31.7225 3.10256 32.0457C1.04262 37.5539 0 43.3459 0 49.298V96.7048C0 103.36 1.30397 109.815 3.87538 115.893C6.35687 121.764 9.91188 127.036 14.4393 131.564C18.9666 136.091 24.2387 139.646 30.1094 142.127C36.1881 144.699 42.6433 146.003 49.298 146.003C55.9528 146.003 62.408 144.699 68.4867 142.127C74.3574 139.643 79.6295 136.091 84.1568 131.564C88.6842 127.036 92.2392 121.764 94.7207 115.893C97.2921 109.815 98.5961 103.36 98.5961 96.7048V49.298C98.5961 43.3459 97.5535 37.5539 95.4935 32.0485ZM97.5703 96.702C97.5703 103.219 96.2945 109.539 93.7764 115.492C91.3455 121.239 87.8636 126.401 83.4318 130.836C78.9971 135.27 73.8346 138.749 68.0876 141.18C65.1115 142.439 62.0427 143.389 58.9036 144.022C55.9303 144.623 52.8924 144.941 49.8095 144.971C49.6381 144.971 49.4667 144.971 49.298 144.971C49.1294 144.971 48.9552 144.971 48.7866 144.971C42.4522 144.907 36.3033 143.631 30.5085 141.18C24.7614 138.749 19.5989 135.27 15.1643 130.836C10.7297 126.401 7.25054 121.239 4.81964 115.492C2.30162 109.539 1.02575 103.219 1.02575 96.702V49.2952C1.02575 43.5257 2.02622 37.908 4.00185 32.5656C4.11988 32.2424 4.24353 31.9192 4.37281 31.596C4.51613 31.2307 4.66508 30.8654 4.81964 30.5028C7.25054 24.7558 10.7325 19.5933 15.1643 15.1587C16.9938 13.3292 18.9469 11.6627 21.0153 10.162C21.2935 9.95965 21.5718 9.76293 21.8556 9.56621C24.5591 7.69456 27.4509 6.10394 30.5085 4.81121C36.3033 2.36064 42.4494 1.08477 48.7866 1.02013C48.958 1.02013 49.1294 1.02013 49.298 1.02013C49.4667 1.02013 49.6409 1.02013 49.8095 1.02013C56.1467 1.08477 62.2928 2.35783 68.0876 4.81121C71.1452 6.10394 74.037 7.69456 76.7405 9.56621C77.0215 9.76293 77.3025 9.95965 77.5808 10.162C79.6491 11.6599 81.6023 13.3264 83.4318 15.1587C87.8664 19.5933 91.3455 24.7558 93.7764 30.5028C93.931 30.8654 94.08 31.2307 94.2233 31.596C94.3497 31.9192 94.4734 32.2424 94.5942 32.5656C96.5699 37.908 97.5703 43.5229 97.5703 49.2952V96.702Z" fill="white"/>
<path d="M49.8091 0.511719V40.918C49.6405 40.9068 49.469 40.9011 49.2976 40.9011C49.1262 40.9011 48.9548 40.9068 48.7861 40.918V0.511719H49.8119H49.8091Z" fill="white"/>
<path d="M49.8514 40.9631H49.8064C49.472 40.9378 49.1207 40.9379 48.7891 40.9603H48.7441V0.469727H49.8542V40.9631H49.8514ZM49.2978 40.8564C49.4551 40.8564 49.6125 40.862 49.7671 40.8704V0.554035H48.8285V40.8704C48.983 40.8592 49.1404 40.8564 49.2978 40.8564Z" fill="white"/>
<path d="M49.8099 102.648H48.7842V145.415H49.8099V102.648Z" fill="white"/>
<path d="M49.8522 145.46H48.7422V102.606H49.8522V145.46ZM48.8293 145.373H49.7679V102.691H48.8293V145.373Z" fill="white"/>
<path d="M42.144 44.7171C41.9135 44.9981 41.6887 45.296 41.4751 45.6023L40.9131 44.6328L33.9717 32.6076L33.4827 31.7645L31.8246 28.8896L31.2625 27.9172L21.0162 10.1674L20.502 9.27656C20.7802 9.07422 21.0612 8.8775 21.3422 8.68359L21.8565 9.57445L32.1506 27.4029L32.7126 28.3753L34.3707 31.2474L34.8569 32.0905L41.6044 43.7756L42.1496 44.7171H42.144Z" fill="white"/>
<path d="M41.4719 45.6813L40.8789 44.6528L20.4453 9.26282L20.4762 9.24033C20.7629 9.03237 21.0467 8.83284 21.3193 8.64736L21.3587 8.62207L42.1997 44.7202L42.1801 44.7427C41.9524 45.0209 41.7276 45.3188 41.5112 45.6279L41.4719 45.6813ZM20.5577 9.28811L41.4803 45.5239C41.6798 45.2401 41.8878 44.9675 42.0958 44.7118L32.1136 27.4229L21.3277 8.74291C21.0804 8.91434 20.8191 9.09701 20.5577 9.28811Z" fill="white"/>
<path d="M38.7959 51.4724C38.7031 51.8124 38.616 52.1581 38.5373 52.5066L37.6071 51.9698L23.3618 43.7469L22.5187 43.2607L19.6438 41.5998L18.6714 41.0378L3.9989 32.5648L3.09961 32.0449C3.22045 31.7217 3.3441 31.3985 3.47338 31.0781L4.36986 31.5952L19.1773 40.1441L20.1496 40.7062L23.0245 42.3642L23.8676 42.8504L37.8769 50.9384L38.7959 51.4696V51.4724Z" fill="white"/>
<path d="M38.5652 52.5744L37.5844 52.0096L3.04883 32.0678L3.06007 32.034C3.17529 31.7249 3.30175 31.3989 3.43384 31.0645L3.45351 31.0195L4.39214 31.5619L38.8434 51.4531L38.835 51.484C38.7423 51.8269 38.6552 52.1726 38.5765 52.5182L38.5652 52.5744ZM3.15281 32.0312L4.02119 32.5315L38.5062 52.4423C38.5765 52.1276 38.658 51.8072 38.7423 51.4925L3.49566 31.1432C3.37482 31.4467 3.2596 31.7446 3.15281 32.0312Z" fill="white"/>
<path d="M78.095 9.27656L77.5807 10.1674L67.3316 27.9172L66.7696 28.8896L65.1115 31.7645L64.6225 32.6104L57.6811 44.6356L57.1219 45.6051C56.9055 45.296 56.6834 45.0009 56.4502 44.7199L56.9954 43.7784L63.7401 32.0933L64.2263 31.2502L65.8843 28.3753L66.4464 27.4029L76.7405 9.57445L77.2547 8.68359C77.5358 8.8775 77.8168 9.07422 78.095 9.27656Z" fill="white"/>
<path d="M57.1244 45.6813L57.085 45.6279C56.8686 45.316 56.641 45.0209 56.4162 44.7427L56.3965 44.7202L56.9557 43.7535L77.2376 8.62207L77.2769 8.64736C77.5804 8.85532 77.853 9.05204 78.1172 9.24033L78.1481 9.26282L77.6141 10.1874L57.1215 45.6813H57.1244ZM56.5005 44.7118C56.7084 44.9675 56.9164 45.2401 57.1159 45.5239L78.0357 9.28811C77.794 9.11387 77.5411 8.93401 77.2657 8.74291L76.7767 9.59162L56.5005 44.7118Z" fill="white"/>
<path d="M95.4942 32.048L94.5949 32.5679L79.9224 41.0409L78.9501 41.603L76.0752 43.2611L75.2321 43.7473L60.9867 51.973L60.0565 52.5097C59.9778 52.1584 59.8935 51.8128 59.8008 51.4755L60.7197 50.9472L74.729 42.8592L75.5721 42.373L78.447 40.715L79.4194 40.1529L94.2268 31.604L95.1233 31.0869C95.2525 31.4073 95.3762 31.7305 95.497 32.0537L95.4942 32.048Z" fill="white"/>
<path d="M60.0283 52.5744L60.0171 52.5182C59.9412 52.1782 59.8569 51.8325 59.7614 51.484L59.7529 51.4531L95.1457 31.0195L95.1653 31.0645C95.2946 31.3905 95.4211 31.7165 95.5391 32.034L95.5504 32.0678L94.6202 32.6045L60.034 52.5744H60.0283ZM59.8513 51.4925C59.9384 51.81 60.0171 52.1304 60.0874 52.4423L60.967 51.9337L95.4436 32.0284C95.334 31.739 95.2216 31.4411 95.1007 31.1404L94.2464 31.635L59.8513 51.4925Z" fill="white"/>
<path d="M37.9503 57.9197C37.9503 58.0012 37.9503 58.0799 37.9503 58.1586H0.511719V57.1328H37.9616C37.9532 57.3914 37.9503 57.6555 37.9503 57.9169V57.9197Z" fill="white"/>
<path d="M37.9955 58.2009H0.469727V57.0908H38.0067V57.1358C37.9983 57.4028 37.9927 57.6669 37.9927 57.9199C37.9927 57.9985 37.9927 58.08 37.9927 58.1587V58.2009H37.9955ZM0.554035 58.1166H37.9056C37.9056 58.0519 37.9056 57.9845 37.9056 57.9199C37.9056 57.681 37.9084 57.4309 37.9168 57.1779H0.554035V58.1166Z" fill="white"/>
<path d="M98.0817 57.1357V58.1615H60.6431C60.6431 58.0828 60.6431 58.0013 60.6431 57.9226C60.6431 57.6585 60.6375 57.3971 60.6318 57.1386H98.0817V57.1357Z" fill="white"/>
<path d="M98.1268 58.2009H60.6011V58.1587C60.6011 58.08 60.6011 57.9985 60.6011 57.9199C60.6011 57.6669 60.5983 57.4028 60.5898 57.1358V57.0908H98.124V58.2009H98.1268ZM60.6882 58.1166H98.0397V57.1779H60.677C60.6854 57.4309 60.6882 57.6782 60.6882 57.9199C60.6882 57.9845 60.6882 58.0519 60.6882 58.1166Z" fill="white"/>
<path d="M57.5517 90.5922C55.0337 91.2245 52.4454 91.5646 49.8094 91.6011C49.638 91.6039 49.4665 91.6067 49.2979 91.6067C49.1293 91.6067 48.9551 91.6067 48.7865 91.6011C46.1532 91.5618 43.5649 91.2245 41.0497 90.5922C40.1757 90.373 39.3102 90.1201 38.4558 89.8278C38.3884 89.8053 38.3238 89.7828 38.2563 89.7604C37.8797 89.6311 37.5088 89.4934 37.135 89.3501C36.8034 89.2236 36.4718 89.0887 36.143 88.951C33.3327 87.7622 30.7219 86.2166 28.3444 84.3309L28.7351 86.0395C30.8934 87.6161 33.2231 88.9341 35.7046 89.9852C36.2582 90.2184 36.8146 90.4376 37.3767 90.6428C37.7477 90.7777 38.1186 90.907 38.4924 91.0278C39.2315 91.2695 39.9818 91.4859 40.735 91.6742C41.1706 91.7838 41.6062 91.8849 42.0474 91.9777C42.3031 92.0311 42.5589 92.0845 42.8146 92.1322C42.8568 92.1407 42.8989 92.1463 42.9411 92.1547C44.8549 92.506 46.808 92.6971 48.7836 92.7252C48.9551 92.728 49.1265 92.7308 49.2951 92.7308C49.4637 92.7308 49.638 92.7308 49.8066 92.7252C51.7822 92.6971 53.7326 92.506 55.6492 92.1547C55.6941 92.1463 55.7363 92.1379 55.7813 92.1294C56.037 92.0816 56.2899 92.0311 56.5428 91.9777C56.9841 91.8849 57.4225 91.7838 57.8609 91.6742C58.6084 91.039 59.37 90.4236 60.1456 89.8306C59.2913 90.1201 58.4257 90.3758 57.5517 90.595V90.5922ZM57.5517 90.5922C55.0337 91.2245 52.4454 91.5646 49.8094 91.6011C49.638 91.6039 49.4665 91.6067 49.2979 91.6067C49.1293 91.6067 48.9551 91.6067 48.7865 91.6011C46.1532 91.5618 43.5649 91.2245 41.0497 90.5922C40.1757 90.373 39.3102 90.1201 38.4558 89.8278C38.3884 89.8053 38.3238 89.7828 38.2563 89.7604C37.8797 89.6311 37.5088 89.4934 37.135 89.3501C36.8034 89.2236 36.4718 89.0887 36.143 88.951C33.3327 87.7622 30.7219 86.2166 28.3444 84.3309L28.7351 86.0395C30.8934 87.6161 33.2231 88.9341 35.7046 89.9852C36.2582 90.2184 36.8146 90.4376 37.3767 90.6428C37.7477 90.7777 38.1186 90.907 38.4924 91.0278C39.2315 91.2695 39.9818 91.4859 40.735 91.6742C41.1706 91.7838 41.6062 91.8849 42.0474 91.9777C42.3031 92.0311 42.5589 92.0845 42.8146 92.1322C42.8568 92.1407 42.8989 92.1463 42.9411 92.1547C44.8549 92.506 46.808 92.6971 48.7836 92.7252C48.9551 92.728 49.1265 92.7308 49.2951 92.7308C49.4637 92.7308 49.638 92.7308 49.8066 92.7252C51.7822 92.6971 53.7326 92.506 55.6492 92.1547C55.6941 92.1463 55.7363 92.1379 55.7813 92.1294C56.037 92.0816 56.2899 92.0311 56.5428 91.9777C56.9841 91.8849 57.4225 91.7838 57.8609 91.6742C58.6084 91.039 59.37 90.4236 60.1456 89.8306C59.2913 90.1201 58.4257 90.3758 57.5517 90.595V90.5922ZM84.2017 57.1357H83.0804C83.086 57.3634 83.086 57.591 83.086 57.8186C83.086 57.9311 83.086 58.0463 83.086 58.1615C83.0438 62.6018 82.1502 66.9099 80.4331 70.9708C78.9099 74.5708 76.7994 77.8419 74.1493 80.714C73.8373 81.0513 73.517 81.3857 73.191 81.7117C72.879 82.0236 72.5643 82.3272 72.2411 82.625C72.0135 82.8358 71.783 83.0438 71.5526 83.2461C71.1282 83.6199 70.6954 83.9796 70.2542 84.3309C67.8767 86.2166 65.266 87.7651 62.4529 88.9538C62.1269 89.0915 61.7981 89.2264 61.4665 89.3529C61.0955 89.4962 60.7217 89.6339 60.3452 89.7632C60.2805 89.7856 60.2159 89.8081 60.1484 89.8306C59.2941 90.1201 58.4286 90.3758 57.5546 90.595C55.0365 91.2273 52.4483 91.5674 49.8122 91.6039C49.6408 91.6067 49.4694 91.6095 49.3007 91.6095C49.1321 91.6095 48.9579 91.6095 48.7893 91.6039C46.156 91.5646 43.5678 91.2273 41.0525 90.595C40.1785 90.3758 39.313 90.1229 38.4587 89.8306C38.3912 89.8081 38.3266 89.7856 38.2591 89.7632C37.8825 89.6339 37.5116 89.4962 37.1378 89.3529C36.8062 89.2264 36.4746 89.0915 36.1458 88.9538C33.3355 87.7651 30.7247 86.2194 28.3472 84.3337C27.906 83.9852 27.4732 83.6255 27.0489 83.2517C26.8128 83.0466 26.5824 82.8358 26.3491 82.6222C26.0288 82.3271 25.714 82.0236 25.4021 81.7117C25.0733 81.3829 24.7529 81.0513 24.4409 80.7112C21.7908 77.8419 19.6831 74.5708 18.16 70.9708C16.4401 66.9099 15.5492 62.6018 15.507 58.1615C15.507 58.0491 15.507 57.9339 15.507 57.8186C15.507 57.591 15.507 57.3634 15.5127 57.1357H14.3914C14.3857 57.3634 14.3857 57.591 14.3857 57.8186C14.3857 57.9311 14.3857 58.0463 14.3857 58.1615C14.4279 62.7535 15.3525 67.2078 17.1258 71.4092C18.4269 74.4836 20.1412 77.3248 22.2433 79.8934C22.6901 80.4415 23.1538 80.9754 23.6372 81.4981C23.952 81.841 24.2751 82.1754 24.6068 82.507C25.5173 83.4175 26.4672 84.2719 27.4592 85.0672C27.8779 85.4016 28.3023 85.7276 28.7323 86.0424C30.8906 87.6189 33.2203 88.9369 35.7018 89.988C36.2554 90.2212 36.8118 90.4404 37.3739 90.6456C37.7448 90.7805 38.1158 90.9098 38.4896 91.0306C39.2287 91.2723 39.979 91.4887 40.7322 91.677C41.1678 91.7866 41.6034 91.8877 42.0446 91.9805C42.3003 92.0339 42.556 92.0873 42.8118 92.1351C42.8539 92.1435 42.8961 92.1491 42.9382 92.1575C44.8521 92.5088 46.8052 92.6999 48.7808 92.728C48.9523 92.7308 49.1237 92.7336 49.2923 92.7336C49.4609 92.7336 49.6352 92.7336 49.8038 92.728C51.7794 92.6999 53.7297 92.5088 55.6464 92.1575C55.6913 92.1491 55.7335 92.1407 55.7784 92.1322C56.0342 92.0845 56.2871 92.0339 56.54 91.9805C56.9813 91.8877 57.4197 91.7866 57.8581 91.677C58.6112 91.4887 59.3588 91.2723 60.0979 91.0306C60.4716 90.9098 60.8426 90.7805 61.2135 90.6456C61.7728 90.4433 62.3292 90.2241 62.88 89.9908C65.3643 88.9398 67.6969 87.6189 69.8552 86.0395C70.288 85.7248 70.7123 85.3988 71.1282 85.0644C72.1175 84.2691 73.0673 83.4175 73.9751 82.5098C74.3039 82.181 74.627 81.8438 74.9418 81.5037C75.4252 80.981 75.8917 80.4471 76.3385 79.8991C78.4434 77.3305 80.1577 74.4893 81.4588 71.412C83.2349 67.2134 84.1567 62.7563 84.2017 58.1643C84.2017 58.0519 84.2017 57.9367 84.2017 57.8215C84.2017 57.5938 84.2017 57.3662 84.1961 57.1386L84.2017 57.1357ZM57.5517 90.5922C55.0337 91.2245 52.4454 91.5646 49.8094 91.6011C49.638 91.6039 49.4665 91.6067 49.2979 91.6067C49.1293 91.6067 48.9551 91.6067 48.7865 91.6011C46.1532 91.5618 43.5649 91.2245 41.0497 90.5922C40.1757 90.373 39.3102 90.1201 38.4558 89.8278C38.3884 89.8053 38.3238 89.7828 38.2563 89.7604C37.8797 89.6311 37.5088 89.4934 37.135 89.3501C36.8034 89.2236 36.4718 89.0887 36.143 88.951C33.3327 87.7622 30.7219 86.2166 28.3444 84.3309L28.7351 86.0395C30.8934 87.6161 33.2231 88.9341 35.7046 89.9852C36.2582 90.2184 36.8146 90.4376 37.3767 90.6428C37.7477 90.7777 38.1186 90.907 38.4924 91.0278C39.2315 91.2695 39.9818 91.4859 40.735 91.6742C41.1706 91.7838 41.6062 91.8849 42.0474 91.9777C42.3031 92.0311 42.5589 92.0845 42.8146 92.1322C42.8568 92.1407 42.8989 92.1463 42.9411 92.1547C44.8549 92.506 46.808 92.6971 48.7836 92.7252C48.9551 92.728 49.1265 92.7308 49.2951 92.7308C49.4637 92.7308 49.638 92.7308 49.8066 92.7252C51.7822 92.6971 53.7326 92.506 55.6492 92.1547C55.6941 92.1463 55.7363 92.1379 55.7813 92.1294C56.037 92.0816 56.2899 92.0311 56.5428 91.9777C56.9841 91.8849 57.4225 91.7838 57.8609 91.6742C58.6084 91.039 59.37 90.4236 60.1456 89.8306C59.2913 90.1201 58.4257 90.3758 57.5517 90.595V90.5922ZM57.5517 90.5922C55.0337 91.2245 52.4454 91.5646 49.8094 91.6011C49.638 91.6039 49.4665 91.6067 49.2979 91.6067C49.1293 91.6067 48.9551 91.6067 48.7865 91.6011C46.1532 91.5618 43.5649 91.2245 41.0497 90.5922C40.1757 90.373 39.3102 90.1201 38.4558 89.8278C38.3884 89.8053 38.3238 89.7828 38.2563 89.7604C37.8797 89.6311 37.5088 89.4934 37.135 89.3501C36.8034 89.2236 36.4718 89.0887 36.143 88.951C33.3327 87.7622 30.7219 86.2166 28.3444 84.3309L28.7351 86.0395C30.8934 87.6161 33.2231 88.9341 35.7046 89.9852C36.2582 90.2184 36.8146 90.4376 37.3767 90.6428C37.7477 90.7777 38.1186 90.907 38.4924 91.0278C39.2315 91.2695 39.9818 91.4859 40.735 91.6742C41.1706 91.7838 41.6062 91.8849 42.0474 91.9777C42.3031 92.0311 42.5589 92.0845 42.8146 92.1322C42.8568 92.1407 42.8989 92.1463 42.9411 92.1547C44.8549 92.506 46.808 92.6971 48.7836 92.7252C48.9551 92.728 49.1265 92.7308 49.2951 92.7308C49.4637 92.7308 49.638 92.7308 49.8066 92.7252C51.7822 92.6971 53.7326 92.506 55.6492 92.1547C55.6941 92.1463 55.7363 92.1379 55.7813 92.1294C56.037 92.0816 56.2899 92.0311 56.5428 91.9777C56.9841 91.8849 57.4225 91.7838 57.8609 91.6742C58.6084 91.039 59.37 90.4236 60.1456 89.8306C59.2913 90.1201 58.4257 90.3758 57.5517 90.595V90.5922Z" fill="white"/>
<path d="M49.2981 92.77C49.1267 92.77 48.9552 92.77 48.7838 92.7672C46.8166 92.7391 44.8466 92.548 42.9356 92.1967L42.8091 92.1742C42.5365 92.1236 42.2864 92.073 42.0391 92.0196C41.6176 91.9325 41.1764 91.8313 40.7267 91.7161C39.9764 91.5278 39.2204 91.3086 38.4813 91.0669C38.1103 90.9461 37.7338 90.8168 37.3656 90.6819C36.8064 90.4796 36.2443 90.2576 35.6907 90.0243C33.2148 88.9761 30.8682 87.6468 28.7127 86.0731C28.2856 85.7611 27.8556 85.4323 27.4369 85.0951C26.4477 84.2998 25.4837 83.437 24.5788 82.5321C24.2584 82.2117 23.9324 81.8717 23.6093 81.5232C23.1231 80.9949 22.651 80.4553 22.2126 79.9185C20.1105 77.3527 18.3878 74.4947 17.0894 71.423C15.3105 67.2189 14.3887 62.7561 14.3438 58.1585C14.3438 58.0461 14.3438 57.9309 14.3438 57.8156C14.3438 57.588 14.3438 57.3604 14.3494 57.1327V57.0906H15.5578V57.1355C15.5522 57.3632 15.5494 57.5908 15.5494 57.8184C15.5494 57.9309 15.5494 58.0461 15.5494 58.1585C15.5915 62.5959 16.4852 66.8985 18.1995 70.9509C19.717 74.5396 21.8275 77.8136 24.472 80.6773C24.7868 81.0174 25.1071 81.3546 25.4303 81.6778C25.731 81.9785 26.0486 82.2848 26.3746 82.5855C26.6163 82.8103 26.8439 83.0155 27.0715 83.215C27.465 83.5607 27.8697 83.8979 28.2743 84.2211L28.3699 84.297C28.606 84.4852 28.8448 84.6679 29.0865 84.8478C31.0874 86.3485 33.2542 87.6215 35.5474 88.6445C35.7497 88.7344 35.9549 88.8243 36.1572 88.9086C36.5057 89.0576 36.8317 89.1869 37.1464 89.3077C37.5174 89.451 37.8939 89.5887 38.2649 89.718L38.2958 89.7292C38.352 89.7489 38.4082 89.7686 38.4644 89.7883C39.3103 90.0749 40.1815 90.3335 41.0555 90.5498C43.5595 91.1794 46.159 91.5194 48.781 91.5559C49.1239 91.5644 49.4639 91.5644 49.8039 91.5559C52.4287 91.5166 55.0283 91.1794 57.5379 90.547C58.2292 90.3728 58.9289 90.1733 59.6203 89.9513C59.6287 89.9513 59.6371 89.9456 59.6428 89.9428C59.6428 89.9428 59.6456 89.9428 59.6484 89.9428C59.6568 89.9428 59.6652 89.9372 59.6709 89.9344C59.6821 89.9316 59.6905 89.9288 59.7018 89.9232C59.7186 89.9175 59.7355 89.9119 59.7524 89.9063C59.7552 89.9063 59.7608 89.9063 59.7636 89.9035C59.7692 89.9035 59.7748 89.9007 59.7777 89.8979C59.7889 89.8951 59.7973 89.8922 59.8086 89.8866C59.8451 89.8754 59.8844 89.8613 59.921 89.8501C59.935 89.8445 59.9491 89.8417 59.9659 89.836C60.0193 89.8192 60.0727 89.7995 60.1261 89.7826L60.3228 89.7152C60.7022 89.5831 61.0788 89.4454 61.4413 89.3049C61.7645 89.1812 62.0961 89.0463 62.4277 88.9058C65.2268 87.7227 67.8488 86.1686 70.2207 84.2885C70.6619 83.9401 71.0975 83.5747 71.5162 83.2066C71.7495 83.0014 71.9827 82.7935 72.2047 82.5855C72.5139 82.3017 72.8314 81.9925 73.1518 81.6722C73.4694 81.3546 73.7925 81.0174 74.1073 80.6745C76.7518 77.808 78.8651 74.534 80.3827 70.9453C82.0969 66.8929 82.9878 62.5875 83.0328 58.1529V58.1051C83.0328 58.0067 83.0328 57.9084 83.0328 57.8128C83.0328 57.5852 83.0328 57.3576 83.0271 57.1299V57.085H84.2328V57.1271C84.2384 57.3547 84.2412 57.5824 84.2412 57.81C84.2412 57.9084 84.2412 58.0067 84.2412 58.1051V58.1529C84.1962 62.7505 83.2744 67.2132 81.4955 71.4174C80.1972 74.4863 78.4717 77.3471 76.3696 79.9129C75.9227 80.4609 75.4534 81.0005 74.9729 81.5204C74.6609 81.8576 74.3349 82.1977 74.0061 82.5265C73.0984 83.4342 72.1373 84.297 71.1565 85.0838C70.7265 85.4295 70.2965 85.7583 69.8806 86.0618C67.7223 87.6384 65.3729 88.9677 62.8971 90.0159C62.3434 90.2491 61.7814 90.4712 61.2278 90.6707C60.8624 90.8028 60.4886 90.932 60.1121 91.0557C59.373 91.2974 58.617 91.5138 57.8695 91.7021C57.5828 91.7751 57.2905 91.8454 57.0039 91.91C56.9983 91.91 56.9927 91.91 56.987 91.9128C56.9814 91.9128 56.9786 91.9128 56.973 91.9156C56.9561 91.9185 56.9364 91.9241 56.9196 91.9269C56.914 91.9269 56.9112 91.9269 56.9055 91.9297C56.8971 91.9297 56.8887 91.9325 56.8802 91.9353C56.8802 91.9353 56.8802 91.9353 56.8774 91.9353H56.8662C56.8662 91.9353 56.8381 91.9437 56.824 91.9466C56.8184 91.9466 56.8128 91.9466 56.81 91.9494C56.81 91.9494 56.81 91.9494 56.8072 91.9494C56.7875 91.955 56.7678 91.9578 56.751 91.9606C56.7453 91.9606 56.7369 91.9606 56.7313 91.9634C56.7229 91.9634 56.7116 91.9662 56.7032 91.969C56.692 91.969 56.6807 91.9747 56.6695 91.9775C56.6301 91.9859 56.5908 91.9943 56.5514 92.0028C56.3182 92.0534 56.0681 92.1039 55.787 92.1545H55.7674C55.728 92.1658 55.6915 92.1714 55.6521 92.1798C53.7383 92.5311 51.7711 92.7222 49.8039 92.7503C49.6325 92.7531 49.4611 92.7531 49.2897 92.7531L49.2981 92.77ZM35.0499 89.6506C35.2748 89.7517 35.4996 89.8501 35.7272 89.9456C36.278 90.1789 36.8401 90.3981 37.3965 90.6004C37.7647 90.7353 38.1413 90.8646 38.5094 90.9826C39.2457 91.2243 39.9989 91.4407 40.7492 91.629C41.196 91.7414 41.6373 91.8454 42.0588 91.9325C42.3061 91.9859 42.5562 92.0365 42.826 92.0871L42.9525 92.1096C44.8606 92.4608 46.825 92.6519 48.7866 92.68C49.1295 92.6857 49.4695 92.6857 49.8096 92.68C51.774 92.6519 53.7355 92.4608 55.6437 92.1096C55.6831 92.1039 55.7196 92.0955 55.7561 92.0871H55.7758C56.054 92.0309 56.3041 91.9803 56.5374 91.9297C56.9702 91.8398 57.4086 91.7386 57.8442 91.6262C58.5186 91.0529 59.2184 90.4852 59.921 89.9428C59.2971 90.148 58.6676 90.3363 58.0409 90.5049C57.8807 90.547 57.7233 90.5892 57.5631 90.6285C56.4194 90.9152 55.2559 91.1428 54.0784 91.3086C54.0559 91.3114 54.0334 91.3142 54.0109 91.3171C54.0081 91.3171 54.0053 91.3171 53.9997 91.3171C53.002 91.4548 51.996 91.5503 50.9843 91.5981C50.5936 91.6178 50.203 91.629 49.8124 91.6346C49.4695 91.6402 49.1295 91.6402 48.7866 91.6346C46.159 91.5953 43.5511 91.2552 41.0415 90.6257C40.1675 90.4065 39.2935 90.1508 38.4448 89.8613C38.3886 89.8417 38.3324 89.822 38.2761 89.8023L38.2452 89.7911C37.8743 89.6618 37.4949 89.5241 37.1239 89.3808C36.8064 89.2599 36.4832 89.1278 36.1319 88.9789C33.3638 87.807 30.7699 86.2782 28.4205 84.429L28.7802 86.0028C29.1652 86.2838 29.5586 86.5592 29.9577 86.8234C29.9633 86.8262 29.9718 86.8318 29.9774 86.8346C29.9886 86.8431 29.9999 86.8487 30.0111 86.8571C30.0111 86.8571 30.0111 86.8571 30.0139 86.8571C30.0195 86.8599 30.0251 86.8656 30.0308 86.8684C31.4753 87.8267 32.9984 88.681 34.5778 89.4173C34.5834 89.4201 34.5891 89.4229 34.5947 89.4257C34.7464 89.496 34.901 89.5662 35.0527 89.6365L35.0499 89.6506ZM60.1683 89.8641C59.446 90.4178 58.7294 90.9939 58.0325 91.5812C58.721 91.4042 59.4123 91.2018 60.0896 90.9798C60.4634 90.859 60.8399 90.7297 61.2025 90.5948C61.7561 90.3953 62.3153 90.1733 62.869 89.94C65.3392 88.8946 67.683 87.5681 69.8357 85.9944C70.2516 85.6937 70.6787 85.3649 71.1087 85.0192C72.0895 84.2323 73.045 83.3724 73.9527 82.4675C74.2815 82.1387 74.6075 81.7986 74.9195 81.4642C75.3972 80.9471 75.8665 80.4075 76.3134 79.8623C78.4098 77.2993 80.1325 74.4497 81.4253 71.3865C83.1986 67.1936 84.1203 62.7421 84.1653 58.1557V58.1079C84.1653 58.0095 84.1653 57.9112 84.1653 57.8156C84.1653 57.6021 84.1653 57.3885 84.1597 57.1749H83.1227C83.1255 57.3885 83.1283 57.6021 83.1283 57.8156C83.1283 57.914 83.1283 58.0124 83.1283 58.1107V58.1585C83.0833 62.6044 82.1897 66.921 80.4698 70.9846C78.9466 74.5846 76.8305 77.867 74.1776 80.7391C73.86 81.082 73.5368 81.4192 73.2192 81.7396C72.8989 82.06 72.5785 82.3691 72.2694 82.6529C72.0474 82.8609 71.8141 83.0689 71.578 83.274C71.1593 83.6422 70.7209 84.0075 70.2769 84.3588C67.8994 86.2445 65.2718 87.8014 62.4643 88.9873C62.1327 89.1278 61.8011 89.2599 61.4779 89.3864C61.1153 89.5269 60.736 89.6674 60.3566 89.7967L60.1683 89.8613V89.8641ZM14.4365 57.1777C14.4337 57.3913 14.4309 57.6049 14.4309 57.8184C14.4309 57.9309 14.4309 58.0461 14.4309 58.1585C14.473 62.7421 15.3948 67.1936 17.1681 71.3893C18.4636 74.4525 20.1835 77.3022 22.28 79.8623C22.7184 80.3991 23.1849 80.9387 23.6711 81.4642C23.9943 81.8127 24.3203 82.1527 24.6378 82.4703C25.5399 83.3752 26.4982 84.2351 27.4875 85.0276C27.8753 85.3396 28.2715 85.6431 28.6678 85.9354L28.3053 84.3532C27.8725 84.0103 27.4397 83.6506 27.0181 83.2796C26.7905 83.0801 26.5601 82.875 26.3184 82.6501C25.9924 82.3494 25.672 82.0431 25.3713 81.7396C25.0481 81.4164 24.7249 81.0792 24.4102 80.7391C21.7601 77.867 19.644 74.5846 18.1208 70.9874C16.4009 66.9266 15.5072 62.61 15.4651 58.1613C15.4651 58.0489 15.4651 57.9337 15.4651 57.8184C15.4651 57.6049 15.4651 57.3913 15.4707 57.1777H14.4337H14.4365Z" fill="white"/>
<path d="M79.7617 57.1357H78.7809C78.7866 57.3634 78.7894 57.591 78.7894 57.8186C78.7894 57.9339 78.7894 58.0463 78.7894 58.1615C78.7022 65.9123 75.6447 73.1825 70.1534 78.6738C64.5834 84.2438 57.1755 87.3126 49.2982 87.3126C41.421 87.3126 34.0131 84.2438 28.4459 78.6738C22.9546 73.1825 19.897 65.9123 19.8099 58.1615C19.8099 58.0491 19.8099 57.9339 19.8099 57.8186C19.8099 57.591 19.8099 57.3634 19.8183 57.1357H18.8375C18.8319 57.3634 18.8291 57.591 18.8291 57.8186C18.8291 57.9339 18.8291 58.0463 18.8291 58.1615C18.8713 62.1549 19.6778 66.0275 21.2207 69.6809C22.7551 73.3089 24.9527 76.5689 27.7518 79.3679C30.5508 82.167 33.8079 84.3646 37.4388 85.899C41.0388 87.4222 44.8552 88.2259 48.7868 88.2878C48.9582 88.2906 49.1296 88.2934 49.2982 88.2934C49.4668 88.2934 49.6411 88.2934 49.8097 88.2878C53.7413 88.2259 57.5577 87.4222 61.1576 85.899C64.7857 84.3646 68.0456 82.167 70.8447 79.3679C73.6437 76.5689 75.8386 73.3118 77.3758 69.6809C78.9214 66.0275 79.7252 62.1549 79.7673 58.1615C79.7673 58.0491 79.7673 57.9339 79.7673 57.8186C79.7673 57.591 79.7673 57.3634 79.7589 57.1357H79.7617Z" fill="white"/>
<path d="M49.2984 88.3329C49.127 88.3329 48.9555 88.3329 48.7841 88.3273C44.8469 88.2626 41.0249 87.4589 37.4193 85.9329C33.7828 84.3957 30.5201 82.1952 27.721 79.3934C24.9192 76.5915 22.7187 73.3288 21.1815 69.6951C19.6358 66.0361 18.8293 62.1551 18.7871 58.1617C18.7871 58.0464 18.7871 57.934 18.7871 57.8188C18.7871 57.5884 18.7871 57.3579 18.7955 57.1359V57.0938H19.8634V57.1387C19.8578 57.3551 19.855 57.5855 19.855 57.8216C19.855 57.9368 19.855 58.0492 19.855 58.1617C19.9421 65.8956 23.0054 73.1714 28.477 78.643C34.0385 84.2046 41.4352 87.2678 49.3012 87.2678C57.1672 87.2678 64.5639 84.2046 70.1254 78.643C75.5999 73.1686 78.6631 65.8956 78.7474 58.1617C78.7474 58.0492 78.7474 57.934 78.7474 57.8216C78.7474 57.5799 78.7474 57.3551 78.7389 57.1387V57.0938H79.804V57.1359C79.8097 57.3635 79.8125 57.594 79.8125 57.8188C79.8125 57.934 79.8125 58.0464 79.8125 58.1617C79.7703 62.1579 78.9638 66.0389 77.4181 69.6951C75.8809 73.3288 73.6804 76.5943 70.8786 79.3934C68.0767 82.1952 64.814 84.3957 61.1803 85.9329C57.5775 87.4589 53.7527 88.2626 49.8155 88.3273C49.6441 88.3301 49.4726 88.3329 49.3012 88.3329H49.2984ZM18.877 57.1781C18.8714 57.3888 18.8714 57.6024 18.8714 57.8188C18.8714 57.934 18.8714 58.0464 18.8714 58.1588C18.9136 62.1438 19.7173 66.0136 21.2602 69.6614C22.7946 73.2866 24.9866 76.5409 27.78 79.3344C30.5735 82.1278 33.8278 84.3226 37.453 85.8542C41.0474 87.3746 44.8581 88.1783 48.7841 88.2401C49.1241 88.2486 49.467 88.2486 49.807 88.2401C53.733 88.1783 57.5466 87.3746 61.1409 85.8542C64.7662 84.3198 68.0205 82.1278 70.8139 79.3344C73.6074 76.5409 75.8022 73.2866 77.3338 69.6614C78.8766 66.0136 79.6804 62.1438 79.7225 58.1588C79.7225 58.0464 79.7225 57.9312 79.7225 57.8188C79.7225 57.608 79.7225 57.3916 79.7169 57.1781H78.8233C78.8289 57.3804 78.8317 57.5912 78.8317 57.8188C78.8317 57.934 78.8317 58.0464 78.8317 58.1617C78.7446 65.918 75.6729 73.2135 70.1844 78.702C64.606 84.2805 57.1897 87.3521 49.2984 87.3521C41.4071 87.3521 33.9936 84.2805 28.4152 78.702C22.9267 73.2135 19.855 65.918 19.7679 58.1617C19.7679 58.0492 19.7679 57.934 19.7679 57.8188C19.7679 57.5968 19.7679 57.3832 19.7763 57.1781H18.8827H18.877Z" fill="white"/>
<path d="M56.5461 91.6289V99.256C56.5461 101.369 54.8262 103.086 52.7157 103.086H45.8783C43.7649 103.086 42.0479 101.369 42.0479 99.256V91.6289H42.9415V99.256C42.9415 100.875 44.2595 102.193 45.8783 102.193H52.7157C54.3344 102.193 55.6524 100.875 55.6524 99.256V91.6289H56.5461Z" fill="white"/>
<path d="M52.7159 103.129H45.8784C43.7426 103.129 42.0059 101.392 42.0059 99.2561V91.584H42.9838V99.2561C42.9838 100.852 44.2822 102.148 45.8784 102.148H52.7159C54.3121 102.148 55.6105 100.849 55.6105 99.2561V91.584H56.5912V99.2561C56.5912 101.392 54.8545 103.129 52.7187 103.129H52.7159ZM42.093 91.6711V99.2561C42.093 101.344 43.7932 103.044 45.8812 103.044H52.7187C54.8067 103.044 56.5069 101.344 56.5069 99.2561V91.6711H55.6976V99.2561C55.6976 100.897 54.3627 102.235 52.7187 102.235H45.8812C44.24 102.235 42.9023 100.9 42.9023 99.2561V91.6711H42.093Z" fill="white"/>
<path d="M61.6573 57.1359C61.6067 55.3542 61.3791 53.6202 60.9856 51.9734C60.9041 51.6277 60.8142 51.2849 60.7158 50.9448C60.1144 48.8399 59.2348 46.9036 58.1051 45.2371C57.9646 45.032 57.824 44.8297 57.6779 44.6357C57.4559 44.335 57.2255 44.0512 56.9922 43.7758C54.9463 41.4011 52.4536 40.0465 49.8063 39.892C49.6377 39.8807 49.4663 39.8779 49.2948 39.8779C49.1234 39.8779 48.952 39.8836 48.7834 39.892C46.1361 40.0465 43.6433 41.4011 41.6003 43.7758C41.3642 44.0484 41.1366 44.335 40.9117 44.6357C40.7656 44.8325 40.6251 45.032 40.4846 45.2371C39.3548 46.9036 38.4752 48.8427 37.8766 50.9448C37.7783 51.2849 37.6883 51.6249 37.6069 51.9734C37.2162 53.6202 36.9886 55.3542 36.938 57.1359C36.9296 57.3973 36.9268 57.6586 36.9268 57.92C36.9268 58.0015 36.9268 58.0802 36.9268 58.1588C36.9689 62.8548 38.2279 67.2642 40.4874 70.6028C42.3225 73.3147 44.6438 75.0683 47.1703 75.7006C47.1703 75.7006 47.1731 75.7006 47.1759 75.7006C47.87 75.8749 48.5782 75.962 49.2948 75.962C52.6391 75.962 55.7669 74.0594 58.1051 70.6028C60.3645 67.2642 61.6236 62.852 61.6657 58.1588C61.6657 58.0802 61.6657 57.9987 61.6657 57.92C61.6657 57.6586 61.6629 57.3944 61.6545 57.1359H61.6573ZM60.6428 58.1588C60.5556 67.4328 55.4999 74.9391 49.2948 74.9391C48.8115 74.9391 48.3337 74.8941 47.8644 74.8042C47.4316 74.7227 47.0073 74.6046 46.5941 74.4501C41.6874 72.6459 38.0228 66.0417 37.9497 58.1588C37.9497 58.0802 37.9497 57.9987 37.9497 57.92C37.9497 57.6558 37.9553 57.3944 37.9609 57.1359C38.0087 55.5256 38.2083 53.9743 38.5371 52.5102C38.6157 52.1589 38.7029 51.816 38.7956 51.476C39.4082 49.2418 40.3272 47.2437 41.4738 45.6053C41.6902 45.2962 41.9122 45.0011 42.1427 44.7172C43.3623 43.2278 44.7956 42.1093 46.3581 41.4798C46.7909 41.3056 47.2321 41.1679 47.6817 41.0723C48.0443 40.9936 48.4124 40.943 48.7834 40.9177C48.952 40.9065 49.1234 40.9009 49.2948 40.9009C49.4663 40.9009 49.6377 40.9065 49.8063 40.9177C52.3159 41.0864 54.6175 42.4831 56.447 44.7172C56.6775 44.9983 56.9023 45.2962 57.1187 45.6025C58.2653 47.2437 59.187 49.239 59.7969 51.4732C59.8896 51.8132 59.9767 52.1589 60.0526 52.5074C60.3814 53.9715 60.5809 55.5228 60.6287 57.1331C60.6371 57.3916 60.64 57.6558 60.64 57.9172C60.64 57.9987 60.64 58.0773 60.64 58.156L60.6428 58.1588Z" fill="white"/>
<path d="M52.9903 52.6459C52.8301 55.9227 51.4334 58.0276 49.9552 60.2533C48.7383 62.0856 47.4793 63.9826 46.8836 66.6776C46.0601 70.4181 47.3501 73.7033 47.8672 74.805C47.9824 75.0523 48.0583 75.1928 48.0639 75.1984L47.1786 75.7015H47.173C47.1365 75.634 46.8864 75.1872 46.5997 74.4509C45.9674 72.8406 45.1384 69.8532 45.8859 66.4556C46.521 63.5723 47.8334 61.5966 49.1037 59.6856C50.5032 57.5807 51.824 55.591 51.9702 52.5953C52.1416 49.0627 51.2226 46.1063 49.2414 43.8075C48.0526 42.4277 46.8133 41.711 46.3608 41.4778C46.2484 41.4216 46.1866 41.3935 46.1838 41.3907L46.5885 40.4492C46.6222 40.4633 47.0578 40.6544 47.6845 41.0703C48.3196 41.4946 49.1571 42.1494 49.9805 43.0965C51.4812 44.822 53.2236 47.8796 52.9903 52.6431V52.6459Z" fill="white"/>
<path d="M47.1733 75.7545L47.1451 75.7433L47.1311 75.7208C47.044 75.5662 46.8163 75.1335 46.555 74.4646C45.9592 72.9555 45.0768 69.9035 45.8412 66.444C46.4791 63.5523 47.7943 61.5738 49.0646 59.66C50.4613 57.5579 51.7793 55.5739 51.9254 52.5921C52.0969 49.0709 51.1807 46.1257 49.2079 43.8353C48.0304 42.4695 46.8107 41.7585 46.3414 41.5168C46.2459 41.469 46.1868 41.4409 46.17 41.4325L46.1334 41.4156L46.1447 41.3763L46.5662 40.3955L46.6056 40.4124C46.7208 40.463 47.1339 40.6569 47.71 41.0363C48.5531 41.5983 49.3287 42.2812 50.0145 43.0709C51.5208 44.802 53.266 47.8709 53.0355 52.6484C52.8753 55.9392 51.4758 58.0469 49.992 60.2783C48.7751 62.1106 47.5189 64.0019 46.9259 66.6885C46.1138 70.37 47.3419 73.5794 47.9067 74.7906C48.0248 75.0435 48.1006 75.1784 48.1006 75.1812L48.1231 75.2178L48.0866 75.2403L47.1761 75.7601L47.1733 75.7545ZM46.2346 41.3707C46.2655 41.3847 46.3133 41.4072 46.3779 41.4409C46.8529 41.6854 48.0838 42.4049 49.2697 43.7819C51.2594 46.0891 52.1812 49.0568 52.0098 52.5978C51.8636 55.6048 50.54 57.5973 49.1376 59.7078C47.8702 61.616 46.5606 63.5888 45.9255 66.4637C45.1667 69.9007 46.0463 72.933 46.6365 74.4337C46.8838 75.0632 47.1058 75.4876 47.1901 75.6449L48.0079 75.1812C47.977 75.1222 47.9124 74.9986 47.8309 74.8215C47.2632 73.6047 46.0267 70.3728 46.8444 66.6661C47.4402 63.9626 48.702 62.0628 49.9189 60.2277C51.3971 58.0048 52.791 55.9083 52.9484 52.6399C53.1788 47.8905 51.4421 44.8442 49.947 43.1243C49.2669 42.343 48.4969 41.6629 47.6594 41.1065C47.1423 40.7637 46.7573 40.5754 46.6084 40.5051L46.2374 41.3679L46.2346 41.3707Z" fill="white"/>
<path d="M85.897 93.5553L48.959 130.48L49.6305 131.152L86.5686 94.2271L85.897 93.5553Z" fill="white"/>
<path d="M57.8548 132.769C56.9948 132.769 56.104 132.73 55.2271 132.654C53.8782 132.539 52.3578 132.3 51.0539 131.999C50.5564 131.887 50.0899 131.769 49.6712 131.645C49.6009 131.625 49.5279 131.603 49.4576 131.58L49.3452 131.547L48.519 130.72V130.591C48.4487 130.361 48.3841 130.127 48.3223 129.891L49.2412 129.653C49.2946 129.861 49.3536 130.068 49.4127 130.271L49.8454 130.704C49.8764 130.712 49.9045 130.72 49.9354 130.729C50.3344 130.847 50.7813 130.959 51.2618 131.069C52.5265 131.361 53.999 131.592 55.3058 131.704C56.4861 131.805 57.6974 131.836 58.8046 131.797C63.2168 131.609 66.8168 130.42 69.8097 128.163C70.2284 127.846 70.6388 127.5 71.0266 127.14C71.6476 126.536 72.2715 125.89 72.8785 125.235C75.582 122.301 77.9511 119.016 79.9183 115.469C80.2527 114.865 80.5703 114.258 80.8598 113.67C82.2649 110.849 83.3946 107.904 84.2152 104.914C84.5497 103.7 84.8363 102.449 85.0752 101.198C85.4068 99.3492 85.775 96.9268 85.7581 94.3582C83.2064 94.3385 80.7726 94.7094 78.915 95.0411C77.6982 95.2715 76.4645 95.5553 75.2589 95.8841C72.679 96.5867 70.1301 97.5197 67.6823 98.6579C64.8299 99.9844 62.0842 101.595 59.5213 103.444L59.3864 103.542C57.1044 105.2 54.9433 107.069 52.9677 109.095C51.8604 110.292 50.9696 111.599 50.2445 113.086C50.0562 113.471 49.8904 113.845 49.7358 114.227L48.8534 113.876C49.0164 113.471 49.1906 113.075 49.3789 112.695C50.1546 111.099 51.0988 109.716 52.2763 108.441C54.2435 106.426 56.3765 104.571 58.6304 102.918L58.8271 102.775C61.4772 100.85 64.3212 99.175 67.2805 97.798C69.7788 96.6373 72.3783 95.6874 75.0059 94.968C76.2368 94.6308 77.4959 94.3413 78.7436 94.1052C80.7586 93.7455 83.4284 93.3408 86.2386 93.4139L86.6911 93.4251L86.7023 93.8776C86.7754 96.6991 86.3707 99.3633 86.011 101.37C85.7693 102.651 85.4743 103.927 85.1342 105.167C84.2996 108.216 83.1473 111.22 81.7141 114.095C81.4162 114.693 81.093 115.312 80.753 115.93C78.7492 119.544 76.3352 122.894 73.5811 125.881C72.9629 126.55 72.3277 127.208 71.687 127.831C71.2654 128.219 70.8327 128.585 70.3886 128.925C67.2327 131.302 63.4585 132.553 58.8468 132.749C58.5236 132.761 58.192 132.766 57.8548 132.766V132.769Z" fill="white"/>
<path d="M71.4648 108.654L74.6742 95.3164L75.596 95.5384L72.752 107.373L84.5692 104.579L84.7884 105.504L71.4648 108.654Z" fill="white"/>
<path d="M62.5957 117.493L67.0219 98.124L67.9465 98.3348L63.8378 116.321L81.2138 113.415L81.3712 114.353L62.5957 117.493Z" fill="white"/>
<path d="M73.2239 126.036L54.4736 125.64L54.4821 125.083L58.6441 103.073L59.5771 103.247L55.5191 124.71L73.2435 125.086L73.2239 126.036Z" fill="white"/>
<path d="M12.7039 93.5569L12.0322 94.2285L48.9638 131.16L49.6355 130.488L12.7039 93.5569Z" fill="white"/>
<path d="M40.7433 132.769C40.4089 132.769 40.0773 132.764 39.7569 132.752C35.1424 132.556 31.3654 131.305 28.2123 128.928C27.7711 128.59 27.3355 128.225 26.9224 127.843C26.321 127.258 25.7336 126.654 25.1603 126.036L25.017 125.881C22.2629 122.891 19.8489 119.544 17.8479 115.93C17.5107 115.32 17.1875 114.702 16.884 114.095C15.4536 111.228 14.3014 108.224 13.4639 105.167C13.121 103.919 12.8288 102.643 12.5871 101.376C12.2274 99.3634 11.8255 96.6964 11.8958 93.8805L11.907 93.4281L12.3595 93.4168C15.1697 93.3438 17.8395 93.7484 19.8517 94.1082C21.1051 94.3442 22.3613 94.6337 23.5922 94.9709C26.2254 95.6904 28.8249 96.6402 31.3176 97.8009C34.2797 99.1807 37.1237 100.853 39.771 102.778L39.9677 102.921C42.2244 104.576 44.3574 106.431 46.3133 108.435C47.4993 109.716 48.4435 111.102 49.2079 112.676C49.4018 113.069 49.5817 113.471 49.7447 113.881L48.8623 114.233C48.7077 113.848 48.5419 113.468 48.362 113.109C47.6286 111.602 46.7377 110.295 45.6248 109.09C43.6604 107.075 41.4993 105.209 39.2117 103.548L39.015 103.405C36.4745 101.575 33.7485 99.9817 30.9158 98.6636C28.4708 97.5283 25.9219 96.5953 23.3392 95.8899C22.1336 95.5611 20.8999 95.2772 19.6774 95.0468C17.8255 94.7152 15.3974 94.3442 12.8372 94.3639C12.8203 96.9269 13.1885 99.3522 13.5201 101.207C13.7534 102.446 14.0428 103.697 14.3772 104.919C15.1978 107.918 16.3276 110.863 17.7299 113.676C18.0278 114.272 18.3454 114.879 18.6742 115.478C20.6133 118.976 22.9458 122.222 25.6043 125.128L25.7111 125.243C26.3182 125.901 26.942 126.544 27.5715 127.157C27.9537 127.511 28.364 127.857 28.78 128.172C31.7729 130.428 35.3757 131.614 39.7879 131.803C40.8923 131.845 42.1035 131.811 43.2838 131.71C44.5906 131.597 46.0632 131.367 47.3222 131.075C47.814 130.965 48.2581 130.85 48.6459 130.737C48.6768 130.729 48.7105 130.718 48.7414 130.709L49.1742 130.277C49.2332 130.08 49.2894 129.877 49.3428 129.675L50.2618 129.92C50.2028 130.147 50.1381 130.369 50.0735 130.591V130.721L49.2501 131.544L49.1405 131.581C49.0674 131.603 48.9915 131.625 48.9157 131.648C48.5082 131.769 48.0445 131.887 47.5358 131.999C46.2375 132.3 44.7171 132.539 43.3653 132.654C42.4885 132.73 41.5949 132.769 40.7377 132.769H40.7433Z" fill="white"/>
<path d="M27.1331 108.654L13.8096 105.504L14.0288 104.579L25.846 107.373L23.002 95.5384L23.9238 95.3164L27.1331 108.654Z" fill="white"/>
<path d="M36.0059 117.493L17.2275 114.353L17.3849 113.415L34.7637 116.321L30.6523 98.3348L31.5797 98.124L36.0059 117.493Z" fill="white"/>
<path d="M25.3742 126.036L25.3545 125.086L43.079 124.71L39.0209 103.247L39.9567 103.073L44.2228 125.637L25.3742 126.036Z" fill="white"/>
</g>
<defs>
<clipPath id="clip0_255_1037">
<rect width="98.5961" height="146" fill="white"/>
</clipPath>
</defs>
</svg>
