<svg width="113" height="146" viewBox="0 0 113 146" fill="none" xmlns="http://www.w3.org/2000/svg">
<g clip-path="url(#clip0_255_999)">
<path d="M112.256 6.80078V19.8347L106.309 22.89L103.242 24.4668L88.4817 32.0535L84.5957 34.0502L80.7074 36.049L76.4461 38.2377L56.1269 48.681L35.7898 38.2288L31.4302 35.9887L27.8345 34.1395L23.8524 32.0937L9.01389 24.4668L5.94747 22.89L0 19.8347V6.80078L4.19204 9.19942L7.28303 10.966L56.1269 38.8988L104.975 10.966L108.064 9.19942L112.256 6.80078Z" fill="white"/>
<path d="M68.9061 45.4131L56.1267 66.4626L43.3496 45.4131L56.1267 51.9814L68.9061 45.4131Z" fill="#AFAFAF"/>
<path d="M102.217 71.7139L93.1138 146H63.0615L63.3407 145.203L64.3747 142.242L76.6181 107.18L63.5194 115.052L72.5355 85.8377L96.8547 74.2666V74.2644L99.9032 72.8127L102.217 71.7139Z" fill="white"/>
<path d="M49.2275 146H19.1752L10.0742 71.7139L12.3478 72.7948L15.3986 74.2465V74.2487L39.7557 85.8377L48.7696 115.052L35.6687 107.18L47.9142 142.242L48.9483 145.203L49.2275 146Z" fill="white"/>
<path d="M70.1857 83.6576L58.4962 121.531L71.2153 113.889L61.3148 142.241H50.9765L41.0737 113.889L53.7928 121.531L42.1033 83.6576L14.9477 70.7376V70.7353L13.6367 60.5132L24.0398 69.0246L51.2981 64.0419L56.1266 71.9972L60.9395 64.071L88.0504 69.0246L98.6389 60.3613L97.3033 70.7532L70.7641 83.3829L70.1857 83.6576Z" fill="#4E4E4E"/>
<path d="M67.8875 0L66.112 5.15462L65.0936 8.11608L63.3181 13.2707H49.1518L47.3763 8.11608L46.3556 5.15462L44.5801 0H67.8875Z" fill="white"/>
<path d="M102.789 28L99.1778 56.1517L87.294 65.878L62.584 61.3599L73.7866 42.9033L76.2969 41.6124C76.815 46.3025 80.2835 49.9406 84.4755 49.9406C89.0204 49.9406 92.7211 45.6593 92.7211 40.3974C92.7211 38.0301 91.9729 35.8615 90.7356 34.1931L102.785 28H102.789Z" fill="white"/>
<path d="M49.6548 61.3353L24.7974 65.878L13.099 56.3035L9.46973 28L21.5679 34.2199C20.3016 35.8972 19.5333 38.0926 19.5333 40.489C19.5333 45.7531 23.234 50.0322 27.7789 50.0322C31.9955 50.0322 35.484 46.3516 35.9664 41.6191L38.4678 42.9055L49.6548 61.3353Z" fill="white"/>
<path d="M57.4453 32.3974L80.7193 8.11621H68.1119L65.3157 16.2323H57.4453V32.3974Z" fill="#4E4E4E"/>
<path d="M84.0742 8.11621L59.8398 33.398L104.052 8.11621H84.0742Z" fill="#4E4E4E"/>
<path d="M28.2908 8.11621H8.20605L52.6524 33.5342L28.2908 8.11621Z" fill="#4E4E4E"/>
<path d="M54.9172 32.3974V16.2323H47.1563L44.3601 8.11621H31.6455L54.9172 32.3974Z" fill="#4E4E4E"/>
</g>
<defs>
<clipPath id="clip0_255_999">
<rect width="112.256" height="146" fill="white"/>
</clipPath>
</defs>
</svg>
