<svg width="146" height="146" viewBox="0 0 146 146" fill="none" xmlns="http://www.w3.org/2000/svg">
<g clip-path="url(#clip0_255_1028)">
<path d="M105.506 104.241C105.325 104.042 87.438 84.4825 78.5293 74.309L77.7 73.3686L52.2432 69.3242C54.1565 74.1144 54.4391 78.0476 54.453 78.2422L54.6986 82.0457L50.8905 81.9437C50.682 81.9391 50.4782 81.9298 50.2743 81.9206C49.8018 81.902 49.3339 81.8742 48.8753 81.8372C48.7224 83.1297 48.588 84.501 48.4954 85.9186V85.9371C48.4398 86.7988 48.3981 87.6744 48.3796 88.5593C48.1803 97.0649 49.8342 107.905 58.8634 111.25C71.2327 115.832 91.0005 116.17 96.5783 116.17C97.4076 116.17 97.9264 116.166 98.0562 116.161L99.6776 116.133L107.525 106.446L105.506 104.241ZM96.3374 109.217C90.806 109.198 72.2797 108.809 61.277 104.732C53.5404 101.864 54.9719 85.6592 56.6397 77.0609L74.1328 79.8358C81.4293 88.1284 93.581 101.48 98.3619 106.719L96.3374 109.217Z" fill="white"/>
<path d="M54.4531 78.2416C54.4392 78.0471 54.1566 74.1139 52.2433 69.3237C51.868 68.3879 51.4326 67.415 50.923 66.4329C47.9812 60.7856 42.0235 53.6651 30.3166 51.8074L26.7633 51.2422L26.3232 54.8094C26.2676 55.268 25.0168 66.1178 31.8547 74.0629C34.7131 77.38 38.4887 79.6639 43.1307 80.8916C44.9143 81.3641 46.8323 81.6791 48.8753 81.8366C49.3339 81.8737 49.8018 81.9015 50.2744 81.92C50.4782 81.9293 50.6821 81.9386 50.8905 81.9432L54.6986 82.0451L54.4531 78.2416ZM37.1545 69.5646C34.4676 66.4699 33.5503 62.546 33.2677 59.6598C42.0142 62.6479 45.4193 69.9167 46.7257 74.5725C42.6072 73.8313 39.3968 72.1543 37.1545 69.5646Z" fill="white"/>
<path d="M63.6211 84.8018L69.8428 85.7144C70.6536 85.8349 71.3624 86.3259 71.7561 87.044L74.9666 92.8719C74.9666 92.8719 70.635 92.4226 67.4338 91.8852C65.4742 91.5563 63.9963 89.9302 63.8527 87.952L63.6257 84.8018H63.6211Z" fill="white"/>
<path d="M80.0165 133.051C77.728 133.315 75.3977 133.454 73.0396 133.454L69.9635 114.09L69.5049 111.199L76.3706 110.105L77.1674 115.113L80.0165 133.051Z" fill="white"/>
<path d="M43.9916 86.5437C43.8388 87.8362 43.7044 89.2075 43.6118 90.6251V90.6437L28.9585 123.73C27.0776 122.128 25.2986 120.413 23.6309 118.597L38.2471 85.5986C40.0307 86.0712 41.9486 86.3862 43.9916 86.5437Z" fill="white"/>
<path d="M128.683 49.4586C121.715 56.1806 113.219 61.1562 103.782 63.9914C97.9172 65.7564 91.9271 66.632 85.9787 66.632C76.2685 66.632 66.6695 64.3018 57.8998 59.7061C45.3776 53.1462 35.862 42.6716 30.6826 29.8622C32.443 28.1342 34.31 26.5127 36.2697 25.0117C40.4484 36.8715 48.7317 46.6604 59.8641 52.8682C60.281 53.0999 60.698 53.3269 61.1242 53.5492C63.6583 54.8788 66.2711 55.9907 68.9442 56.8894C79.4651 60.4288 90.8616 60.6188 101.781 57.3342C110.866 54.6009 118.968 49.6392 125.408 42.894C126.631 45.0065 127.724 47.1978 128.683 49.4586Z" fill="white"/>
<path d="M60.5492 59.8635L59.1548 53.058L59.8543 56.4631L59.1455 53.0627C59.3077 53.0256 75.7306 49.3565 92.3018 30.2188L97.5553 34.7681C79.3302 55.8191 61.3136 59.7152 60.5539 59.8681L60.5492 59.8635Z" fill="white"/>
<path d="M142.526 72.9978C142.526 108.609 115.619 138.046 81.068 142.062C78.4366 142.363 75.7589 142.526 73.0441 142.526H72.9978C55.8382 142.526 40.1055 136.276 27.9678 125.927C25.8043 124.087 23.7566 122.114 21.8387 120.024C10.4376 107.646 3.47461 91.1163 3.47461 72.9978C3.47461 53.5867 11.466 36.0194 24.3357 23.3907C26.3602 21.4032 28.5052 19.5409 30.7613 17.8129C42.4728 8.8254 57.1215 3.47461 72.9978 3.47461C98.7418 3.47461 121.257 17.5349 133.269 38.3775C134.678 40.805 135.933 43.3252 137.036 45.9288C140.571 54.2492 142.526 63.4034 142.526 72.9978Z" stroke="white" stroke-width="6.94907" stroke-miterlimit="10"/>
</g>
<defs>
<clipPath id="clip0_255_1028">
<rect width="146" height="146" fill="white"/>
</clipPath>
</defs>
</svg>
