<svg width="111" height="146" viewBox="0 0 111 146" fill="none" xmlns="http://www.w3.org/2000/svg">
<g clip-path="url(#clip0_255_703)">
<path d="M110.804 60.682L107.319 40.1155L55.3972 20.2148L3.48427 40.1155L0 60.682H4.99998H14.7412C21.4232 60.682 26.8668 55.2445 26.8668 48.5493H20.0831C20.0831 51.49 17.6894 53.8943 14.7412 53.8943H8.03139L9.52861 45.063L55.3972 27.4742L101.275 45.063L102.772 53.8943H96.0624C93.1234 53.8943 90.7205 51.4992 90.7205 48.5493H83.9368C83.9368 55.2352 89.3711 60.682 96.0624 60.682H105.804H110.804Z" fill="white"/>
<path d="M52.0137 141.949L55.4333 146L58.7974 141.949V40.4482H52.0137V141.949Z" fill="white"/>
<path d="M33.3447 119.469L40.1284 127.644V46.1729L33.3447 48.5587V119.469Z" fill="white"/>
<path d="M70.6738 46.1729V127.644L77.4575 119.469V48.5587L70.6738 46.1729Z" fill="white"/>
<path d="M77.4573 15.73V8.45224L55.3964 0L33.3447 8.45224V15.7208L55.3964 7.26856L77.4573 15.73Z" fill="white"/>
</g>
<defs>
<clipPath id="clip0_255_703">
<rect width="110.804" height="146" fill="white"/>
</clipPath>
</defs>
</svg>
