<svg width="703" height="110" viewBox="0 0 703 110" fill="none" xmlns="http://www.w3.org/2000/svg">
<g clip-path="url(#clip0_255_1802)">
<path d="M102.043 1.81543H13.8398V29.3113H102.043V1.81543Z" fill="white"/>
<path d="M88.2033 41.3828H0V68.8786H88.2033V41.3828Z" fill="#C3C3C3"/>
<path d="M102.043 80.9512H13.8398V108.447H102.043V80.9512Z" fill="white"/>
<path d="M115.631 72.9944L146.944 71.0343C147.625 76.1126 149.002 79.9825 151.087 82.6441C154.477 86.9483 159.323 89.1032 165.618 89.1032C170.318 89.1032 173.937 88.0007 176.479 85.8012C179.022 83.6018 180.293 81.046 180.293 78.1449C180.293 75.2439 179.083 72.922 176.658 70.7448C174.232 68.5676 168.618 66.513 159.802 64.5752C145.366 61.3345 135.074 57.0303 128.924 51.657C122.723 46.2892 119.623 39.4459 119.623 31.1214C119.623 25.6534 121.207 20.4917 124.385 15.6307C127.557 10.7696 132.33 6.94981 138.698 4.16571C145.065 1.38717 153.797 -0.00488281 164.893 -0.00488281C178.503 -0.00488281 188.88 2.52308 196.028 7.57902C203.171 12.635 207.425 20.6754 208.78 31.7061L177.756 33.5213C176.931 28.7327 175.202 25.247 172.56 23.0753C169.917 20.8982 166.276 19.8124 161.625 19.8124C157.8 19.8124 154.918 20.6253 152.977 22.2457C151.037 23.866 150.072 25.8372 150.072 28.1591C150.072 29.8519 150.87 31.3776 152.47 32.7306C154.02 34.1338 157.7 35.4423 163.516 36.6506C177.901 39.7466 188.205 42.8815 194.433 46.0498C200.656 49.2181 205.189 53.1493 208.022 57.8377C210.854 62.5317 212.27 67.7769 212.27 73.5846C212.27 80.4056 210.38 86.6922 206.605 92.4497C202.825 98.2072 197.545 102.573 190.764 105.546C183.984 108.52 175.431 110.006 165.116 110.006C147 110.006 134.455 106.521 127.479 99.5547C120.504 92.5889 116.556 83.7354 115.636 72.9999L115.631 72.9944Z" fill="white"/>
<path d="M228.685 1.81543H283.395C295.31 1.81543 304.237 4.64408 310.17 10.3069C316.102 15.9643 319.069 24.0215 319.069 34.4674C319.069 44.9134 315.835 53.5998 309.367 59.6469C302.899 65.6939 293.03 68.7175 279.759 68.7175H261.738V108.191H228.68V1.81543H228.685ZM261.744 47.1629H269.807C276.152 47.1629 280.607 46.0604 283.177 43.861C285.742 41.6615 287.03 38.844 287.03 35.4084C287.03 31.9729 285.915 29.2389 283.69 26.9169C281.46 24.595 277.273 23.4368 271.123 23.4368H261.75V47.1629H261.744Z" fill="white"/>
<path d="M405.604 1.81543H438.446V65.1928C438.446 71.4793 437.464 77.4095 435.502 82.9944C433.539 88.5793 430.461 93.4626 426.274 97.6443C422.086 101.826 417.687 104.761 413.087 106.453C406.692 108.82 399.014 110.006 390.053 110.006C384.868 110.006 379.214 109.644 373.086 108.92C366.959 108.196 361.834 106.76 357.719 104.605C353.605 102.455 349.835 99.3983 346.423 95.4338C343.011 91.4692 340.669 87.3877 339.414 83.1781C337.379 76.4128 336.364 70.4158 336.364 65.1984V1.81543H369.206V66.7018C369.206 72.5039 370.817 77.0308 374.04 80.2938C377.263 83.5568 381.729 85.1883 387.444 85.1883C393.159 85.1883 397.553 83.579 400.776 80.3662C403.998 77.1533 405.604 72.5985 405.604 66.7018V1.81543Z" fill="white"/>
<path d="M456.907 1.81543H500.192L516.886 66.5403L533.457 1.81543H576.72V108.185H549.766V27.0673L528.996 108.191H504.597L483.866 27.0673V108.191H456.913V1.81543H456.907Z" fill="white"/>
<path d="M663.205 90.6284H625.836L620.645 108.191H587.04L627.069 1.81543H662.971L702.994 108.185H668.524L663.194 90.6228L663.205 90.6284ZM656.375 67.6261L644.616 29.3892L632.979 67.6261H656.369H656.375Z" fill="white"/>
</g>
<defs>
<clipPath id="clip0_255_1802">
<rect width="703" height="110" fill="white"/>
</clipPath>
</defs>
</svg>
