<svg width="148" height="146" viewBox="0 0 148 146" fill="none" xmlns="http://www.w3.org/2000/svg">
<g clip-path="url(#clip0_255_747)">
<path d="M28.9111 0.421875H130.679C139.704 0.421924 147.021 7.73909 147.021 16.7646V118.532C147.02 127.558 139.704 134.874 130.679 134.874H28.9111C19.8856 134.874 12.5684 127.558 12.5684 118.532V16.7646C12.5684 7.73906 19.8855 0.421875 28.9111 0.421875Z" stroke="white" stroke-width="0.844126"/>
<path fill-rule="evenodd" clip-rule="evenodd" d="M18.5626 105.026C19.9554 105.836 21.8885 107.331 24.3364 108.968C26.7844 110.606 29.7473 112.378 33.3095 113.889C36.8717 115.4 41.0333 116.65 44.6799 117.426C48.3349 118.194 51.4751 118.49 55.1724 118.465C58.8696 118.439 63.1156 118.093 66.8551 117.553C70.5945 117.013 73.8107 116.27 75.634 115.62C77.4488 114.97 77.8709 114.421 79.078 113.737C80.2851 113.054 82.2857 112.243 84.4044 111.374C86.5232 110.504 88.7517 109.584 90.1445 108.909C91.5457 108.234 92.1113 107.82 92.7022 107.406C93.2931 106.993 93.9177 106.596 94.9054 106.225C95.893 105.862 97.2436 105.524 99.7422 104.283C102.232 103.042 105.871 100.89 107.289 99.9022C108.707 98.9146 107.896 99.0834 106.276 99.6405C104.655 100.198 102.224 101.152 100.274 101.683C98.3241 102.215 96.8469 102.333 96.2644 102.308C95.682 102.283 95.9943 102.105 97.6403 101.498C99.2864 100.89 102.266 99.8347 105.28 98.425C108.293 97.0153 111.332 95.2426 113.442 93.7063C115.553 92.17 116.726 90.8701 117.182 90.2538C117.638 89.6376 117.384 89.7052 116.886 89.9837C116.388 90.2623 115.654 90.7519 115.266 91.0136C114.877 91.2837 114.835 91.3259 114.717 91.3765C114.599 91.4272 114.405 91.4778 114.97 91.0642C115.536 90.6506 116.853 89.7558 118.043 88.726C119.233 87.6877 120.297 86.5059 121.023 85.7209C121.749 84.9359 122.145 84.556 122.626 84.1424C123.108 83.7288 123.69 83.3067 124.213 82.9944C124.728 82.682 125.193 82.4963 125.353 82.4204C125.513 82.3444 125.387 82.3782 125.117 82.4288C124.846 82.4794 124.424 82.547 124.028 82.6736C123.631 82.8002 123.26 82.9859 123.175 82.9522C123.091 82.9268 123.285 82.6905 123.791 81.686C124.298 80.6815 125.125 78.9088 125.556 77.6257C125.986 76.3427 126.037 75.5407 126.079 74.9583C126.121 74.3758 126.172 74.0044 126.011 74.1479C125.859 74.2914 125.505 74.9498 125.083 75.5829C124.661 76.216 124.18 76.8238 123.774 77.2459C123.369 77.6679 123.04 77.9127 122.854 78.0393C122.66 78.166 122.61 78.1744 123.057 77.1277C123.504 76.0725 124.467 73.9622 125.041 72.5525C125.615 71.1513 125.809 70.4507 126.054 69.5812C126.298 68.7118 126.594 67.665 127.016 66.4242C127.438 65.1833 127.978 63.7314 128.442 62.4315C128.907 61.1231 129.287 59.9582 129.413 58.9537C129.548 57.9576 129.43 57.1219 129.219 56.3791C129.008 55.6278 128.713 54.9694 128.51 54.4798C128.307 53.9902 128.189 53.6779 128.079 54.0155C127.97 54.3616 127.86 55.3577 127.792 55.3746C127.725 55.3914 127.708 54.4291 127.733 53.7707C127.75 53.1123 127.818 52.7662 127.784 52.4201C127.75 52.0825 127.624 51.7448 127.522 51.5929C127.421 51.4409 127.354 51.4578 127.134 51.5422C126.923 51.6266 126.56 51.7701 126.222 51.8799C125.885 51.9896 125.572 52.074 125.336 52.1247C125.1 52.1753 124.939 52.2007 125.083 51.9727C125.226 51.7448 125.674 51.2552 126.206 50.8332C126.737 50.4111 127.345 50.0481 127.902 49.7274C128.459 49.4066 128.957 49.128 129.633 48.5794C130.308 48.0307 131.169 47.2119 131.751 45.8444C132.334 44.4769 132.646 42.5692 132.731 41.1933C132.815 39.8173 132.672 38.9816 132.57 38.4836C132.477 37.994 132.427 37.8421 132.072 38.6862C131.718 39.5303 131.059 41.3705 130.333 42.5861C129.616 43.81 128.839 44.4178 128.248 44.899C127.657 45.3886 127.252 45.7515 127.455 45.4308C127.657 45.11 128.485 44.1055 129.312 42.7802C130.148 41.4634 130.983 39.8258 131.878 38.0784C132.773 36.3311 133.727 34.4571 134.621 32.1864C135.525 29.9157 136.369 27.2314 136.867 24.5724C137.365 21.9134 137.5 19.2713 137.34 17.0681C137.179 14.865 136.706 13.1007 136.116 11.7586C135.525 10.408 134.816 9.471 134.191 9.03206C133.566 8.59311 133.035 8.6522 132.469 9.03206C131.903 9.40347 131.304 10.0957 131.017 10.7963C130.73 11.4969 130.755 12.2144 130.831 12.9235C130.907 13.6325 131.034 14.3332 131.27 14.8312C131.507 15.3292 131.853 15.6247 132.106 15.6753C132.359 15.726 132.528 15.5403 132.528 15.0591C132.528 14.5695 132.351 13.7845 132.292 13.0923C132.233 12.4001 132.292 11.8177 132.469 11.3703C132.655 10.9229 132.975 10.6275 133.279 10.5346C133.583 10.4502 133.862 10.5768 134.191 11.0073C134.52 11.4378 134.892 12.1722 135.153 13.2611C135.415 14.3501 135.567 15.7935 135.558 17.4564C135.558 19.1109 135.381 20.9764 135.027 22.7322C134.664 24.4796 134.115 26.1172 132.849 28.0502C131.583 29.9833 129.599 32.2202 127.489 33.8072C125.378 35.3941 123.133 36.3226 121.614 36.8544C120.094 37.3862 119.301 37.5129 118.769 37.6648C118.237 37.8167 117.967 37.9856 118.229 37.7914C118.49 37.5973 119.284 37.0402 120.17 36.1201C121.056 35.2 122.044 33.9169 122.745 32.6591C123.445 31.4014 123.867 30.1774 123.91 28.8859C123.952 27.6028 123.614 26.2607 123.167 25.2646C122.719 24.2685 122.162 23.6101 121.588 23.2556C121.014 22.901 120.432 22.842 119.925 22.9939C119.419 23.1458 118.98 23.5004 118.811 23.703C118.642 23.9056 118.743 23.9478 119.005 23.9056C119.267 23.8633 119.68 23.7367 120.119 23.7367C120.558 23.7367 121.031 23.838 121.411 24.0575C121.799 24.277 122.095 24.6062 122.306 25.0282C122.517 25.4503 122.635 25.9737 122.652 26.5392C122.669 27.1048 122.593 27.7126 122.162 28.5989C121.74 29.4768 120.964 30.6332 119.807 31.891C118.651 33.1487 117.097 34.5162 115.072 35.774C113.046 37.0402 110.53 38.1966 107.863 39.1505C105.195 40.1043 102.384 40.8556 99.8013 41.666C97.2183 42.4848 94.8716 43.3711 93.0483 44.173C91.225 44.9749 89.9335 45.6924 88.988 46.2833C88.0426 46.8742 87.4517 47.3469 86.6076 48.1911C85.7635 49.0352 84.6577 50.2507 83.8389 51.5507C83.0201 52.8422 82.4883 54.2181 82.1759 55.1044C81.8636 55.9908 81.7792 56.396 81.6948 56.607C81.6104 56.8265 81.526 56.8602 81.2474 56.97C80.9688 57.0797 80.4961 57.2823 79.7702 57.8816C79.0442 58.4809 78.0651 59.4855 76.7735 60.8276C75.482 62.1698 73.8951 63.8411 72.2237 65.9599C70.5608 68.0871 68.8219 70.6617 67.7076 72.3415C66.5934 74.0297 66.0954 74.8232 65.6733 75.5661C65.2512 76.3089 64.8967 77.0011 64.9473 76.6887C64.998 76.3764 65.4454 75.068 65.8843 73.92C66.3233 72.772 66.7538 71.7759 67.0914 71.0078C67.4291 70.2396 67.6654 69.6909 67.8427 69.3195C68.02 68.9481 68.1297 68.7455 67.9524 68.6695C67.7752 68.602 67.3109 68.6695 66.7031 69.0578C66.0953 69.4461 65.3356 70.1637 64.1285 71.472C62.9214 72.7804 61.2585 74.6882 60.1443 76.2751C59.03 77.8621 58.4645 79.1367 58.0508 80.0062C57.6288 80.8672 57.3586 81.3146 57.2489 81.247C57.1392 81.1795 57.1898 80.5886 57.2742 79.8542C57.3586 79.1198 57.4684 78.2419 57.6625 77.2881C57.8567 76.3342 58.1268 75.3128 58.4645 74.418C58.8021 73.5233 59.2157 72.7636 59.7306 72.1305C60.254 71.4974 60.8871 70.9993 61.5033 70.6279C62.1195 70.2565 62.7188 70.0286 63.1409 69.902C63.5545 69.7753 63.7909 69.7585 63.8584 69.7078C63.9259 69.6572 63.8415 69.5896 63.5461 69.4715C63.2506 69.3617 62.7442 69.2098 62.2715 69.1676C61.7987 69.1254 61.3514 69.1929 60.7858 69.328C60.2118 69.463 59.5196 69.6572 58.5826 70.1805C57.6457 70.7039 56.4723 71.5649 55.5775 72.2486C54.6828 72.9324 54.0581 73.4389 53.4588 74.2661C52.8595 75.0933 52.277 76.2498 51.6524 77.44C51.0361 78.6302 50.3777 79.8711 49.7362 81.6775C49.0947 83.4924 48.47 85.8813 48.0395 87.3078C47.6174 88.7344 47.3895 89.1902 47.1363 89.6798C46.883 90.1779 46.596 90.7097 46.5032 90.8954C46.4103 91.0895 46.5116 90.9291 46.6467 90.5155C46.7817 90.0935 46.9421 89.4097 47.0519 88.6078C47.1532 87.8059 47.1954 86.8858 47.2123 86.1261C47.2291 85.3579 47.2123 84.7417 47.1785 84.1761C47.1447 83.6106 47.1025 83.0957 47.1025 82.5639C47.1025 82.0405 47.1532 81.5003 47.1785 81.1542C47.2038 80.8165 47.2123 80.6646 47.1278 81.0275C47.0434 81.3905 46.8662 82.26 46.6636 82.9437C46.4694 83.6359 46.25 84.1424 46.0474 84.6488C45.8363 85.1553 45.6422 85.6534 45.4734 86.0923C45.3045 86.5312 45.161 86.9111 44.9669 87.3332C44.7643 87.7552 44.5111 88.2279 44.3169 88.6331C44.1312 89.0383 44.013 89.3928 44.0974 89.0214C44.1903 88.6584 44.4857 87.578 44.6714 86.4384C44.8571 85.2904 44.9331 84.0748 44.9753 83.0366C45.0175 81.9983 45.0344 81.1288 44.9416 80.2003C44.8487 79.2718 44.6546 78.2841 44.4351 77.5075C44.2156 76.7225 43.9624 76.1485 43.65 75.507C43.3377 74.8654 42.9663 74.1648 42.8228 73.92C42.6793 73.6752 42.7553 73.8947 42.9494 74.3505C43.1351 74.8063 43.439 75.4985 43.7345 76.655C44.0299 77.8114 44.3169 79.4322 44.4182 81.0529C44.5195 82.6736 44.4266 84.3028 44.2072 85.5858C43.9793 86.8689 43.6247 87.8059 43.3462 88.5487C43.0676 89.2915 42.865 89.8318 42.6287 90.4564C42.3923 91.0811 42.1053 91.7733 41.9449 92.0012C41.7761 92.2291 41.7254 92.0012 41.8267 91.0642C41.928 90.1357 42.1728 88.5149 42.2319 86.8942C42.291 85.2735 42.1644 83.6612 41.9196 82.3444C41.6748 81.0275 41.3203 80.0062 40.932 79.1958C40.5437 78.3854 40.1132 77.7861 39.784 77.3387C39.4547 76.8913 39.2268 76.6043 39.3788 76.9082C39.5307 77.2121 40.0541 78.1069 40.5183 79.3731C40.9911 80.6393 41.4131 82.2853 41.4975 84.1171C41.5819 85.9488 41.3371 87.9663 40.8729 89.5785C40.417 91.1908 39.7417 92.3895 39.1171 93.1998C38.4924 94.0186 37.91 94.4492 37.5217 94.6602C37.1334 94.8712 36.9308 94.8712 36.8633 94.7868C36.7957 94.7024 36.8633 94.5251 37.1418 93.8751C37.4204 93.2252 37.9184 92.0856 38.197 91.0895C38.4756 90.085 38.5346 89.224 38.3658 88.4727C38.2054 87.7215 37.8171 87.0884 37.4964 86.6241C37.1756 86.1598 36.9224 85.8644 36.7451 86.1092C36.5763 86.3624 36.4834 87.1559 36.3146 88.0929C36.1458 89.0299 35.8925 90.1019 35.1413 91.3681C34.3984 92.6343 33.1576 94.0862 31.5622 95.5212C29.9752 96.9562 28.0337 98.3659 26.0753 99.5899C24.117 100.814 22.1417 101.861 20.6983 102.519C19.2548 103.177 18.3516 103.448 17.575 103.616C16.7984 103.785 16.1484 103.836 16.2413 103.929C16.3426 104.022 17.1867 104.148 18.5711 104.959" fill="white"/>
<path fill-rule="evenodd" clip-rule="evenodd" d="M3.3086 116.768C3.7391 115.949 4.4144 114.581 5.25853 113.256C6.11109 111.931 7.14093 110.639 8.20452 109.576C9.26812 108.512 10.3739 107.685 11.6992 107.001C13.0245 106.317 14.5608 105.794 16.2828 105.364C18.0048 104.933 19.9041 104.612 21.5755 104.443C23.2468 104.275 24.6903 104.258 26.4967 104.283C28.2947 104.308 30.4557 104.384 33.3173 104.325C36.1789 104.266 39.7495 104.089 42.9994 103.853C46.2493 103.616 49.1784 103.321 52.5802 102.89C55.9905 102.46 59.8735 101.894 63.4104 101.236C66.9472 100.577 70.138 99.8092 74.1476 98.332C78.1572 96.8464 82.9856 94.6432 86.4297 92.7523C89.8821 90.8615 91.9587 89.2914 93.8326 87.4934C95.7066 85.7039 97.3949 83.6864 98.6442 81.9475C99.8935 80.2086 100.712 78.7483 101.295 77.5581C101.877 76.3679 102.223 75.4647 102.189 74.7725C102.147 74.0803 101.725 73.6076 101.472 73.6245C101.219 73.6413 101.134 74.1394 100.906 74.8907C100.678 75.6419 100.299 76.6464 99.7415 77.7522C99.1928 78.858 98.4753 80.0736 97.1332 81.6268C95.791 83.18 93.8326 85.0792 91.7899 86.7422C89.7471 88.4051 87.6283 89.8232 85.4927 91.0641C83.357 92.3134 81.2214 93.377 78.9001 94.4659C76.5787 95.5548 74.0801 96.6522 70.1549 97.8593C66.2297 99.0749 60.878 100.392 56.7249 101.151C52.5718 101.911 49.6173 102.097 46.4181 102.299C43.2189 102.502 39.7917 102.73 35.7906 102.848C31.7894 102.975 27.2142 103 24.1838 103.076C21.145 103.152 19.6424 103.287 18.1736 103.523C16.6964 103.76 15.253 104.106 13.8602 104.638C12.4674 105.169 11.1252 105.879 9.86745 106.782C8.60126 107.685 7.41949 108.791 6.50783 109.846C5.59618 110.893 4.97152 111.897 4.4144 112.927C3.85728 113.957 3.36768 115.029 3.03003 115.839C2.70082 116.65 2.52356 117.207 2.45603 117.544C2.3885 117.882 2.43915 118.009 2.55732 117.933C2.6755 117.857 2.87809 117.578 3.3086 116.759" fill="white"/>
<mask id="mask0_255_747" style="mask-type:luminance" maskUnits="userSpaceOnUse" x="2" y="73" width="101" height="45">
<path d="M3.3086 116.768C3.7391 115.949 4.4144 114.581 5.25853 113.256C6.11109 111.931 7.14093 110.639 8.20452 109.576C9.26812 108.512 10.3739 107.685 11.6992 107.001C13.0245 106.317 14.5608 105.794 16.2828 105.364C18.0048 104.933 19.9041 104.612 21.5755 104.443C23.2468 104.275 24.6903 104.258 26.4967 104.283C28.2947 104.308 30.4557 104.384 33.3173 104.325C36.1789 104.266 39.7495 104.089 42.9994 103.853C46.2493 103.616 49.1784 103.321 52.5802 102.89C55.9905 102.46 59.8735 101.894 63.4104 101.236C66.9472 100.577 70.138 99.8092 74.1476 98.332C78.1572 96.8464 82.9856 94.6432 86.4297 92.7523C89.8821 90.8615 91.9587 89.2914 93.8326 87.4934C95.7066 85.7039 97.3949 83.6864 98.6442 81.9475C99.8935 80.2086 100.712 78.7483 101.295 77.5581C101.877 76.3679 102.223 75.4647 102.189 74.7725C102.147 74.0803 101.725 73.6076 101.472 73.6245C101.219 73.6413 101.134 74.1394 100.906 74.8907C100.678 75.6419 100.299 76.6464 99.7415 77.7522C99.1928 78.858 98.4753 80.0736 97.1332 81.6268C95.791 83.18 93.8326 85.0792 91.7899 86.7422C89.7471 88.4051 87.6283 89.8232 85.4927 91.0641C83.357 92.3134 81.2214 93.377 78.9001 94.4659C76.5787 95.5548 74.0801 96.6522 70.1549 97.8593C66.2297 99.0749 60.878 100.392 56.7249 101.151C52.5718 101.911 49.6173 102.097 46.4181 102.299C43.2189 102.502 39.7917 102.73 35.7906 102.848C31.7894 102.975 27.2142 103 24.1838 103.076C21.145 103.152 19.6424 103.287 18.1736 103.523C16.6964 103.76 15.253 104.106 13.8602 104.638C12.4674 105.169 11.1252 105.879 9.86745 106.782C8.60126 107.685 7.41949 108.791 6.50783 109.846C5.59618 110.893 4.97152 111.897 4.4144 112.927C3.85728 113.957 3.36768 115.029 3.03003 115.839C2.70082 116.65 2.52356 117.207 2.45603 117.544C2.3885 117.882 2.43915 118.009 2.55732 117.933C2.6755 117.857 2.87809 117.578 3.3086 116.759" fill="white"/>
</mask>
<g mask="url(#mask0_255_747)">
<path d="M29.0801 145.999L105.246 77.3045L76.1655 46.7725L0 115.459L29.0801 145.999Z" fill="black"/>
</g>
<path fill-rule="evenodd" clip-rule="evenodd" d="M92.3465 67.4458C91.916 68.6191 91.2407 70.5269 90.903 72.2742C90.5654 74.0215 90.5654 75.6169 90.7427 76.976C90.9284 78.335 91.2998 79.4662 91.7387 80.5804C92.1777 81.6946 92.6757 82.7836 93.3595 83.7459C94.0432 84.6997 94.9126 85.527 95.7399 86.177C96.5671 86.8269 97.3522 87.3165 98.3314 87.7048C99.3105 88.0931 100.475 88.3886 101.632 88.5067C102.788 88.6249 103.928 88.5743 105.143 88.2873C106.351 88.0003 107.625 87.4854 108.874 86.6834C110.124 85.8815 111.348 84.7841 112.572 83.2056C113.804 81.6187 115.037 79.5421 115.813 77.4656C116.598 75.389 116.927 73.304 116.919 71.3541C116.911 69.4042 116.556 67.5893 115.822 65.9179C115.087 64.2466 113.981 62.7187 112.681 61.3259C111.39 59.9331 109.904 58.6753 108.461 57.9494C107.017 57.2234 105.599 57.0208 104.325 57.0884C103.05 57.1643 101.919 57.5189 100.83 58.0507C99.741 58.5825 98.6943 59.3 97.6561 60.161C96.6178 61.022 95.5964 62.0265 94.8451 62.9213C94.0938 63.8161 93.6127 64.6011 93.275 65.2173C92.9374 65.8335 92.7517 66.2809 92.3212 67.4542" fill="black"/>
<path fill-rule="evenodd" clip-rule="evenodd" d="M104.122 69.3117C103.363 68.7546 102.704 68.4592 102.02 68.3072C101.337 68.1468 100.628 68.1215 99.7413 68.3663C98.855 68.6027 97.783 69.1092 96.8966 69.7845C96.0103 70.4598 95.3097 71.3039 94.8707 71.8863C94.4402 72.4772 94.2799 72.8064 94.0688 73.3551C93.8578 73.9038 93.6046 74.6551 93.4357 75.4907C93.2753 76.3264 93.1994 77.2296 93.2922 78.251C93.3766 79.2724 93.6214 80.4036 94.0266 81.349C94.4402 82.2944 95.0142 83.0372 95.7908 83.7801C96.5674 84.5229 97.5382 85.2657 98.6524 85.7216C99.7667 86.1689 101.008 86.3293 102.274 86.0339C103.54 85.7384 104.815 84.9872 105.912 83.8645C107.009 82.7418 107.921 81.2561 108.394 79.7283C108.866 78.2004 108.892 76.6388 108.512 75.2713C108.14 73.8953 107.364 72.7136 106.553 71.7091C105.743 70.7045 104.882 69.8689 104.131 69.3117H104.122Z" fill="white"/>
<path fill-rule="evenodd" clip-rule="evenodd" d="M96.4254 79.8378C96.7546 80.4962 97.1851 81.0787 97.7169 81.5514C98.2487 82.0241 98.8734 82.404 99.4896 82.5981C100.106 82.8007 100.705 82.826 101.271 82.7585C101.836 82.691 102.36 82.5306 102.875 82.0747C104.428 80.6904 104.824 79.1034 103.752 76.5373C103.491 75.9042 103.17 75.3893 102.723 74.8659C102.267 74.3426 101.676 73.8192 101.119 73.49C100.562 73.1523 100.03 73.0088 99.4811 72.9751C98.9325 72.9329 98.35 73.0004 97.8435 73.1777C97.3371 73.3549 96.8981 73.6504 96.5436 74.0218C96.1975 74.3848 95.9358 74.8237 95.7839 75.2036C95.6319 75.575 95.5813 75.8873 95.556 76.1912C95.4462 77.3308 95.8261 78.6476 96.4254 79.8462" fill="#EA1919"/>
</g>
<defs>
<clipPath id="clip0_255_747">
<rect width="147.443" height="146" fill="white"/>
</clipPath>
</defs>
</svg>
