<svg width="103" height="146" viewBox="0 0 103 146" fill="none" xmlns="http://www.w3.org/2000/svg">
<g clip-path="url(#clip0_255_716)">
<path d="M102.362 113.698C94.1916 136.078 65.8602 146.325 44.5492 136.221C32.1395 130.483 24.6305 118.529 23.3679 105.059C22.8795 100.404 23.1187 95.8688 23.7268 91.3036C23.7866 90.8484 24.1321 88.8914 24.2019 88.4129C24.4909 86.9377 24.8332 85.3363 25.2119 83.7979C25.398 83.047 25.9994 82.4755 26.7569 82.3227L36.1797 80.4288C37.007 80.2627 37.8476 80.6348 38.2829 81.3558L43.3864 89.8084C43.712 90.3467 43.7684 91.0112 43.5259 91.5926C40.7549 98.2477 39.2365 105.401 40.6452 112.299C44.0409 128.456 62.9529 134.696 77.6752 131.324C87.799 129.214 96.9028 122.722 102.209 113.628L102.362 113.701V113.698Z" fill="white"/>
<path d="M88.138 135.567C79.3997 141.628 69.0233 145.462 58.3047 145.944C27.6641 147.322 5.16367 123.051 7.70211 92.6463C7.82172 90.8821 8.01775 89.1277 8.27691 87.3834C8.40317 86.5494 9.03445 85.8816 9.86177 85.7155L15.1878 84.6456C16.6298 84.3565 17.8858 85.6756 17.5136 87.0977C13.1843 103.76 16.1713 121.436 30.2856 133.155C46.4199 146.691 70.4819 146.066 88.0616 135.448L88.138 135.567Z" fill="white"/>
<path d="M80.1528 6.46218L71.9394 65.5074L57.4032 57.0515C56.4895 56.5199 55.9479 55.5198 56.0011 54.4665L57.1441 32.006C57.2005 30.873 56.556 29.8165 55.5193 29.3513L48.0303 26.0055L70.3911 1.83385C74.1556 -2.23296 80.917 0.969988 80.1528 6.46218Z" fill="white"/>
<path d="M57.401 57.0519C56.4873 56.5203 55.9457 55.5202 55.9989 54.4669L57.1419 32.0064C57.1983 30.8734 56.5538 29.8168 55.5171 29.3517L48.0281 26.0059L0.711466 77.1434C-1.02956 79.0207 0.658305 82.0242 3.16684 81.5192L40.23 74.0734L61.1821 108.784C62.4646 110.911 65.7107 110.246 66.053 107.784L71.9339 65.5045L57.3977 57.0486L57.401 57.0519ZM48.9318 57.3077C48.8853 57.6466 48.4367 57.7396 48.2573 57.4473L45.3601 52.6495L40.24 53.6795C39.8911 53.7492 39.6585 53.3339 39.9011 53.0748L50.4336 41.6917C50.6761 41.4292 51.1081 41.6352 51.0616 41.9907L48.9318 57.311V57.3077Z" fill="#C4C4C4"/>
<path d="M41.5148 86.7051L50.1236 101.148C50.2299 101.328 50.0007 101.514 49.8478 101.374L39.8037 94.9185L41.5148 86.7051Z" fill="white"/>
</g>
<defs>
<clipPath id="clip0_255_716">
<rect width="102.361" height="146" fill="white"/>
</clipPath>
</defs>
</svg>
