<svg width="138" height="146" viewBox="0 0 138 146" fill="none" xmlns="http://www.w3.org/2000/svg">
<g clip-path="url(#clip0_255_1819)">
<path d="M137.665 119.738C136.622 115.538 135.562 111.257 134.479 106.886C132.918 100.596 131.54 93.7465 129.16 88.1042C128.424 86.3667 127.605 84.3642 126.622 83.1509C125.573 81.8552 124.325 81.013 123.111 80.2355C125.444 79.1106 127.217 77.7501 128.477 76.1598C130.397 73.7333 131.864 70.6294 132.906 66.8482C133.925 63.1377 134.431 58.7027 134.431 53.4727C134.431 47.4769 133.772 42.188 132.429 37.4998C131.057 32.6997 129.19 28.9597 126.787 26.2917C124.278 23.4999 120.461 20.8967 115.06 18.4112L75.1162 0V17.8517C75.1162 24.2774 78.6736 30.5028 82.8612 31.6866L113.912 40.5153C117.21 41.4518 119.89 46.994 119.902 53.0192C119.902 56.0465 119.283 58.6851 118.252 60.5344C117.216 62.4015 115.749 63.4911 114.094 63.3144L75.1162 59.1621V146.006L95.7302 137.483C99.0932 136.088 101.714 130.628 101.714 125.227V85.2005L103.652 85.0886C106.608 84.9119 109.006 87.1029 110.613 90.9901C111.809 93.882 112.704 97.2155 113.653 100.284C115.602 106.58 117.463 112.729 119.277 118.695C120.591 123.007 125.326 125.245 129.484 123.525L137.753 120.103C137.724 119.985 137.694 119.867 137.665 119.755V119.738Z" fill="white"/>
<path d="M41.6402 8.98181C37.5763 10.8606 34.9731 14.9304 34.9731 19.4125V61.8891C32.1696 62.3308 14.2413 65.1402 14.2413 65.1402V21.6565L0 28.2412V120.421L14.2413 126.305V99.1827C14.2413 94.577 16.1378 90.9548 18.5585 91.0961L34.9672 92.062V128.013C34.9672 132.159 37.4644 135.899 41.2986 137.483L61.5651 146.006V0L41.6285 8.98181H41.6402Z" fill="white"/>
</g>
<defs>
<clipPath id="clip0_255_1819">
<rect width="137.76" height="146" fill="white"/>
</clipPath>
</defs>
</svg>
