<svg width="70" height="146" viewBox="0 0 70 146" fill="none" xmlns="http://www.w3.org/2000/svg">
<g clip-path="url(#clip0_255_1782)">
<path d="M13.701 24.3076V75.4002L0 85.5586V34.466L13.701 24.3076Z" fill="white"/>
<path d="M46.4869 0V17.3458L36.9442 24.4217V58.1686L23.2432 68.3269V17.2322L36.9442 7.07592L46.4869 0Z" fill="white"/>
<path d="M13.701 105.049V118.5L23.2438 111.424L36.9448 101.265L46.4876 94.1917V111.535L36.9448 118.611L23.2438 128.768L13.701 135.843L0 146V97.859L13.701 87.7007L23.2438 80.6269L36.9448 70.4685L46.4876 63.3926V80.7405L36.9448 87.8143L23.2438 97.9726L13.701 105.049Z" fill="white"/>
<path d="M46.4873 0V17.3458L56.03 24.4217V58.1686L69.7311 68.3269V17.2322L56.03 7.07592L46.4873 0Z" fill="#9F9F9F"/>
<path d="M69.729 80.6247V97.9705L56.03 87.8143L46.4873 80.7405V63.3926L56.03 70.4685L69.729 80.6247Z" fill="#9F9F9F"/>
<path d="M69.729 111.422V128.766L56.03 118.612L46.4873 111.536V94.1924L56.03 101.266L69.729 111.422Z" fill="#9F9F9F"/>
</g>
<defs>
<clipPath id="clip0_255_1782">
<rect width="69.7313" height="146" fill="white"/>
</clipPath>
</defs>
</svg>
