<svg width="153" height="146" viewBox="0 0 153 146" fill="none" xmlns="http://www.w3.org/2000/svg">
<g clip-path="url(#clip0_255_679)">
<path d="M42.4582 85.6284C39.3316 84.5547 36.5303 83.0809 34.0479 81.2134C30.2934 78.4024 27.1115 74.3746 24.4924 69.1332C20.6436 61.429 19.7619 54.7691 21.8474 49.1796C23.9459 43.5869 28.7838 38.8954 36.3872 35.0986C41.6285 32.4795 46.769 31.1098 51.7989 31.0122C56.0285 30.9178 60.6744 31.8158 65.7206 33.6996L67.0903 30.6315C59.6723 22.8947 52.1373 17.8226 44.4981 15.389C35.9805 12.6853 27.6093 13.3946 19.3747 17.5102C10.9124 21.7365 5.46934 27.8986 3.03573 36.0128C0.582608 44.1205 1.75386 52.9407 6.51371 62.4636C10.5773 70.5973 16.0041 76.6911 22.7583 80.7351C28.068 83.9073 34.2659 86.3637 41.3487 88.0945L42.4549 85.6316L42.4582 85.6284Z" fill="#BEBEBE" stroke="#BEBEBE" stroke-width="3.57883" stroke-miterlimit="10"/>
<path d="M77.3746 143.635C67.3148 145.457 59.2592 144.936 53.2175 142.07C47.1627 139.207 42.4029 134.294 38.9282 127.335C35.8243 121.121 34.5067 115.199 34.9557 109.561C35.4111 103.903 37.334 97.2302 40.7078 89.5162L41.352 88.0879L42.4582 85.625L65.7206 33.6962L67.0903 30.6282L68.9741 26.4377C71.4435 20.9263 74.0202 16.3877 76.7239 12.8284C79.4275 9.26905 82.9315 6.42875 87.2131 4.28796C92.4544 1.66891 97.8585 0.767696 103.422 1.60384C108.985 2.43999 114.21 4.84756 119.071 8.82657C123.938 12.8186 128.041 18.1218 131.36 24.7654C133.448 28.9461 135.013 33.2472 136.077 37.6524C137.148 42.0739 137.899 47.1103 138.332 52.7811L112.795 65.5413L111.598 63.1402C121.014 56.0216 126.824 49.2999 129.024 42.9914C131.216 36.6731 130.865 30.6282 127.976 24.8467C125.302 19.4915 121.739 16.251 117.314 15.1318C112.87 14.0061 108.234 14.6503 103.422 17.0546C99.5698 18.9807 96.4237 21.7169 93.9868 25.2729C91.5565 28.8387 88.3388 34.8186 84.3793 43.2191L63.3586 90.4467L93.2027 95.405C97.2631 96.0427 99.1696 94.9658 98.8996 92.1483C98.6361 89.3438 97.6698 86.2757 96.0105 82.9539L98.5873 81.6655L114.393 113.302L111.816 114.591C110.319 111.598 108.182 108.451 105.397 105.156C102.612 101.86 99.2249 99.8135 95.2069 99.0098L62.2003 93.0592L57.1574 104.385C53.8779 111.5 51.8575 116.959 51.0864 120.756C50.3023 124.556 50.94 128.483 52.9702 132.55C54.8995 136.415 57.678 138.972 61.3219 140.231C64.9528 141.494 70.1486 141.63 76.8865 140.677L77.3713 143.638L77.3746 143.635Z" fill="white" stroke="white" stroke-width="2.60279" stroke-miterlimit="10"/>
<path d="M133.659 107.101C131.463 105.058 130.363 102.348 130.363 98.974C130.363 95.8051 131.46 93.1991 133.659 91.1559C135.855 89.1127 138.49 88.0879 141.555 88.0879C144.62 88.0879 147.073 89.1095 149.22 91.1559C151.368 93.2024 152.441 95.8084 152.441 98.974C152.441 102.348 151.368 105.058 149.22 107.101C147.073 109.144 144.516 110.169 141.555 110.169C138.595 110.169 135.855 109.148 133.659 107.101Z" fill="#BEBEBE"/>
</g>
<defs>
<clipPath id="clip0_255_679">
<rect width="152.445" height="146" fill="white"/>
</clipPath>
</defs>
</svg>
