<svg width="460" height="146" viewBox="0 0 460 146" fill="none" xmlns="http://www.w3.org/2000/svg">
<g clip-path="url(#clip0_255_1013)">
<path d="M457.577 101.949C455.844 98.2461 453.306 95.0768 450.04 92.5354C446.538 89.8093 442.388 88.1609 437.994 87.7412C440.737 85.0957 443.14 82.2186 445.182 79.1366C448.613 73.9564 451.057 68.3565 452.44 62.4981C453.86 56.502 454.105 50.2911 453.169 44.0433C452.259 37.9667 450.214 31.9538 447.105 26.1794C443.402 19.2802 438.474 14.0093 432.458 10.5044C426.771 7.19413 420.563 5.34429 414.01 5.00185C408.01 4.68962 401.93 5.50208 395.944 7.42242C390.176 9.27227 384.778 12.0051 379.9 15.5436C378.181 16.7724 376.133 18.3133 373.642 20.2572C370.419 22.7751 367.569 25.6288 365.175 28.7409C363.533 30.8762 362.204 33.1389 361.173 35.5024C360.77 35.0291 360.351 34.5691 359.904 34.1226C356.779 31.0004 352.975 28.8786 348.587 27.8143C344.229 26.7635 339.694 26.9616 335.111 28.4086C334.99 28.4455 334.869 28.4858 334.752 28.5294C331.502 29.6541 328.571 31.2925 325.976 33.4243C325.892 29.6743 325.768 25.7329 325.61 21.6236C325.61 21.5665 325.607 21.5094 325.603 21.4524C325.335 16.1479 323.669 11.6089 320.634 7.92601C317.734 4.42776 313.964 1.97025 309.707 0.818715C306.336 -0.0877423 302.757 -0.245533 299.044 0.352057C295.495 0.926147 292.165 2.15826 289.137 4.02153C285.988 5.96202 283.345 8.48667 281.288 11.5183C278.766 15.2247 277.433 19.5454 277.433 24.0139V35.4991C274.979 34.4348 272.478 33.6325 269.94 33.1087C265.025 32.0915 260.093 31.9706 255.279 32.7428C250.814 33.4612 246.399 34.8612 242.155 36.9024C241.041 37.4396 239.936 38.0137 238.842 38.6213C237.704 38.1715 236.529 37.7719 235.323 37.4194C228.596 35.4655 221.928 36.1907 216.043 39.5144C215.972 39.5546 215.898 39.5949 215.828 39.6386C212.729 41.4616 210.191 43.7243 208.237 46.3934C205.014 43.11 201.311 40.4645 197.188 38.5408C191.048 35.6435 184.085 34.3744 176.478 34.7773C169.78 35.1331 163.146 36.5365 156.757 38.9503C150.388 41.3608 144.496 44.6677 139.246 48.7837C135.17 51.9798 131.813 55.5284 129.184 59.3658C127.626 55.9615 125.612 52.7352 123.151 49.7338C119.905 45.7756 116.081 42.3982 111.777 39.6856C107.453 36.9662 102.719 34.9821 97.7031 33.7869C92.3785 32.5212 86.9969 32.3097 81.6991 33.1624C81.5883 33.1792 81.4809 33.1994 81.3701 33.2195C76.4316 34.136 71.8087 36.0631 67.6289 38.947C63.3115 36.5633 58.7154 34.9015 53.8742 33.985C47.4955 32.7764 41.11 33.0651 34.795 34.831C33.6737 34.2871 32.502 33.8339 31.29 33.4747C26.6335 32.0948 21.9636 32.0512 17.3977 33.3538C12.8587 34.6531 8.94419 37.1206 5.76152 40.686C2.05848 44.839 0.101202 50.0998 0.101202 55.9011C0.101202 69.3368 0.0743438 81.7452 0.0172705 92.7771C-0.0398027 103.906 0.0441285 113.988 0.275779 122.801C0.604789 133.537 6.21139 139.087 9.52164 141.44C13.6981 144.412 18.4653 145.946 23.4441 145.946C24.3439 145.946 25.2503 145.895 26.1602 145.795C31.6795 145.18 36.8564 142.726 41.1436 138.677C42.5939 137.304 44.1617 135.468 45.4845 133.098C48.0024 138.691 52.2023 141.534 54.9486 142.871C59.9207 145.288 65.4534 145.879 70.9694 144.569C75.9414 143.381 80.4032 140.782 84.2406 136.834C85.3115 135.733 86.2616 134.555 87.0909 133.309C88.051 134.941 89.1052 136.274 90.0989 137.335C93.9396 141.43 98.8379 144.012 104.253 144.804C109.511 145.573 114.835 144.61 119.646 142.018C123.336 140.034 128.304 136.012 131.034 128.132C131.138 127.837 131.229 127.538 131.313 127.236C131.42 126.836 131.507 126.43 131.598 126.024C135.378 130.791 139.538 134.679 143.993 137.603C149.317 141.098 155.142 143.438 161.31 144.563C164.287 145.103 167.369 145.372 170.532 145.372C173.694 145.372 176.729 145.12 179.922 144.613C185.717 143.69 191.844 142.051 198.135 139.748C200.965 138.751 203.994 137.418 207.133 135.78C208.982 134.813 210.685 133.725 212.246 132.53C213.186 134.447 214.384 136.227 215.841 137.831C219.444 141.813 224.036 144.469 229.143 145.519C230.727 145.842 232.332 146.003 233.934 146.003C237.472 146.003 241.014 145.217 244.368 143.673C249.797 141.168 253.902 136.75 256.249 130.885C257.612 127.632 258.304 124.204 258.304 120.696V83.4674C258.828 82.9605 259.381 82.4771 259.956 82.0138C263.128 84.3235 266.579 85.8142 270.259 86.4554C272.69 86.8818 275.093 86.9321 277.43 86.6468V120.189C277.43 129.019 281.17 134.608 284.306 137.741C288.626 142.065 294.035 144.496 299.954 144.774C300.32 144.791 300.682 144.798 301.048 144.798C306.232 144.798 311.308 143.102 315.79 139.859C315.797 139.856 315.8 139.852 315.807 139.849C318.855 137.637 322.649 133.692 324.757 127.001C325.973 128.508 327.242 129.989 328.537 131.419C330.569 133.665 332.757 135.78 335.03 137.697C338.307 140.463 341.886 142.431 345.663 143.545C345.733 143.566 345.807 143.586 345.878 143.606C350.783 144.966 355.768 144.761 360.317 143.002C363.332 141.833 366.008 140.148 368.311 137.986C372.726 141.766 378.141 143.777 384.013 143.777H424.169C431.262 143.777 437.645 141.89 443.147 138.16C447.35 135.307 451.211 131.768 454.626 127.635C457.983 123.667 459.833 118.873 459.984 113.753C460.101 109.607 459.296 105.642 457.58 101.956L457.577 101.949ZM371.242 78.9016C368.408 82.9269 366.071 87.4324 364.302 92.297C363.802 93.6735 363.352 95.1137 362.926 96.5842C362.882 96.5339 362.838 96.4902 362.795 96.4399C362.765 96.4063 362.738 96.3727 362.704 96.3391C358.84 92.0385 354.972 87.664 351.199 83.3332C350.43 82.4502 349.655 81.5672 348.876 80.6843C349.89 79.7006 350.907 78.6901 351.921 77.6493C354.566 74.9434 357.027 72.2274 359.25 69.5651C361.831 66.4663 363.621 63.71 364.812 61.0276C369.862 66.9599 375.227 69.0313 379.467 69.555C376.348 72.4221 373.585 75.5578 371.235 78.9016H371.242Z" fill="white"/>
<path d="M56.5902 77.667V75.3035C55.5797 72.7185 53.9481 70.8921 51.6987 69.8212C49.446 68.7536 47.0288 68.109 44.4437 67.8807C42.9799 68.3305 41.7982 68.8375 40.9018 69.3981C39.9987 69.9622 39.2131 70.5799 38.5383 71.2547C37.8635 71.9295 37.2424 72.6882 36.6817 73.5309C36.1177 74.3736 35.4429 75.2465 34.6573 76.1462V120.351C34.6573 123.839 33.6166 126.565 31.5351 128.533C29.4536 130.5 27.1472 131.625 24.6158 131.907C22.0844 132.185 19.7511 131.571 17.6126 130.05C15.474 128.533 14.3493 125.971 14.2385 122.372C14.0102 113.714 13.9263 103.87 13.9867 92.8452C14.0438 81.8233 14.0707 69.5056 14.0707 55.8953C14.0707 53.5318 14.7723 51.5678 16.179 49.9899C17.5824 48.4153 19.2711 47.3477 21.2418 46.7837C23.2091 46.2231 25.2335 46.2499 27.315 46.8677C29.3932 47.4854 31.1087 48.7511 32.4617 50.6647C38.7599 47.5156 45.0312 46.5286 51.2723 47.7103C57.5135 48.8921 63.1671 51.8464 68.2298 56.5701C70.4792 54.3207 72.8964 52.2963 75.4848 50.4968C78.0699 48.7007 80.8833 47.519 83.9182 46.9549C87.403 46.3943 90.9214 46.5319 94.4633 47.3746C98.0052 48.2173 101.295 49.5971 104.334 51.5074C107.369 53.421 110.041 55.7845 112.347 58.5945C114.65 61.4079 116.366 64.4428 117.494 67.7061C118.055 69.9554 118.337 71.9799 118.337 73.7793V119.67C118.337 121.019 118.169 122.315 117.83 123.551C116.816 126.475 115.214 128.529 113.022 129.708C110.83 130.889 108.577 131.309 106.274 130.973C103.968 130.638 101.974 129.567 100.285 127.767C98.5961 125.968 97.7534 123.551 97.7534 120.512V75.129C96.7429 72.4297 95.2792 70.4624 93.3655 69.2236C91.4519 67.9881 89.4845 67.4274 87.4601 67.5349C85.4357 67.649 83.4952 68.3775 81.6386 69.7272C79.7821 71.0768 78.2915 72.9333 77.1668 75.2935V119.498C77.1668 122.533 76.1798 125.065 74.2158 127.089C72.2451 129.114 70.083 130.406 67.7195 130.97C65.356 131.531 63.1369 131.306 61.0554 130.295C58.9739 129.281 57.7653 127.257 57.4295 124.222L56.5869 77.657L56.5902 77.667Z" fill="#231F20"/>
<path d="M196.118 103.313C198.817 102.638 201.207 102.612 203.289 103.229C205.367 103.85 206.972 104.891 208.096 106.352C209.221 107.815 209.724 109.615 209.614 111.75C209.5 113.889 208.543 116.138 206.747 118.498C205.283 120.412 203.258 122.043 200.673 123.39C198.085 124.739 195.668 125.81 193.418 126.596C187.906 128.62 182.675 130.027 177.727 130.812C172.778 131.598 168.138 131.598 163.807 130.812C159.477 130.023 155.428 128.392 151.661 125.921C147.891 123.447 144.376 119.962 141.116 115.46C138.863 112.425 137.205 108.963 136.137 105.082C135.066 101.202 134.475 97.2366 134.364 93.1878C134.25 89.1389 134.589 85.1472 135.375 81.2091C136.16 77.2744 137.285 73.7292 138.749 70.5801C140.659 66.6454 143.698 63.0464 147.86 59.7832C152.02 56.5233 156.633 53.9348 161.696 52.0212C166.758 50.1109 171.929 49.0131 177.216 48.7311C182.501 48.4524 187.17 49.2649 191.219 51.1785C194.593 52.7564 197.487 55.0326 199.908 58.0139C202.325 60.9951 203.984 64.2315 204.887 67.7163C205.786 71.2045 205.87 74.7162 205.138 78.2614C204.407 81.8067 202.58 85.0397 199.656 87.9639C196.843 90.7773 193.751 93.0535 190.377 94.7959C187.003 96.5417 183.514 98.0591 179.915 99.3517C176.313 100.648 172.634 101.742 168.863 102.642C165.093 103.545 161.467 104.555 157.983 105.68C160.346 108.379 163.045 110.095 166.08 110.827C169.115 111.559 172.295 111.7 175.611 111.25C178.928 110.8 182.276 109.873 185.65 108.467C189.024 107.063 192.173 105.516 195.1 103.827L196.111 103.32L196.118 103.313ZM162.035 74.2932C159.446 75.7569 157.536 77.5833 156.297 79.7756C155.058 81.9678 154.159 85.033 153.598 88.9711C156.522 88.0713 159.812 87.1145 163.468 86.104C167.121 85.0934 170.579 84.0258 173.846 82.8978C177.105 81.7731 179.862 80.5343 182.111 79.188C184.36 77.8384 185.485 76.378 185.485 74.8001C185.485 73.9004 185.341 73.0275 185.062 72.1848C184.78 71.3422 184.189 70.7513 183.29 70.4122C180.14 69.2875 176.877 69.0626 173.503 69.7374C170.129 70.4122 167.316 71.369 165.066 72.6045L162.031 74.2932H162.035Z" fill="#231F20"/>
<path d="M223.923 73.8737C224.034 73.1418 223.98 71.8224 223.755 69.9088C221.955 68.8983 220.549 67.6057 219.538 66.0278C218.528 64.4533 217.937 62.7679 217.766 60.9651C217.598 59.1656 217.933 57.4501 218.776 55.8184C219.619 54.1902 220.995 52.8104 222.909 51.6857C225.497 50.2253 228.334 49.9433 231.43 50.843C234.522 51.7461 237.194 53.0957 239.443 54.8918C242.253 52.7566 245.178 50.9572 248.216 49.4934C251.251 48.033 254.346 47.046 257.495 46.539C260.644 46.0321 263.847 46.1194 267.114 46.7908C270.374 47.4656 273.58 48.8723 276.732 51.0109C278.307 52.0214 279.767 53.2871 281.12 54.8079C282.47 56.3254 283.312 58.0409 283.652 59.9546C284.212 62.768 283.987 65.2154 282.977 67.2935C281.966 69.375 280.556 70.8958 278.76 71.8493C276.961 72.8061 274.933 73.0881 272.687 72.692C270.434 72.2992 268.299 71.0872 266.274 69.0628C265.6 68.6163 265.12 68.247 264.841 67.965C264.559 67.6863 263.968 67.3204 263.068 66.8705C261.269 66.4206 259.496 66.5348 257.754 67.2062C256.008 67.881 254.323 68.8076 252.691 69.9894C251.059 71.1711 249.542 72.4637 248.135 73.8704C246.729 75.2771 245.463 76.5427 244.338 77.6641V120.687C244.338 122.376 244.002 124.007 243.328 125.579C242.317 128.164 240.712 129.967 238.52 130.977C236.328 131.988 234.132 132.27 231.94 131.82C229.748 131.37 227.834 130.245 226.206 128.446C224.574 126.646 223.758 124.343 223.758 121.53V74.29C223.758 74.7399 223.815 74.6022 223.926 73.8704L223.923 73.8737Z" fill="#231F20"/>
<path d="M307.603 128.536C305.353 130.164 303.02 130.923 300.599 130.812C298.179 130.701 296.044 129.718 294.19 127.861C292.334 126.005 291.407 123.45 291.407 120.183V24.0148C291.407 22.3261 291.884 20.7817 292.841 19.375C293.794 17.9717 295.006 16.8168 296.467 15.9171C297.927 15.0173 299.532 14.4298 301.274 14.1444C303.017 13.8658 304.618 13.9195 306.082 14.3123C307.542 14.7085 308.808 15.5511 309.879 16.8437C310.946 18.1396 311.537 19.9088 311.651 22.1582C311.987 30.9307 312.158 38.8068 312.158 45.7798C312.158 52.7528 312.101 59.7829 311.991 66.87C314.579 64.9598 317.023 62.9622 319.329 60.8807C321.633 58.8026 323.912 56.6371 326.165 54.3844C328.189 52.2492 330.157 49.8589 332.07 47.2133C333.98 44.5712 336.398 42.7415 339.325 41.731C341.46 41.0561 343.458 40.9454 345.315 41.3952C347.171 41.8451 348.746 42.718 350.038 44.0105C351.331 45.3064 352.204 46.8776 352.654 48.7342C353.1 50.5907 352.989 52.5883 352.318 54.7235C351.754 56.3014 350.488 58.2654 348.521 60.6289C346.55 62.9924 344.358 65.413 341.941 67.8839C339.52 70.3582 337.133 72.6378 334.769 74.7159C332.406 76.7974 330.492 78.4022 329.032 79.5235C332.967 83.7973 336.848 88.1281 340.675 92.516C344.499 96.904 348.376 101.289 352.318 105.676C354.003 107.59 355.608 109.302 357.125 110.823C358.643 112.344 359.966 114.17 361.09 116.306C361.99 118.105 362.272 119.962 361.933 121.872C361.597 123.785 360.838 125.444 359.657 126.851C358.475 128.257 357.011 129.298 355.269 129.973C353.523 130.648 351.64 130.705 349.615 130.141C347.702 129.577 345.845 128.539 344.049 127.018C342.249 125.501 340.53 123.843 338.902 122.043C337.271 120.244 335.723 118.39 334.263 116.477C332.799 114.566 331.449 112.935 330.214 111.585C327.179 108.1 324.167 104.642 321.189 101.208C318.208 97.7769 315.143 94.433 311.994 91.1698V120.526C311.319 124.239 309.855 126.908 307.606 128.539L307.603 128.536Z" fill="black"/>
<path d="M418.264 46.6222C416.35 42.6875 413.933 40.6329 411.009 40.465C408.081 40.2972 404.764 41.4521 401.055 43.923C399.255 45.0477 397.315 46.6222 395.233 48.6466C393.152 50.6711 390.986 52.3564 388.737 53.7094C386.484 55.059 384.208 55.7338 381.905 55.7338C379.602 55.7338 377.322 54.3271 375.07 51.5137C373.156 49.1502 372.454 46.7364 372.961 44.2587C373.468 41.7844 374.566 39.4511 376.251 37.2555C377.94 35.0632 379.934 33.0657 382.241 31.2662C384.544 29.47 386.484 28.0063 388.062 26.8816C391.772 24.1824 395.824 22.1311 400.209 20.7244C404.597 19.3177 408.951 18.7269 413.285 18.9518C417.613 19.1767 421.665 20.3853 425.435 22.5776C429.202 24.7699 432.324 28.1741 434.798 32.7836C437.162 37.1716 438.679 41.6132 439.354 46.1119C440.029 50.6106 439.861 54.9986 438.847 59.2723C437.837 63.5461 436.064 67.5983 433.533 71.4189C431.001 75.2461 427.711 78.6168 423.662 81.541C421.188 83.3404 418.459 85.0829 415.481 86.7715C412.5 88.4602 409.632 90.3168 406.876 92.3379C404.116 94.3623 401.703 96.615 399.621 99.0859C397.54 101.56 396.163 104.545 395.488 108.03C396.724 108.03 398.55 108.144 400.971 108.365C403.388 108.594 406.033 108.762 408.901 108.872C411.768 108.986 414.749 108.929 417.841 108.704C420.933 108.48 423.716 107.973 426.19 107.187C425.74 107.637 425.401 107.919 425.18 108.03C426.869 106.341 428.47 104.797 429.987 103.39C431.508 101.987 433.617 101.396 436.316 101.617C438.226 101.731 439.942 102.376 441.462 103.558C442.983 104.74 444.135 106.173 444.92 107.858C445.706 109.547 446.072 111.377 446.018 113.341C445.961 115.312 445.26 117.081 443.91 118.655C441.321 121.804 438.451 124.45 435.305 126.585C432.156 128.72 428.443 129.791 424.173 129.791H384.017C381.428 129.791 379.179 128.949 377.269 127.26C375.355 125.575 374.119 123.493 373.555 121.019C373.106 119.109 373.075 117.195 373.472 115.285C373.864 113.374 374.173 111.461 374.398 109.547C375.073 104.938 376.087 100.775 377.433 97.0615C378.783 93.3484 380.525 89.9744 382.664 86.9394C384.799 83.9045 387.36 81.1179 390.342 78.5899C393.323 76.0586 396.781 73.6111 400.719 71.251C402.515 70.2371 404.711 68.8875 407.299 67.2022C409.884 65.5135 412.248 63.6032 414.386 61.4646C416.522 59.3294 418.069 56.9928 419.026 54.4614C419.979 51.93 419.728 49.3147 418.267 46.6155L418.264 46.6222Z" fill="#231F20"/>
</g>
<defs>
<clipPath id="clip0_255_1013">
<rect width="459.993" height="146" fill="white"/>
</clipPath>
</defs>
</svg>
