<svg width="601" height="110" viewBox="0 0 601 110" fill="none" xmlns="http://www.w3.org/2000/svg">
<g clip-path="url(#clip0_255_1791)">
<path d="M126.06 105.264C123.914 103.579 122.523 101.249 121.921 98.3174V98.2627L108.825 0H108.518L90.2969 31.2192L92.257 46.7084L99.1227 101.249V101.315C99.0242 102.912 98.4109 104.41 97.294 105.767C96.2757 107.003 94.5674 107.867 93.571 108.009H135.433V107.954H133.714C131.075 107.911 128.316 107.057 126.038 105.264H126.06Z" fill="white"/>
<path d="M230.47 19.4157C231.653 18.3655 233.35 17.7201 234.598 17.4795H213.136C214.329 17.6436 215.961 18.3655 217.111 19.4157C218.578 20.783 219.377 22.5441 219.498 24.6772V76.2424C219.388 85.2888 217.023 92.4646 212.479 97.5839C207.902 102.736 201.386 105.35 193.119 105.35C184.852 105.35 178.818 102.572 174.35 97.1026C169.916 91.6879 167.66 84.0964 167.66 74.5579V24.71C167.66 22.5551 168.404 20.7721 169.894 19.4157C171.032 18.3655 172.85 17.7092 173.858 17.4795H140.58C141.872 17.6436 143.504 18.3655 144.643 19.4157C146.11 20.7611 146.909 22.5332 147.03 24.6772V75.4767C147.03 86.142 150.61 94.6523 157.673 100.756C164.758 106.893 175.752 110.01 190.338 110.01C202.361 110.01 211.767 106.882 218.304 100.701C224.82 94.532 228.127 85.9888 228.127 75.3236V24.71C228.127 22.5551 228.904 20.7721 230.448 19.4047L230.47 19.4157Z" fill="white"/>
<path d="M337.672 103.678C336.085 102.136 334.256 99.9588 332.219 97.2241C330.566 94.916 328.934 92.5751 327.215 90.0702C325.572 87.7074 324.28 85.6837 323.262 83.8788C322.189 81.9974 321.499 80.7613 321.116 79.9737C319.626 77.6984 317.524 75.2154 314.874 72.6229C312.246 70.0523 309.476 68.313 306.65 67.4379L303.65 66.4972L306.749 65.994C311.6 65.2064 315.586 63.5546 318.597 61.0934C321.608 58.6213 323.853 55.6459 325.288 52.2549C326.722 48.8202 327.456 45.3198 327.456 41.885C327.456 37.247 326.536 33.32 324.718 30.2243C322.89 27.1177 320.415 24.6237 317.382 22.8188C314.283 20.9811 310.746 19.6137 306.859 18.7605C302.96 17.9073 298.876 17.4697 294.737 17.4697H248.198V17.5244H249.447C251.659 17.5463 253.827 18.3448 255.557 19.9528C256.948 21.2655 257.824 22.8953 258.163 24.8096V24.9409V100.418V100.484C257.824 102.332 256.959 103.973 255.568 105.352C253.827 107.069 251.615 107.944 249.283 107.944H248.188V107.999H288.922V107.944H288.123C285.944 107.868 283.808 107.167 281.903 105.636C279.943 104.083 278.936 101.873 278.936 99.0837V22.2171L279.768 22.3156C280.501 22.4031 281.596 22.414 283.108 22.3703C284.816 22.3156 286.623 22.3484 288.462 22.4469C289.809 22.4469 291.441 22.6875 293.28 23.1579C295.153 23.6392 297.003 24.5033 298.81 25.7175C300.639 26.9646 302.194 28.8132 303.42 31.2088C304.636 33.5934 305.358 36.7547 305.577 40.627C305.676 42.1694 305.654 43.4711 305.49 44.5978C305.336 45.7136 305.15 46.6215 304.942 47.2887C304.099 51.6752 302.752 55.0443 300.967 57.2977C299.139 59.5948 297.091 61.17 294.89 61.9795C292.711 62.7671 290.477 63.1718 288.265 63.1718H285.418C286.754 63.4234 288.145 64.2 289.601 65.4799C291.386 67.0441 292.93 69.4725 294.321 72.8854L294.353 72.9838C294.649 74.1762 295.186 75.6857 295.93 77.4797C296.697 79.3064 297.584 81.1988 298.591 83.0912C299.5 84.8414 300.507 86.712 301.657 88.8341C302.621 90.628 303.584 92.2251 304.537 93.6034C306.858 97.3335 309.399 100.287 312.136 102.409C314.863 104.531 318.115 106.008 321.805 106.796C325.605 107.594 330.281 108.01 335.701 108.01H347.856V107.944C345.918 107.878 344.166 107.561 342.655 106.992C340.924 106.347 339.238 105.231 337.639 103.689L337.672 103.678Z" fill="white"/>
<path d="M430.234 90.7037C427.354 95.823 423.423 99.5859 418.55 101.894C413.721 104.18 407.545 105.34 400.198 105.34C393.299 105.143 387.32 103.229 382.415 99.6844C377.509 96.1402 373.731 91.1194 371.191 84.7858C368.661 78.5179 367.38 70.9921 367.38 62.438C367.38 53.8839 368.661 46.5002 371.191 40.2323C373.731 33.8988 377.586 28.8779 382.655 25.3337C387.714 21.7896 394.131 19.9847 401.731 19.9847C409.33 19.9847 416.174 21.9318 421.802 25.7822C427.277 29.5342 431.887 37.7164 433.99 45.1438L433.847 22.2381C429.993 20.3238 425.153 18.7158 419.459 17.436C413.579 16.1233 407.096 15.4561 400.198 15.4561C388.798 15.4561 378.889 17.3703 370.731 21.1442C362.606 24.9071 356.309 30.3327 352.017 37.2679C347.703 44.2031 345.523 52.7134 345.523 62.5692C345.523 72.425 347.735 81.2198 352.083 88.1659C356.441 95.1011 362.759 100.505 370.873 104.213C379.009 107.932 388.875 109.868 400.198 109.967C406.735 109.967 412.549 109.201 417.477 107.702C422.383 106.204 426.598 104.147 429.993 101.61C433.3 99.1265 435.928 96.3043 437.811 93.2087L436.224 71.3968C435.359 77.8397 432.961 85.8031 430.234 90.6818V90.7037Z" fill="white"/>
<path d="M481.612 105.373C479.772 103.656 478.786 101.545 478.688 99.1165V26.3957C478.786 23.8361 479.772 21.6921 481.612 20.0185C483.44 18.3667 485.685 17.5791 488.324 17.5244H489.342V17.4697H447.305V17.5244H448.564C451.083 17.5791 453.305 18.3667 455.189 20.0075C457.083 21.6921 458.047 23.8251 458.047 26.3848V99.0728C458.047 101.534 457.094 103.645 455.2 105.373C453.316 107.08 451.072 107.846 448.564 107.944H447.305V107.999H489.419V107.944H488.313C485.685 107.9 483.418 107.08 481.59 105.373H481.612Z" fill="white"/>
<path d="M600.508 107.955C598.307 107.922 596.051 107.277 593.697 105.942C591.331 104.608 589.316 102.256 587.718 98.9523L546.928 13.3457H546.797C546.611 14.3302 546.228 15.5663 545.625 17.0977C544.903 18.8916 544.136 20.784 543.315 22.7749C542.45 24.8642 541.683 26.6363 541.004 28.1677C540.128 30.082 539.789 30.979 539.657 31.3946L539.625 31.4821L508.001 99.3789H507.957C506.479 102.453 504.584 104.662 502.317 105.953C499.952 107.288 497.653 107.922 495.506 107.966H495.014V108.021H524.229V107.966H523.736C521.732 107.9 520.002 107.145 518.447 105.516C516.859 103.875 516.607 101.599 517.691 98.7445L540.906 44.8821L564.208 99.8274C564.843 102.179 564.471 104.094 563.113 105.516C561.536 107.145 559.784 107.911 557.813 107.966H557.32V108.021H600.968V107.966H600.475L600.508 107.955Z" fill="white"/>
<path d="M82.6538 44.5863L68.4843 68.9141L32.9182 10.3152L26.6218 0H26.3043L13.394 98.9738V99.0066C12.8027 101.621 11.4996 103.721 9.5286 105.274C7.25096 107.057 4.62292 107.954 1.69923 107.954H0.00195312V108.009H27.9358C26.7642 107.779 25.2968 107.003 24.2566 105.778C22.9754 104.279 22.3184 102.594 22.3184 100.779V100.232L28.2972 45.5161L55.4098 91.3823L58.5963 96.611L83.7707 53.3592L82.9276 46.6975L82.6648 44.5754L82.6538 44.5863Z" fill="white"/>
<path d="M568.632 30.9899C569.585 31.8212 570.701 32.3572 571.95 32.5869C572.651 32.7182 573.351 32.7401 574.052 32.6635C576.669 32.3572 578.87 30.6727 579.845 28.2333C580.075 27.6536 580.228 27.0519 580.294 26.4284C580.305 26.2753 580.316 26.1221 580.327 25.969C580.327 25.9471 580.327 25.9253 580.327 25.9034V25.3564C580.316 25.2252 580.305 25.083 580.294 24.9517C580.228 24.2297 580.053 23.5297 579.768 22.8733C578.914 20.9262 577.48 19.6027 575.465 18.9135C574.863 18.7057 574.227 18.5963 573.592 18.5635C573.57 18.5635 573.549 18.5635 573.538 18.5635H572.979C572.848 18.5744 572.716 18.5854 572.585 18.5963C572.005 18.651 571.446 18.7713 570.909 18.9682C568.796 19.712 567.165 21.4076 566.497 23.5406C566.223 24.4048 566.124 25.2799 566.201 26.1878C566.365 28.1239 567.175 29.7319 568.643 31.0118L568.632 30.9899ZM573.253 19.187C576.812 19.187 579.692 22.0748 579.692 25.619C579.692 29.1741 576.801 32.0619 573.242 32.0509C569.683 32.0509 566.803 29.1631 566.803 25.619C566.803 22.0639 569.694 19.176 573.253 19.187Z" fill="#05332E"/>
<path d="M570.997 28.8242H573.133V28.7257H573.023C572.859 28.7257 572.716 28.6711 572.596 28.5507C572.476 28.4304 572.41 28.2882 572.41 28.1241V22.5563H572.563C572.651 22.5563 572.749 22.5563 572.848 22.5563C572.946 22.5563 573.045 22.5563 573.144 22.5563C573.461 22.5563 573.713 22.6766 573.932 22.8845C574.14 23.1032 574.26 23.4314 574.271 23.8908C574.271 23.9893 574.271 24.0768 574.271 24.1534C574.271 24.2299 574.249 24.2956 574.239 24.3503C574.184 24.6347 574.096 24.8534 573.976 25.0066C573.844 25.1707 573.702 25.28 573.538 25.3457C573.374 25.4113 573.209 25.4551 573.034 25.4551H572.738V25.5535C572.87 25.5754 572.99 25.6301 573.1 25.7395C573.209 25.8379 573.308 25.9911 573.395 26.1989C573.417 26.2536 573.45 26.3411 573.494 26.4396C573.538 26.538 573.592 26.6583 573.647 26.7787C573.713 26.899 573.768 27.0302 573.833 27.1615C573.899 27.2928 573.954 27.424 574.02 27.5444C574.085 27.6647 574.14 27.7631 574.184 27.8397C574.348 28.0913 574.534 28.2882 574.753 28.4304C574.972 28.5726 575.213 28.682 575.498 28.7367C575.783 28.8023 576.089 28.8242 576.44 28.8242H577.381V28.7257C577.217 28.7257 577.064 28.6929 576.943 28.6492C576.812 28.6054 576.691 28.5289 576.582 28.4195C576.472 28.3101 576.341 28.1788 576.199 28.0038C576.111 27.8944 576.012 27.7522 575.903 27.5991C575.793 27.4459 575.695 27.2928 575.596 27.1506C575.498 26.9974 575.41 26.8771 575.344 26.7787C575.279 26.6802 575.246 26.6146 575.235 26.6036C575.126 26.4396 574.983 26.2755 574.819 26.1114C574.655 25.9473 574.468 25.827 574.26 25.7723C574.622 25.7395 574.917 25.6191 575.147 25.4332C575.377 25.2472 575.553 25.0175 575.662 24.755C575.772 24.4925 575.826 24.2299 575.826 23.9565C575.826 23.6174 575.761 23.3329 575.64 23.1032C575.509 22.8735 575.344 22.6876 575.125 22.5454C574.906 22.4032 574.666 22.3047 574.392 22.2391C574.118 22.1734 573.833 22.1406 573.549 22.1406H570.264V22.2391H570.384C570.548 22.2391 570.691 22.2938 570.811 22.4141C570.932 22.5344 570.986 22.6766 570.997 22.8407V28.1351C570.997 28.2991 570.932 28.4413 570.811 28.5617C570.691 28.682 570.548 28.7367 570.384 28.7367H570.264V28.8351H571.03L570.997 28.8242Z" fill="#05332E"/>
</g>
<defs>
<clipPath id="clip0_255_1791">
<rect width="601" height="110" fill="white"/>
</clipPath>
</defs>
</svg>
