<svg width="146" height="146" viewBox="0 0 146 146" fill="none" xmlns="http://www.w3.org/2000/svg">
<g clip-path="url(#clip0_255_683)">
<path d="M73 146C113.317 146 146 113.317 146 73C146 32.6832 113.317 0 73 0C32.6832 0 0 32.6832 0 73C0 113.317 32.6832 146 73 146Z" fill="white"/>
<path d="M81.6189 58.6262C88.5563 58.6262 94.2061 64.2759 94.2061 71.2133V74.7739C94.2061 81.7113 88.5563 87.3611 81.6189 87.3611H56.9309V71.2133C56.9309 64.2759 62.5806 58.6262 69.518 58.6262H81.6189ZM81.6189 41.585H69.518C53.1468 41.585 39.8896 54.8553 39.8896 71.2133V104.415H81.6321C98.0032 104.415 111.26 91.1451 111.26 74.7871V71.2264C111.26 54.8553 97.9901 41.5981 81.6321 41.5981L81.6189 41.585Z" fill="black"/>
</g>
<defs>
<clipPath id="clip0_255_683">
<rect width="146" height="146" fill="white"/>
</clipPath>
</defs>
</svg>
