<svg width="373" height="146" viewBox="0 0 373 146" fill="none" xmlns="http://www.w3.org/2000/svg">
<g clip-path="url(#clip0_255_760)">
<path d="M313.206 1.35647C313.266 2.05489 312.801 2.69257 312.092 2.88489C310.847 3.47197 309.541 4.27161 308.195 5.25344C304.339 8.06736 301.272 11.691 299.308 15.75C297.547 19.3332 296.575 23.5642 296.494 27.9571V28.6454C296.545 30.5484 296.565 32.5222 296.221 34.3947C294.207 46.6626 282.192 53.5557 275.208 56.5721C272.465 57.7766 269.6 58.7787 266.685 59.5884C266.27 59.7099 265.895 59.801 265.389 59.9225C263.932 60.3375 262.413 59.4568 261.968 57.9689C259.427 50.843 260.106 38.7472 270.329 28.0482C272.718 25.5177 275.349 23.3314 278.163 21.5499C278.345 21.4284 278.528 21.3879 278.73 21.3879C279.074 21.3879 279.418 21.5499 279.621 21.8738C279.874 22.2483 279.833 22.7443 279.55 23.0986C277.88 25.1938 275.744 27.9571 273.912 30.8621C270.359 36.3989 268.153 42.1887 267.515 47.6242C267.292 49.3348 267.231 51.1264 267.323 52.9484L267.343 53.2723L267.646 53.1913C275.197 51.0758 292.729 44.5066 292.283 29.111C292.314 20.2644 296.089 11.5898 302.355 5.89113C302.436 5.82028 302.517 5.74942 302.608 5.67857L303.529 4.84856L302.537 5.10161C297.77 6.25552 293.68 7.42968 290.016 8.66456C263.142 17.5618 252.646 32.8258 257.98 55.2866C253.972 49.0818 252.484 41.3587 253.911 33.8886C257.767 14.677 279.428 6.61992 288.569 4.04892C295.725 1.99415 303.489 0.627681 311.647 0.0304818C312.436 -0.0504943 313.145 0.577071 313.206 1.37671V1.35647Z" fill="white"/>
<path d="M94.9138 5.93164V8.60385C96.4017 8.64434 97.6063 8.78605 98.5274 9.00873C99.4485 9.2213 100.167 9.69703 100.693 10.4056C101.21 11.1242 101.554 12.1263 101.706 13.4523C101.858 14.7682 101.938 16.5091 101.938 18.6854V44.5471H101.665L74.4268 5.93164H55.5594V8.60385C57.0979 8.68483 58.3227 8.87715 59.2438 9.17069C60.1649 9.4541 60.8735 9.9602 61.3694 10.6687C61.8654 11.3773 62.2096 12.349 62.3816 13.5738C62.5537 14.7985 62.6549 16.3371 62.6549 18.2198V45.0836C62.6549 47.1789 62.5638 48.8288 62.3816 50.0636C62.2905 50.7115 62.1286 51.2884 61.916 51.7945C61.7338 52.2298 61.5213 52.5941 61.2682 52.9079C60.7014 53.5659 59.9119 54.0315 58.8895 54.2744C57.8875 54.5275 56.5412 54.6692 54.8711 54.7096V57.3819H74.9532V54.7096C73.4652 54.659 72.2607 54.5275 71.3396 54.3048C70.4185 54.0821 69.6998 53.6063 69.1735 52.8978C68.6472 52.1893 68.3131 51.1872 68.1613 49.8916C68.0095 48.596 67.9285 46.8347 67.9285 44.6079V15.8816H68.2018L98.1528 58.0499H107.212V18.2198C107.212 16.165 107.303 14.5151 107.485 13.2701C107.668 12.0251 108.042 11.0736 108.599 10.3955C109.166 9.73752 109.955 9.27191 110.977 9.02898C111.98 8.79617 113.326 8.63422 114.996 8.60385V5.93164H94.9138Z" fill="white"/>
<path d="M159.583 54.6077C158.885 54.5369 158.328 54.4053 157.933 54.2029C157.518 54.0004 157.235 53.7372 157.043 53.4032C156.861 53.0692 156.709 52.6137 156.567 52.0367C156.385 51.2776 156.273 50.1338 156.203 48.5953C156.132 47.0567 156.101 44.9311 156.101 42.2083V21.9642H140.827V24.6466C142.173 24.7781 143.246 24.9401 144.026 25.1425C144.815 25.345 145.423 25.7195 145.817 26.2762C146.222 26.8329 146.465 27.6326 146.566 28.6852C146.658 29.7278 146.698 31.1449 146.698 32.9264V39.8802C146.698 44.3744 145.979 47.7855 144.532 50.1034C143.095 52.5024 141.05 53.7069 138.388 53.7069C135.908 53.7069 134.106 52.6947 132.973 50.6703C131.849 48.6357 131.282 45.3765 131.282 40.8722V21.9541H116.14V24.6364C117.486 24.768 118.549 24.93 119.318 25.1324C120.087 25.3349 120.654 25.6992 121.039 26.2357C121.413 26.7722 121.656 27.5617 121.747 28.6144C121.828 29.6671 121.879 31.0943 121.879 32.9264V41.9451C121.879 46.7126 122.851 50.3869 124.784 52.9781C127.314 56.3588 130.979 58.0492 135.797 58.0492C138.418 58.0492 140.787 57.5431 142.902 56.5107C145.018 55.4985 146.658 54.0409 147.842 52.1683H148.105L148.854 58.11L162.316 57.3103V54.709C161.183 54.709 160.272 54.6685 159.573 54.5976L159.583 54.6077Z" fill="white"/>
<path d="M187.743 51.3689C186.842 52.9783 185.506 53.7678 183.755 53.7678C182.307 53.7678 181.285 53.201 180.678 52.0268C180.06 50.8729 179.757 48.9194 179.757 46.1561V25.6387H187.53V21.9644H179.757V13.877H176.315C175.404 15.8912 174.048 17.6626 172.226 19.2011C170.394 20.7397 168.137 21.8835 165.424 22.6426V25.6489H170.353V49.9215C170.353 52.5026 171.224 54.5067 172.955 55.9238C174.696 57.351 177.115 58.0596 180.222 58.0596C184.919 58.0596 187.895 56.4907 189.15 53.3225L187.733 51.379L187.743 51.3689Z" fill="white"/>
<path d="M222.016 22.5621C220.933 21.722 219.536 21.2969 217.815 21.2969C215.609 21.2969 213.513 21.9852 211.529 23.3618C209.556 24.7485 207.946 26.6109 206.732 28.9795H206.458L205.385 21.2969L191.862 23.7666V26.1048C193.209 26.1048 194.312 26.2465 195.132 26.5401C195.972 26.8235 196.61 27.4106 197.055 28.3013C197.5 29.2022 197.804 30.4674 197.946 32.1173C198.077 33.7571 198.148 35.9738 198.148 38.727V46.8853C198.148 48.5757 198.087 49.9219 197.986 50.924C197.865 51.9261 197.612 52.6954 197.207 53.2318C196.802 53.7683 196.195 54.1327 195.375 54.3048C194.575 54.487 193.482 54.6084 192.136 54.7097V57.3819H214.718V54.7097C213.149 54.7097 211.884 54.6287 210.932 54.4769C209.991 54.325 209.262 53.9708 208.766 53.4343C208.27 52.8978 207.936 52.1387 207.784 51.1265C207.632 50.1244 207.551 48.7478 207.551 47.0169V43.8184C207.551 42.1786 207.653 40.5085 207.896 38.8383C208.118 37.1682 208.402 35.66 208.766 34.3239C209.262 32.4513 209.89 30.9634 210.659 29.8601C211.428 28.7366 212.228 28.1798 213.098 28.1798C213.544 28.1798 213.989 28.3216 214.424 28.6151C214.849 28.8985 215.275 29.2224 215.7 29.5463C216.125 29.8803 216.611 30.184 217.157 30.4472C217.704 30.7205 218.301 30.8521 218.989 30.8521C220.437 30.8521 221.57 30.3662 222.39 29.3844C223.23 28.4025 223.645 27.198 223.645 25.7809C223.645 24.4853 223.109 23.4124 222.026 22.5621H222.016Z" fill="white"/>
<path d="M240.711 3.42127C239.709 2.41919 238.454 1.91309 236.966 1.91309C235.478 1.91309 234.294 2.41919 233.282 3.42127C232.269 4.41322 231.763 5.65823 231.763 7.12593C231.763 8.59362 232.259 9.77789 233.282 10.7699C234.294 11.7719 235.529 12.2882 236.966 12.2882C238.403 12.2882 239.709 11.7821 240.711 10.7699C241.723 9.77789 242.24 8.56325 242.24 7.12593C242.24 5.6886 241.734 4.42335 240.711 3.42127ZM244.466 54.3451C243.697 54.1427 243.11 53.7581 242.705 53.171C242.3 52.594 242.027 51.764 241.906 50.6911C241.764 49.6283 241.693 48.2011 241.693 46.4196V21.2866L226.004 23.8273V26.0946C228.089 26.0946 229.516 26.2768 230.306 26.6311C231.085 26.9853 231.591 27.7344 231.814 28.8377C231.956 29.4652 232.067 30.609 232.158 32.2791C232.239 33.9493 232.29 36.0749 232.29 38.6661V46.8852C232.29 48.444 232.219 49.7194 232.057 50.7316C231.905 51.7337 231.611 52.5131 231.186 53.0698C230.761 53.6265 230.144 54.0314 229.364 54.2743C228.575 54.5273 227.542 54.669 226.277 54.7095V57.3817H247.574V54.7095C246.258 54.6589 245.236 54.5273 244.466 54.3451Z" fill="white"/>
<path d="M79.1647 70.1151C77.039 65.4185 74.1239 61.3292 70.4395 57.8674C70.2573 57.7055 70.0751 57.5334 69.8929 57.3816C67.5041 55.2054 64.842 53.3429 61.9269 51.7942C60.4693 51.0047 58.951 50.2962 57.3618 49.6686C52.3514 47.6847 46.9463 46.6826 41.1666 46.6826C35.3869 46.6826 29.9818 47.6847 24.9714 49.6686C19.9509 51.6627 15.5984 54.3956 11.8937 57.8674C8.20931 61.3292 5.29417 65.4185 3.16855 70.1151C1.05305 74.8117 -0.00976562 79.8828 -0.00976562 85.3386C-0.00976562 90.7944 1.05305 95.4303 3.16855 99.9953C5.29417 104.56 8.21944 108.528 11.9443 111.909C15.6794 115.28 20.0521 117.952 25.0625 119.915C30.0729 121.879 35.4375 122.851 41.1666 122.851C46.8957 122.851 52.2502 121.879 57.2707 119.915C62.2811 117.952 66.6437 115.28 70.3281 111.909C74.0328 108.528 76.9581 104.56 79.1141 99.9953C81.2701 95.4303 82.343 90.5514 82.343 85.3386C82.343 80.1258 81.2802 74.8016 79.1647 70.1151ZM63.8804 98.5074C62.7569 102.323 61.1272 105.573 59.0117 108.245C56.8962 110.907 54.3151 112.962 51.2886 114.419C48.2723 115.856 44.8915 116.585 41.1666 116.585C37.4417 116.585 33.98 115.867 30.994 114.419C28.0181 112.962 25.4471 110.907 23.3316 108.245C21.206 105.573 19.5865 102.323 18.4629 98.5074C17.3394 94.6812 16.7725 90.3895 16.7725 85.6321C16.7725 80.6217 17.3394 76.1073 18.4629 72.0889C19.5865 68.0704 21.206 64.629 23.3316 61.7644C25.4471 58.8999 28.008 56.7135 30.994 55.2054C33.98 53.7073 37.381 52.9481 41.1666 52.9481C44.9522 52.9481 48.2723 53.7073 51.2886 55.2054C54.3151 56.7135 56.8962 58.91 59.0117 61.7644C61.1272 64.629 62.7569 68.0603 63.8804 72.0889C65.004 76.1073 65.5708 80.6217 65.5708 85.6321C65.5708 90.3794 65.004 94.6711 63.8804 98.5074Z" fill="white"/>
<path d="M148.247 85.6825C146.992 82.4333 145.231 79.6396 142.953 77.2913C140.656 74.9531 137.963 73.1211 134.846 71.7951C131.738 70.4792 128.307 69.8213 124.582 69.8213C117.76 69.8213 112.243 72.2303 107.992 77.0585H107.607V70.216L88.2236 72.9085V76.6638C90.9262 76.6638 92.8494 76.9573 93.9729 77.5343C95.0965 78.1112 95.8151 79.1437 96.1391 80.6215C96.3415 81.7045 96.4933 83.5872 96.6249 86.2594C96.7565 88.9317 96.8172 91.7456 96.8172 94.7012V130.564C96.8172 132.881 96.716 134.764 96.4832 136.201C96.2605 137.659 95.8455 138.793 95.2281 139.633C94.6106 140.463 93.7604 141.04 92.6773 141.374C91.574 141.698 90.1671 141.88 88.4362 141.951V145.989H121.697V141.951C119.187 141.88 117.183 141.688 115.664 141.374C114.146 141.04 112.982 140.463 112.142 139.633C111.312 138.793 110.755 137.598 110.512 136.06C110.249 134.511 110.118 132.456 110.118 129.885V116.484H110.512C113.782 120.725 118.539 122.84 124.784 122.84C128.449 122.84 131.839 122.193 134.957 120.867C138.064 119.551 140.747 117.698 143.004 115.32C145.251 112.941 147.002 110.158 148.257 106.939C149.512 103.72 150.14 100.187 150.14 96.3207C150.14 92.4541 149.512 88.9215 148.257 85.6724L148.247 85.6825ZM132.73 111.615C130.827 114.864 127.922 116.484 124.005 116.484C119.572 116.484 116.13 114.723 113.681 111.18C111.433 107.981 110.3 104.084 110.3 99.5092V92.9602C110.3 90.3791 110.593 88.0004 111.17 85.7736C111.747 83.567 112.577 81.7045 113.681 80.2267C114.764 78.7489 116.241 77.5545 118.114 76.6537C119.987 75.7528 121.94 75.3074 124.005 75.3074C131.708 75.3074 135.574 82.3726 135.574 96.5232C135.574 103.335 134.613 108.366 132.73 111.605V111.615Z" fill="white"/>
<path d="M194.678 114.521C192.046 115.513 189.404 116.009 186.773 116.009C182.137 116.009 178.594 114.207 176.124 110.604C173.644 107.01 172.399 101.868 172.399 95.1776C172.399 88.9525 173.432 84.094 175.497 80.6221C177.552 77.1503 180.436 75.4093 184.171 75.4093C185.001 75.4093 185.71 75.4902 186.287 75.6623C186.864 75.8141 187.441 76.138 188.028 76.6239C188.605 77.1098 189.232 77.7981 189.911 78.709C190.589 79.6099 191.398 80.8245 192.37 82.3732C193.453 84.1041 194.567 85.3491 195.69 86.1285C196.824 86.8978 198.13 87.2824 199.607 87.2824C201.409 87.2824 202.836 86.7257 203.899 85.6426C204.962 84.5393 205.488 83.0615 205.488 81.2092C205.488 79.5998 204.982 78.1017 203.95 76.715C202.917 75.3283 201.531 74.1238 199.749 73.1014C197.978 72.0892 195.862 71.2694 193.392 70.7025C190.913 70.1256 188.23 69.832 185.345 69.832C181.216 69.832 177.46 70.4798 174.059 71.7552C170.658 73.0407 167.723 74.8627 165.284 77.2009C162.834 79.5492 160.941 82.3631 159.595 85.6426C158.239 88.912 157.561 92.5458 157.561 96.544C157.561 100.542 158.188 103.923 159.443 107.101C160.698 110.28 162.48 113.002 164.798 115.25C167.116 117.497 169.879 119.258 173.098 120.513C176.307 121.768 179.869 122.396 183.797 122.396C188.038 122.396 191.975 121.647 195.609 120.169C199.243 118.691 202.28 116.596 204.719 113.903L202.209 110.239C199.83 112.112 197.33 113.539 194.688 114.531L194.678 114.521Z" fill="white"/>
<path d="M236.907 117.506C235.824 117.213 234.984 116.656 234.397 115.816C233.82 114.976 233.435 113.792 233.243 112.243C233.051 110.704 232.959 108.65 232.959 106.069V69.8115L210.59 73.4757V76.7451C213.545 76.7451 215.58 77.0083 216.714 77.5245C217.837 78.0306 218.556 79.0934 218.88 80.7028C219.072 81.6037 219.234 83.2536 219.366 85.6626C219.497 88.0716 219.558 91.1487 219.558 94.8736V106.727C219.558 108.984 219.457 110.826 219.224 112.273C218.991 113.731 218.576 114.855 217.969 115.654C217.351 116.454 216.481 117.041 215.357 117.395C214.234 117.749 212.766 117.952 210.974 118.023V121.879H241.351V118.023C239.488 117.952 238.01 117.77 236.907 117.486V117.506Z" fill="white"/>
<path d="M299.259 85.5009C297.751 82.3125 295.686 79.5694 293.084 77.2515C290.483 74.9335 287.457 73.1217 284.015 71.8058C280.574 70.49 276.93 69.832 273.073 69.832C269.217 69.832 265.684 70.4798 262.283 71.7552C258.862 73.0407 255.876 74.8424 253.315 77.1604C250.754 79.4783 248.72 82.2416 247.242 85.4604C245.764 88.659 245.035 92.1713 245.035 95.9671C245.035 99.7628 245.764 103.498 247.242 106.808C248.72 110.118 250.754 112.962 253.315 115.341C255.876 117.719 258.872 119.572 262.283 120.887C265.684 122.213 269.277 122.861 273.073 122.861C276.869 122.861 280.584 122.183 284.015 120.837C287.446 119.491 290.483 117.618 293.084 115.25C295.686 112.871 297.74 110.047 299.259 106.767C300.767 103.498 301.526 99.8843 301.526 95.9772C301.526 92.0701 300.767 88.6995 299.259 85.511V85.5009ZM285.412 104.632C284.774 107.192 283.873 109.409 282.719 111.241C281.566 113.073 280.169 114.48 278.519 115.472C276.879 116.474 275.067 116.97 273.073 116.97C271.079 116.97 269.298 116.474 267.719 115.472C266.15 114.48 264.803 113.083 263.68 111.292C262.556 109.48 261.686 107.304 261.079 104.733C260.461 102.172 260.157 99.2669 260.157 96.0582C260.157 92.8495 260.461 90.157 261.079 87.6164C261.686 85.0758 262.556 82.9097 263.68 81.1181C264.803 79.3062 266.17 77.9195 267.779 76.9174C269.379 75.9154 271.15 75.4194 273.073 75.4194C274.996 75.4194 276.879 75.9154 278.519 76.9174C280.159 77.9094 281.555 79.3265 282.719 81.1586C283.873 82.9907 284.774 85.1568 285.412 87.6569C286.06 90.1672 286.384 92.9608 286.384 96.0481C286.384 99.1353 286.06 102.05 285.412 104.632Z" fill="white"/>
<path d="M368.483 117.456C367.379 117.192 366.57 116.666 366.023 115.856C365.466 115.057 365.112 113.893 364.96 112.384C364.798 110.886 364.727 108.801 364.727 106.169V92.5756C364.727 88.466 364.302 85.2371 363.472 82.8787C362.632 80.5405 361.66 78.6274 360.577 77.1496C358.583 74.5179 356.326 72.6352 353.775 71.5117C351.225 70.3881 347.905 69.8213 343.785 69.8213C340.323 69.8213 337.145 70.5703 334.25 72.0481C331.355 73.5259 328.845 75.6212 326.729 78.3137H326.345L325.09 69.8314L306.485 73.4956V76.765C307.963 76.765 309.178 76.8156 310.15 76.9168C311.111 77.0079 311.911 77.2002 312.559 77.4938C313.196 77.7772 313.682 78.2023 314.006 78.7489C314.32 79.2955 314.583 79.9737 314.775 80.8138C314.978 81.6539 315.13 83.233 315.261 85.5914C315.393 87.9296 315.453 91.0067 315.453 94.8024V106.848C315.453 109.297 315.362 111.22 315.17 112.637C314.978 114.044 314.583 115.148 313.966 115.907C313.348 116.676 312.488 117.192 311.364 117.456C310.23 117.709 308.743 117.901 306.87 118.032V121.889H337.246V118.032C335.323 117.901 333.784 117.698 332.661 117.456C331.537 117.192 330.697 116.666 330.151 115.856C329.604 115.046 329.25 113.893 329.098 112.384C328.936 110.886 328.845 108.801 328.845 106.169V92.8691C328.845 90.8751 329.057 88.9519 329.472 87.1198C329.887 85.2877 330.394 83.7998 330.971 82.6358C332.054 80.581 333.349 78.9716 334.827 77.8177C336.305 76.6638 338.066 76.0767 340.131 76.0767C342.196 76.0767 344.008 76.3804 345.425 76.9978C346.842 77.6152 347.975 78.6072 348.856 79.9838C349.716 81.3705 350.344 83.1722 350.739 85.4294C351.113 87.6765 351.316 90.4398 351.316 93.7194V106.827C351.316 109.216 351.225 111.119 351.022 112.577C350.83 114.014 350.445 115.127 349.868 115.897C349.291 116.666 348.441 117.192 347.318 117.496C346.194 117.779 344.666 117.962 342.742 118.032V121.889H372.926V118.032C371.054 117.901 369.576 117.698 368.493 117.456H368.483Z" fill="white"/>
</g>
<defs>
<clipPath id="clip0_255_760">
<rect width="372.915" height="146" fill="white"/>
</clipPath>
</defs>
</svg>
