<svg width="543" height="101" viewBox="0 0 543 101" fill="none" xmlns="http://www.w3.org/2000/svg">
<g clip-path="url(#clip0_255_1772)">
<path d="M284.957 83.4919C283.286 86.4296 280.821 88.8271 277.568 90.6697C274.308 92.5196 270.761 93.4372 266.919 93.4372C262.408 93.4372 258.508 92.2014 255.203 89.7225C251.906 87.2436 249.301 83.7434 247.381 79.2074C249.382 79.459 251.347 79.5848 253.268 79.5848C258.029 79.5848 262.349 78.9558 266.235 77.6904C270.121 76.4324 273.454 74.6861 276.251 72.4587C279.047 70.2314 281.196 67.6341 282.697 64.6519C284.199 61.6698 284.957 58.4213 284.957 54.8916C284.957 51.7023 284.331 48.8015 283.073 46.2042C281.822 43.5995 280.026 41.4017 277.686 39.5888C275.353 37.7832 272.564 36.3699 269.355 35.3709C266.139 34.3645 262.526 33.8613 258.515 33.8613C253.341 33.8613 248.617 34.6975 244.363 36.3773C240.102 38.0644 236.467 40.4102 233.464 43.4367C230.462 46.4632 228.121 50.0965 226.451 54.3366C224.773 58.5767 223.941 63.2978 223.941 68.4998C223.941 73.7019 224.699 77.9272 226.201 81.9157C227.702 85.9042 229.807 89.3081 232.522 92.12C235.238 94.9319 238.52 97.1223 242.354 98.6689C246.203 100.223 250.501 101 255.262 101C262.033 101 268.082 99.4902 273.425 96.4637C278.775 93.4372 282.903 89.4117 285.832 84.3798L284.957 83.4992V83.4919ZM245.121 69.7578C244.702 67.0791 244.496 64.2227 244.496 61.1962C244.496 57.4149 244.812 53.9296 245.43 50.7403C246.056 47.551 246.902 44.7982 247.984 42.4895C249.066 40.1808 250.354 38.3826 251.84 37.0728C253.334 35.7705 254.953 35.1267 256.697 35.1267C259.354 35.1267 261.304 36.5105 262.555 39.2854C263.799 42.0603 264.424 45.8342 264.424 50.6219C264.424 54.5734 264.005 58.1771 263.173 61.4552C262.342 64.7333 261.157 67.5231 259.619 69.8318C258.088 72.1405 256.241 73.9461 254.085 75.2485C251.921 76.5582 249.515 77.1946 246.858 77.1946C246.107 74.9303 245.526 72.4513 245.121 69.7652" fill="white"/>
<path d="M391.459 83.4919C389.788 86.4296 387.323 88.8271 384.07 90.6697C380.81 92.5196 377.263 93.4372 373.421 93.4372C368.91 93.4372 365.01 92.2014 361.705 89.7225C358.408 87.2436 355.796 83.7434 353.875 79.2074C355.884 79.459 357.842 79.5848 359.77 79.5848C364.531 79.5848 368.851 78.9558 372.729 77.6904C376.615 76.4324 379.956 74.6861 382.753 72.4587C385.549 70.2314 387.698 67.6341 389.199 64.6519C390.701 61.6698 391.451 58.4213 391.451 54.8916C391.451 51.7023 390.833 48.8015 389.575 46.2042C388.324 43.5995 386.521 41.4017 384.188 39.5888C381.848 37.7832 379.073 36.3699 375.857 35.3709C372.641 34.3645 369.028 33.8613 365.017 33.8613C359.836 33.8613 355.119 34.6975 350.858 36.3773C346.604 38.0644 342.969 40.4102 339.966 43.4367C336.964 46.4632 334.616 50.0965 332.946 54.3366C331.275 58.5767 330.443 63.2978 330.443 68.4998C330.443 73.7019 331.194 77.9272 332.695 81.9157C334.197 85.9042 336.309 89.3081 339.024 92.12C341.74 94.9319 345.015 97.1223 348.856 98.6689C352.698 100.223 357.003 101 361.757 101C368.52 101 374.569 99.4902 379.919 96.4637C385.262 93.4372 389.398 89.4117 392.327 84.3798L391.444 83.4992L391.459 83.4919ZM351.623 69.7578C351.204 67.0791 351.005 64.2227 351.005 61.1962C351.005 57.4149 351.321 53.9296 351.94 50.7403C352.558 47.551 353.411 44.7982 354.493 42.4895C355.568 40.1808 356.856 38.3826 358.35 37.0728C359.843 35.7705 361.455 35.1267 363.207 35.1267C365.863 35.1267 367.813 36.5105 369.057 39.2854C370.301 42.0603 370.926 45.8342 370.926 50.6219C370.926 54.5734 370.507 58.1771 369.683 61.4552C368.851 64.7259 367.666 67.5231 366.128 69.8318C364.59 72.1405 362.743 73.9461 360.587 75.2485C358.43 76.5582 356.024 77.1946 353.367 77.1946C352.617 74.9303 352.035 72.4513 351.623 69.7652" fill="white"/>
<path d="M97.6494 97.1749C100.328 97.1749 102.499 96.1685 104.17 94.1484C105.84 92.1282 106.679 89.5235 106.679 86.3268V56.3131C106.679 53.1164 105.84 50.5117 104.17 48.4915C102.499 46.4714 100.321 45.465 97.6494 45.465V44.836L126.615 31.9752H127.248L127.123 42.0611C130.14 39.0346 133.768 36.6001 138 34.7501C142.232 32.9001 146.36 31.9752 150.386 31.9752C154.411 31.9752 157.892 32.9223 160.821 34.8093C163.757 36.7037 166.105 39.2862 167.864 42.5643C169.365 40.9659 171.036 39.5156 172.868 38.2132C174.7 36.9108 176.665 35.7935 178.748 34.8685C180.831 33.9435 182.965 33.2257 185.128 32.7226C187.299 32.2194 189.382 31.9678 191.384 31.9678C194.556 31.9678 197.411 32.5598 199.95 33.7363C202.489 34.9129 204.645 36.5779 206.389 38.7164C208.141 40.8623 209.495 43.4227 210.459 46.4122C211.416 49.3943 211.901 52.6946 211.901 56.3131V86.3268C211.901 89.5235 212.733 92.1282 214.411 94.1484C216.081 96.1685 218.252 97.1749 220.931 97.1749V99.1136H182.428V97.1749C185.099 97.1749 187.255 96.1685 188.889 94.1484C190.523 92.1282 191.332 89.5235 191.332 86.3268V56.3131C191.332 51.7697 190.685 48.0328 189.404 45.0876C188.116 42.1425 186.409 40.1076 184.297 38.968C182.177 37.8358 179.749 37.6212 177.004 38.339C174.259 39.0568 171.389 40.7957 168.386 43.5707C170.057 47.352 170.896 51.5995 170.896 56.3057V86.3194C170.896 89.5161 171.72 92.1208 173.368 94.141C175.017 96.1611 177.158 97.1675 179.8 97.1675V99.1062H141.297V97.1675C143.976 97.1675 146.147 96.1611 147.817 94.141C149.488 92.1208 150.327 89.5161 150.327 86.3194V56.3057C150.327 51.7623 149.679 48.0254 148.391 45.0802C147.103 42.1351 145.396 40.1002 143.277 38.9606C141.157 37.8284 138.699 37.6138 135.917 38.3316C133.128 39.0494 130.243 40.7883 127.248 43.5633V86.312C127.248 89.5087 128.072 92.1134 129.721 94.1336C131.369 96.1537 133.511 97.1601 136.153 97.1601V99.0988H97.6494V97.1601V97.1749Z" fill="white"/>
<path d="M288.783 97.1748C291.462 97.1748 293.633 96.1684 295.303 94.1483C296.974 92.1281 297.813 89.5234 297.813 86.3267V25.4188C297.813 22.2221 296.974 19.6174 295.303 17.5973C293.633 15.5771 291.455 14.5707 288.783 14.5707V13.9417L317.749 0.955078H318.382V86.3267C318.382 89.5234 319.214 92.1281 320.891 94.1483C322.562 96.1684 324.733 97.1748 327.412 97.1748V99.1136H288.783V97.1748Z" fill="white"/>
<path d="M518.42 35.1709H535.728V37.8718H518.42V76.6616C518.42 81.2051 519.067 84.942 520.362 87.8871C521.658 90.8323 523.372 92.8672 525.507 94.0068C527.641 95.139 530.106 95.3536 532.903 94.6358C535.699 93.9254 538.606 92.179 541.616 89.4041H542.999C541.579 91.1727 539.901 92.7636 537.98 94.1992C536.052 95.6273 534.006 96.8483 531.835 97.8547C529.665 98.8611 527.427 99.6454 525.124 100.186C522.82 100.733 520.591 101.007 518.412 101.007C515.211 101.007 512.356 100.415 509.831 99.2385C507.307 98.0619 505.166 96.4043 503.392 94.2584C501.626 92.1124 500.257 89.5521 499.293 86.5626C498.322 83.5805 497.843 80.2801 497.843 76.6616V37.8718H488.813V35.1709C492.243 34.8379 495.51 34.0831 498.609 32.8992C501.714 31.7226 504.525 30.1686 507.05 28.2373C509.574 26.3059 511.76 24.0786 513.614 21.5553C515.461 19.0319 516.852 16.257 517.779 13.2305H518.412V35.1709H518.42Z" fill="white"/>
<path d="M60.0886 29.8358C60.0445 31.2418 59.6471 32.3517 58.9112 33.0547C57.351 34.5495 54.3779 33.9797 53.2666 31.9299C52.8619 31.1752 52.597 30.3316 52.3909 29.5028C51.9493 27.6972 51.4636 25.8843 51.8757 23.9825C52.3173 21.9994 53.6052 21.2964 55.467 22.0882C55.9969 22.3028 56.5194 22.621 56.9462 22.9984C58.9848 24.8039 60.0224 27.1053 60.0886 29.8358Z" fill="white"/>
<path d="M88.6492 29.873C86.4267 23.6572 83.3211 18.3441 79.325 13.9116C75.329 9.47916 70.5013 6.05304 64.8274 3.63331C59.1608 1.21357 52.9201 0 46.1202 0C39.3203 0 32.9399 1.21357 27.2806 3.63331C21.6067 6.05304 16.7496 9.47916 12.7167 13.9116C8.67652 18.3441 5.54885 23.6572 3.31901 29.873C1.10388 36.0889 0 42.9855 0 50.5703C0 58.1551 1.10388 65.0517 3.32637 71.2676C5.54885 77.4834 8.65444 82.7743 12.6505 87.1624C16.6392 91.543 21.4742 94.947 27.1408 97.3741C32.8148 99.7938 39.1069 101 45.9951 101C52.8834 101 59.0357 99.7938 64.7096 97.3741C70.3762 94.947 75.2333 91.543 79.2735 87.1624C83.3064 82.7743 86.4414 77.4834 88.6565 71.2676C90.879 65.0517 91.9902 58.1551 91.9902 50.5703C91.9902 42.9855 90.879 36.0889 88.6565 29.873M74.9904 63.2092C74.7329 66.7093 74.0926 70.1206 72.9299 73.4283C70.31 80.8207 65.4455 85.9784 58.0274 88.6127C53.84 90.1001 49.4981 90.5811 45.0679 90.5959C43.1986 90.3887 41.3073 90.2851 39.4601 89.9521C33.9849 88.9605 29.1867 86.5408 25.2863 82.5301C19.0604 76.1144 16.6613 68.2188 16.8158 59.4575C16.8894 55.2692 17.4266 51.1179 18.3465 47.0184C20.3777 37.9536 23.8218 29.5178 29.3412 22.0144C32.1671 18.1591 35.4641 14.7774 39.6956 12.4539C44.7882 9.66415 49.8072 9.66415 54.7526 12.8757C58.9621 15.621 62.1928 19.3431 64.82 23.5536C72.3706 35.6819 76.0723 48.8313 74.9978 63.2092" fill="white"/>
<path d="M472.867 25.5294C467.605 35.0678 456.676 31.9673 451.76 23.8127C449.994 20.8823 449.015 17.6338 448.706 14.2003C448.625 11.6622 448.552 8.83545 446.933 6.76351C442.642 1.53184 436.733 -0.791699 432.133 3.61119C426.18 11.2626 427.041 22.4585 426.614 32.4852H448.059V35.1862H426.614V85.5789C426.54 91.2841 429.69 96.4418 435.518 96.4196V98.3584H397.015V96.4196C402.807 96.4418 406.133 91.3063 406.045 85.5789V35.1936H395.389V32.4926H406.045C405.839 19.3728 410.931 6.8745 423.854 2.41242C431.67 -0.214514 444.298 -1.62788 452.511 3.1524C455.337 5.16515 459.694 5.46854 462.821 6.65251C469.452 9.47924 477.061 17.6412 472.874 25.522" fill="white"/>
<path d="M450.568 96.4269C453.247 96.4269 455.418 95.4205 457.089 93.4004C458.759 91.3803 459.598 88.7755 459.598 85.5788V55.5652C459.598 52.3685 458.759 49.7637 457.089 47.7436C455.418 45.7234 453.24 44.7171 450.568 44.7171V44.0881L479.534 32.3594H480.167V85.5788C480.167 88.7755 481.006 91.3803 482.677 93.4004C484.347 95.4205 486.518 96.4269 489.197 96.4269V98.3657H450.568V96.4269Z" fill="white"/>
</g>
<defs>
<clipPath id="clip0_255_1772">
<rect width="543" height="101" fill="white"/>
</clipPath>
</defs>
</svg>
