<svg width="174" height="118" viewBox="0 0 174 118" fill="none" xmlns="http://www.w3.org/2000/svg">
<g clip-path="url(#clip0_255_218)">
<path d="M68.8549 84.5682C67.7837 82.8977 66.8111 81.1565 65.9489 79.3515H60.5972L69.7829 88.4942C69.0217 87.3334 68.6928 85.9414 68.8549 84.5682ZM82.3538 19.1325C80.4556 18.6535 78.4705 18.4011 76.429 18.4011H67.1916C56.7186 29.2921 50.9629 43.5853 50.9629 58.7658C50.9629 61.7362 51.1837 64.6713 51.616 67.5545H62.1078C61.5769 64.7067 61.2997 61.7669 61.2997 58.7658C61.2997 42.2782 69.6631 27.7136 82.3538 19.1325ZM148.425 65.9761H123.41C121.866 65.9761 120.433 65.483 119.261 64.6454C117.696 67.7551 115.805 70.6713 113.63 73.3516C116.423 75.2485 119.789 76.3575 123.41 76.3575H141.962L156.581 106.515H108.844C107.301 106.515 105.771 106.44 104.265 106.294L111.156 113.129L115.215 116.897H173.113L148.425 65.9761ZM108.844 0.634766C105.884 0.634766 102.957 0.85655 100.084 1.29304C104.569 3.88838 108.612 7.17975 112.058 11.0161H156.581L141.962 41.174H124.359C124.38 41.7946 124.392 42.4174 124.392 43.0427C124.387 45.9471 124.126 48.7925 123.63 51.5554H148.425L173.113 0.634766H108.844Z" fill="#C1C1C1"/>
<path d="M23.3141 72.9287L10.1582 93.6867V117.632H34.6352V104.656H23.3141V72.9287Z" fill="white"/>
<path d="M76.4264 85.9578C100.025 85.9578 119.223 66.6767 119.223 42.9789C119.223 19.281 100.025 0 76.4264 0H10.1582V46.7374L23.3141 29.5704V13.2127H76.4264C92.7702 13.2127 106.067 26.5645 106.067 42.9789C106.067 59.3933 92.7702 72.7451 76.4264 72.7451H44.6149L90.1085 118.032H108.743L76.4005 85.9578H76.424H76.4264Z" fill="white"/>
<path d="M22.45 36.3958C22.2057 37.5024 21.9708 38.6089 21.717 39.7131C20.6176 44.4862 19.5111 49.2593 18.4116 54.0347C18.1414 55.2097 18.3834 55.5164 19.5816 55.6155C22.8541 55.8892 26.1266 56.1723 29.3968 56.4555C29.4861 56.4625 29.573 56.4885 29.822 56.5404C23.6716 65.7798 17.5659 74.9532 11.4601 84.1265L11.2698 84.0676C11.3967 83.0412 11.5189 82.0149 11.6481 80.9885C12.2565 76.1494 12.8697 71.3126 13.4711 66.4711C13.5792 65.6005 13.2855 65.2867 12.3998 65.3127C8.63866 65.4188 4.87748 65.5368 1.1163 65.6477C0.82264 65.6571 0.528982 65.6477 -0.00195312 65.6477C7.49456 55.7854 14.8924 46.0529 22.2903 36.3203L22.4477 36.3958H22.45Z" fill="#7E7E7E"/>
</g>
<defs>
<clipPath id="clip0_255_218">
<rect width="173.486" height="117.778" fill="white"/>
</clipPath>
</defs>
</svg>
