<svg width="111" height="119" viewBox="0 0 111 119" fill="none" xmlns="http://www.w3.org/2000/svg">
<path d="M21.6132 51.5864V32.4172L5.27496 29.4854C5.27496 29.498 5.27707 29.5129 5.27707 29.5255C5.28552 29.68 5.29397 29.8386 5.30031 30.0015C5.30031 30.0205 5.30242 30.0375 5.30242 30.0565C5.30876 30.2342 5.31298 30.4161 5.31509 30.6044C5.31721 30.6467 5.31721 30.689 5.31721 30.7334C5.31932 30.9132 4.87569 87.031 4.86935 87.0923C4.86513 87.1473 4.85879 87.1981 4.85245 87.2488C4.84611 87.3081 4.83978 87.3694 4.83344 87.4265C4.8271 87.4773 4.82076 87.5259 4.81443 87.5767C4.80809 87.6317 4.79964 87.6888 4.7933 87.7438C4.78696 87.7925 4.77851 87.839 4.77218 87.8877C4.76373 87.9406 4.75528 87.9956 4.74682 88.0463C4.7426 88.0675 4.74049 88.0865 4.73626 88.1077C4.71725 88.2177 4.69824 88.3213 4.67711 88.425C4.67077 88.4546 4.66444 88.4863 4.6581 88.5159C4.63486 88.6301 4.60951 88.7444 4.58205 88.8523C4.57782 88.8692 4.5736 88.884 4.56937 88.9009C4.54825 88.9749 4.52924 89.049 4.50811 89.1188C4.49966 89.1484 4.49121 89.178 4.48065 89.2055C4.46375 89.2626 4.44685 89.3176 4.42783 89.3705C4.41938 89.398 4.40882 89.4234 4.40037 89.4509C4.36446 89.544 4.33066 89.6371 4.29263 89.7238C4.25038 89.819 4.20391 89.9078 4.15532 89.9967C4.13419 90.0368 4.11307 90.0792 4.08772 90.1193C4.04547 90.1934 3.99688 90.2632 3.9504 90.333C3.92928 90.3626 3.91027 90.3943 3.88703 90.4218C3.8152 90.5191 3.74126 90.608 3.65888 90.6926C3.65254 90.6989 3.6462 90.7032 3.63986 90.7095C3.56592 90.7878 3.48776 90.8576 3.40537 90.9253C3.3927 90.9359 3.38002 90.9464 3.36523 90.9549L21.6111 94.6335V79.6971V51.5906L21.6132 51.5864Z" fill="white"/>
<path d="M46.1099 81.6681L46.038 93.0994C46.0317 94.064 45.8923 94.9968 45.7211 95.7837C45.4381 97.0868 44.4219 98.1043 43.1249 98.411L42.0116 98.6733L24.8262 95.5489V77.8203L46.1077 81.6702L46.1099 81.6681Z" fill="#ADADAD"/>
<path d="M46.2641 57.4643L46.1415 78.3448L24.8262 74.4886V53.5869L46.2641 57.4643Z" fill="#ADADAD"/>
<path d="M46.3781 39.6093L46.2936 54.1374L24.8262 50.2537V32.9756L42.4404 36.1761L44.1769 35.8799C45.193 35.7065 46.1437 36.4215 46.2662 37.4453C46.3338 38.0249 46.3824 38.7441 46.3781 39.6072V39.6093Z" fill="#ADADAD"/>
<path d="M65.3585 2.32899C64.71 2.44744 64.0488 2.56802 63.3728 2.69494C60.1152 3.30204 56.8134 3.95356 53.6192 4.5797C49.202 5.45122 44.6326 6.35235 40.1308 7.14349C38.8949 7.36137 37.6633 7.57713 36.4275 7.79501C31.461 8.66442 26.3635 9.56132 21.2976 10.5111L4.47559 7.45233L37.0655 1.35593C37.4965 1.27555 37.9168 1.1994 38.3394 1.12747L38.3668 1.12113C38.4344 1.10844 38.5041 1.09786 38.5802 1.08517C38.9816 1.01536 39.3808 0.947671 39.7611 0.888441L39.9935 0.852481C40.3779 0.791136 40.7561 0.731906 41.1384 0.679023L41.2103 0.668446C41.599 0.613448 41.9792 0.560564 42.3616 0.511911H42.3891C42.4545 0.501335 42.5158 0.492873 42.594 0.484412C42.9637 0.437875 43.327 0.393453 43.6819 0.355376L43.8699 0.334223C44.2101 0.298262 44.5459 0.264417 44.884 0.232687L45.0001 0.219995C45.3487 0.188265 45.6931 0.160766 46.0205 0.137497L46.2529 0.122689C46.5866 0.0973055 46.9183 0.0782674 47.2415 0.0613447L47.3049 0.0571141C47.3345 0.0571141 47.3641 0.0549987 47.3936 0.0528834C47.6809 0.0380761 47.9661 0.0296147 48.245 0.019038H48.2767C48.3316 0.0169227 48.3865 0.0169227 48.4351 0.0148074C48.6759 0.00846134 48.9146 0.00211534 49.1428 0H49.6033C49.8378 0 50.0681 0.00211534 50.3131 0.00634601C50.3892 0.00634601 50.4631 0.00846134 50.5434 0.0105767C50.8392 0.0169227 51.1307 0.025384 51.418 0.0401914C51.4497 0.0423067 51.4771 0.0423067 51.5067 0.0465374H51.5469C51.7898 0.0613448 52.0285 0.0761521 52.2672 0.0951901L52.5102 0.114228C52.7214 0.133266 52.9306 0.152304 53.1228 0.173458C53.1925 0.181919 53.2622 0.188265 53.3298 0.194611C53.5897 0.224226 53.8495 0.258071 54.0924 0.294032L54.2868 0.323646C54.4114 0.342684 54.5361 0.361722 54.648 0.380761L65.3691 2.32899H65.3585Z" fill="#ADADAD"/>
<path d="M85.8685 6.83376C85.6129 6.86338 85.353 6.89511 85.0805 6.92895C85.015 6.93953 84.9474 6.95011 84.8587 6.95857L84.5693 6.99876C83.8193 7.09606 83.0419 7.21029 82.2603 7.3351C81.6033 7.43663 80.8829 7.55932 80.0569 7.70951L80.0147 7.71797C79.9302 7.73278 79.8435 7.74759 79.759 7.76451L42.5596 14.724L27.6494 12.0163C29.4303 11.699 31.2027 11.3881 32.9624 11.0792L37.5804 10.267C42.0336 9.48428 46.5375 8.59584 50.8914 7.73913L51.1343 7.69259C54.3116 7.06433 57.5987 6.41704 60.8541 5.81206C64.6059 5.11611 67.8655 4.55555 70.8167 4.09863L85.8685 6.83376Z" fill="#ADADAD"/>
<path d="M19.9505 13.488V29.4735L0.0146484 25.6956V9.70996L19.9505 13.488Z" fill="white"/>
<path d="M40.8576 17.2047L40.7604 33.1903L23.1631 29.8502V13.8477L40.8576 17.2047Z" fill="#ADADAD"/>
<path d="M104.374 58.8649C103.011 57.8495 101.452 57.0584 99.7009 56.5C97.9517 55.9394 96.0166 55.6094 93.9041 55.5142L90.4058 55.3534L93.5936 53.8981C97.2208 52.2418 100.282 50.0651 102.688 47.4273C107.017 42.6783 109.237 36.3514 109.285 28.6219C109.326 22.4832 108.421 17.7597 106.605 14.5824C104.815 11.4623 101.902 9.56275 97.6982 8.77162H97.694C97.5968 8.75258 97.4975 8.73566 97.4003 8.71873C97.2651 8.69546 97.1299 8.67431 96.9926 8.65316C96.6483 8.60027 96.2955 8.55374 95.9321 8.51566C95.9173 8.51566 95.9047 8.51143 95.8899 8.51143C95.8075 8.50085 95.723 8.49239 95.6385 8.48393C95.5624 8.47547 95.4864 8.46912 95.4082 8.46278C95.3364 8.45643 95.2625 8.45009 95.1906 8.44374C95.0385 8.43105 94.8843 8.41836 94.728 8.40989C94.5822 8.39932 94.4344 8.39086 94.2865 8.3824L94.1576 8.37393C94.0435 8.3697 93.9295 8.36336 93.8133 8.36124C93.695 8.35701 93.5767 8.35278 93.4563 8.34855C93.3971 8.34855 93.338 8.34432 93.2767 8.3422H93.133C92.6641 8.33163 92.1803 8.33163 91.686 8.34009C91.5149 8.3422 91.3416 8.34643 91.1663 8.35066H91.143C91.0966 8.35066 91.048 8.35066 91.0015 8.3549C90.7015 8.36124 90.41 8.37393 90.1185 8.38874L89.9769 8.39509C89.6558 8.41201 89.322 8.43316 88.984 8.45643L88.8552 8.46701C88.8319 8.46701 88.8108 8.46912 88.7876 8.47124C88.6122 8.48393 88.4369 8.49662 88.2594 8.51143L88.1073 8.52412C87.9848 8.5347 87.8623 8.54528 87.7377 8.55585C87.6996 8.56008 87.651 8.56431 87.6025 8.56854C87.518 8.57701 87.4335 8.58547 87.3468 8.59393C86.6539 8.66162 85.942 8.73989 85.2132 8.83296C85.1709 8.83931 85.1308 8.84354 85.0886 8.84777L84.9998 8.86046C84.8287 8.88161 84.6555 8.90488 84.4801 8.93027C84.3935 8.94084 84.3069 8.95354 84.2203 8.96623L83.8971 9.01065C83.5147 9.06565 83.126 9.12276 82.7331 9.18622C82.4648 9.22641 82.1944 9.27084 81.9219 9.31737C81.7233 9.3491 81.5226 9.38295 81.3219 9.41891C81.2776 9.42526 81.2311 9.43372 81.1867 9.44218C81.0452 9.46545 80.9015 9.49083 80.7579 9.51622C80.5508 9.55218 80.3417 9.59025 80.1305 9.63044C80.0227 9.64948 79.915 9.66852 79.8072 9.68967L59.9453 13.4063L43.3894 16.5032L43.2817 33.4047V33.4407L43.381 33.4216L45.0034 33.1191C46.4589 32.8463 47.5891 33.3497 48.1912 34.5406C48.6876 35.5243 48.9221 37.1869 48.9073 39.6259L48.5651 93.1164C48.5503 95.53 48.3032 97.2561 47.8088 98.39C47.2575 99.657 46.2477 100.459 44.8936 100.713L42.8529 101.095L42.7451 118.031L76.7715 111.664C85.2132 110.084 92.0028 107.786 96.9525 104.835C101.847 101.918 105.424 98.1615 107.585 93.6685C109.761 89.1417 110.889 83.352 110.933 76.4603C110.986 68.0751 108.778 62.1564 104.367 58.867L104.374 58.8649ZM71.4121 28.1164L75.9772 27.3887C79.1312 26.8852 81.5036 27.5664 83.0246 29.4088C84.4506 31.1413 85.1287 33.9166 85.0991 37.885C85.0674 42.1368 84.2964 45.2041 82.7415 47.2686C81.1635 49.367 78.5439 50.7208 74.9611 51.292L71.2367 51.8843L71.4142 28.1121L71.4121 28.1164ZM83.9541 90.523C82.3338 92.8985 79.6467 94.4068 75.9772 95.0118L70.941 95.8367L71.1374 69.0249L74.6294 68.4516C78.9305 67.7472 82.0254 68.331 83.8295 70.1841C85.5702 71.9821 86.4004 75.2397 86.3624 80.1494C86.3307 84.8053 85.5427 88.2004 83.9562 90.523H83.9541Z" fill="white"/>
<path d="M39.8971 100.958V117.919L0 110.01L0.0147877 93.0215L39.8971 100.958Z" fill="white"/>
</svg>
