<svg width="146" height="146" viewBox="0 0 146 146" fill="none" xmlns="http://www.w3.org/2000/svg">
<g clip-path="url(#clip0_255_709)">
<path d="M73.004 146.008C113.323 146.008 146.008 113.323 146.008 73.004C146.008 32.685 113.323 0 73.004 0C32.685 0 0 32.685 0 73.004C0 113.323 32.685 146.008 73.004 146.008Z" fill="#FCFCFC"/>
<path d="M141.576 73.0041C141.576 110.876 110.867 141.585 72.995 141.585C66.48 141.585 60.1733 140.679 54.2031 138.98L63.6031 126.375L78.4523 106.461L101.724 75.2399L74.9103 73.0041L103.286 33.6012L86.6823 38.7539L123.954 27.1182C134.908 39.2668 141.568 55.3581 141.568 72.9961L141.576 73.0041Z" fill="#3F3F3F"/>
<path d="M103.295 33.6014L74.9186 73.0043L101.732 75.2401L78.4606 106.461L63.6114 126.375L54.2114 138.98C25.4666 130.806 4.42285 104.362 4.42285 73.0043C4.42285 35.132 35.123 4.42383 73.0033 4.42383C93.2297 4.42383 111.421 13.1827 123.97 27.1184L86.6986 38.7541L103.303 33.6014H103.295Z" fill="#525252"/>
<path d="M74.9259 73.0045L101.739 75.2323L78.4599 106.453L63.6106 126.367L68.2024 88.1582L45.2835 93.1026L42.7031 52.4255L86.1048 38.9466L86.6979 38.7543L103.294 33.6016L74.9259 73.0045Z" fill="black"/>
<path d="M49.0266 71.6984L48.2012 55.9356L67.7624 49.8613L53.3379 59.2212L49.0266 71.6984Z" fill="white"/>
</g>
<defs>
<clipPath id="clip0_255_709">
<rect width="146" height="146" fill="white"/>
</clipPath>
</defs>
</svg>
