<svg width="103" height="119" viewBox="0 0 103 119" fill="none" xmlns="http://www.w3.org/2000/svg">
<path d="M50.8582 4.97678L97.7588 31.692L98.1136 85.7256L51.568 113.055L4.66746 86.3396L4.31258 32.306L50.8582 4.97678ZM50.8259 0L48.6858 1.26035L2.14017 28.5895L0 29.8499L0.0215301 32.3383L0.376415 86.3719L0.397945 88.8603L2.55958 90.0883L49.4601 116.803L51.6218 118.032L53.7619 116.771L100.308 89.442L102.448 88.1816L102.426 85.6932L102.071 31.6596L102.05 29.1712L99.8881 27.9432L52.9769 1.22804L50.8152 0H50.8259Z" fill="white"/>
<path d="M84.9271 36.0538L57.4385 19.917V23.2995V24.0643V24.9153V27.4468V27.91V28.5779V31.5726L73.4197 40.9552L73.9897 41.2891L74.5489 41.6231L77.1193 43.1204L77.6785 43.4651L78.0872 43.6914V43.896L78.0549 46.8799V47.5478V48.2157L77.8829 73.5089V77.6239V78.2918V78.7443V81.265V82.116V82.8593V86.231L84.6259 82.3853L87.8846 80.5325L87.9168 76.7837L88.1427 41.7093L88.1642 37.9497L84.9271 36.0538Z" fill="white"/>
<path d="M35.8862 81.0825L21.7655 72.9495L21.1955 72.6155L20.7976 72.3893L18.6252 71.129L17.8831 70.7088L17.2378 70.3318L14.3341 68.6621L14.2803 76.2996L14.248 80.0484L17.4852 81.9443L47.6947 99.6862L50.9318 101.582L54.1904 99.7185L71.9031 89.6357V86.2747V85.5315V84.6697V82.149V81.6965V81.0394V78.0663L51.0071 89.9588L35.8862 81.0825Z" fill="white"/>
<path d="M83.3564 35.1709L80.7215 36.6898L80.0655 37.0776L79.3234 37.4977L77.1402 38.7688L76.7423 39.0058L76.1616 39.329L73.5805 40.8263L50.8024 53.99L28.2931 40.9771L25.6906 39.469L25.1098 39.1351L24.7119 38.8981L22.4965 37.627L21.7544 37.1961L21.0984 36.8083L18.4527 35.2894L14.5704 37.4869L14.5273 43.0239L17.173 44.5535L17.8075 44.9198L18.5603 45.3507L20.7435 46.6218L21.1521 46.848L21.7221 47.182L24.314 48.6793L27.4758 50.5106L46.4791 61.509V80.4574L50.9207 83.0751L55.1365 80.6837V61.509L78.248 48.1407L80.8506 46.6326L81.4313 46.2986L81.8292 46.0724L84.0447 44.7905L84.7867 44.3596L85.4427 43.9826L88.0991 42.4422L88.1314 37.9717L83.3564 35.1709Z" fill="#969696"/>
<path d="M17.9367 63.8148L18.668 64.235L20.8404 65.4953L21.2383 65.7215L21.8083 66.0555L24.3787 67.5313L24.4969 48.7552L24.5077 48.0981V47.441L24.5292 44.4679L24.54 43.8108V43.3368L24.712 43.2506L27.3147 41.764L27.8954 41.4301L28.4654 41.1069L51.4155 28.0402L51.4478 28.0617V25.067V24.3992V23.936V21.4153V20.5642V19.8102V16.4385L48.2214 18.2805L17.7969 35.6131L14.5383 37.4659L14.506 41.2254L14.377 61.7681L17.2914 63.4378L17.9367 63.8148Z" fill="white"/>
</svg>
