<svg width="167" height="119" viewBox="0 0 167 119" fill="none" xmlns="http://www.w3.org/2000/svg">
<path d="M143.437 75.1035C155.125 68.1223 162.211 56.2535 162.211 41.7676C162.217 17.0968 143.727 0 118.221 0H113.891V7.93982L101.76 28.8962H114.428C123.537 28.8962 128.784 34.2945 128.784 41.673C128.784 49.0516 123.537 54.5256 114.428 54.5256H86.6266L71.1836 81.9145H109.554L128.752 118.032H166.927L143.437 75.1035Z" fill="#333333"/>
<path d="M13.084 111.094L59.2361 31.0277H37.6614L20.9541 0H108.599V7.03169L62.3146 86.9975H106.28L122.993 118.032H13.084V111.094Z" fill="white"/>
<path d="M31.8532 31.034H16.7136L0 0H15.1396L31.8532 31.034Z" fill="#333333"/>
</svg>
